<svg width="475" height="346" viewBox="0 0 475 346" fill="none" xmlns="http://www.w3.org/2000/svg">
<g clip-path="url(#clip0_44_5)">
<path d="M31.9663 260.73C29.7108 260.73 27.4506 260.83 25.2434 261.033L24.9222 261.062C10.2816 262.456 -0.427323 270.543 0.0131047 279.875L0.0982494 281.562C0.154398 282.629 0.214223 283.775 0.263465 285.047C0.290135 285.675 1.08497 286.156 2.07399 286.156H362.197C387.588 285.99 412.886 285.781 437.385 285.535C441.98 285.546 446.572 285.289 451.141 284.768C457.95 283.9 462.676 282.179 465.59 279.508H465.591C469.214 276.195 469.329 272.024 469.11 267.311C468.663 257.794 468.22 247.797 467.779 237.83C467.388 229.046 467 220.285 466.611 211.898C466.371 206.92 465.837 202.527 461.722 199.169C457.262 195.537 449.127 193.697 437.543 193.697C437.403 193.697 437.264 193.697 437.122 193.697C400.82 193.836 364.85 207.282 347.616 227.154C345.632 229.442 343.783 231.892 341.994 234.262C339.352 237.762 336.62 241.381 333.36 244.617C331.594 246.393 329.685 247.996 327.656 249.406C327.516 249.511 327.355 249.622 327.186 249.728C326.799 250 326.394 250.262 325.999 250.496C323.687 251.934 321.251 253.127 318.724 254.058L318.47 254.15C318.278 254.224 318.07 254.298 317.862 254.366C316.403 254.87 314.887 255.306 313.369 255.659C306.8 257.218 299.33 257.592 291.168 256.769C283.672 255.993 276.273 254.369 269.093 251.924C261.535 249.351 254.46 246.143 247.619 243.041C244.613 241.678 241.505 240.269 238.401 238.934C237.817 238.683 237.243 238.437 236.661 238.191C232.87 236.6 229.432 235.285 226.153 234.173C218.028 231.406 209.617 229.728 201.111 229.177C192.082 228.645 184.126 229.649 177.468 232.155C175.633 232.843 173.846 233.672 172.121 234.637C164.235 239.047 159.374 245.557 154.673 251.852C148.826 259.683 142.779 267.78 130.839 271.978C117.061 276.826 96.9502 274.812 82.722 271.309C78.2486 270.208 73.7808 268.941 69.4597 267.715C67.7146 267.22 65.9682 266.728 64.2206 266.24C60.7864 265.285 57.9758 264.553 55.3756 263.935L54.5531 263.738C54.0957 263.631 53.6377 263.524 53.1715 263.422C50.083 262.724 47.2071 262.174 44.3748 261.742L43.7048 261.637C42.3614 261.446 41.1054 261.287 39.873 261.154L39.381 261.101C36.9671 260.854 34.469 260.73 31.9663 260.73Z" fill="#01191F"/>
<path d="M404.355 271.145C414.488 261.309 429.56 256.364 442.203 261.879C429.234 269.634 419.23 282.081 413.961 297.016C411.948 302.784 410.267 309.425 405.316 312.513C402.236 314.435 398.404 314.529 394.95 313.601C391.496 312.673 388.33 310.814 385.208 308.973L384.319 308.951C388.308 294.901 394.221 280.98 404.355 271.145Z" fill="#01191F"/>
<path d="M442.132 262.178C430.935 263.736 420.478 269.055 412.247 277.38C410.446 279.138 408.913 281.191 407.705 283.463C406.595 285.717 406.065 288.251 406.172 290.8C406.226 293.18 406.538 295.607 406.055 297.959C405.791 299.159 405.294 300.285 404.598 301.264C403.902 302.243 403.021 303.052 402.014 303.639C399.54 305.171 396.702 305.654 393.911 306.022C390.813 306.431 387.589 306.803 384.908 308.675C384.583 308.901 384.275 308.345 384.599 308.119C389.265 304.862 395.169 306.047 400.186 303.874C402.527 302.86 404.599 301.08 405.332 298.388C405.973 296.035 405.654 293.532 405.579 291.123C405.441 288.638 405.871 286.154 406.83 283.888C407.927 281.557 409.384 279.444 411.139 277.639C415.029 273.509 419.499 270.062 424.383 267.427C429.942 264.386 435.943 262.391 442.127 261.53C442.509 261.477 442.512 262.125 442.132 262.178Z" fill="#2FF77A"/>
<path d="M414.751 274.531C413.642 272.854 413.122 270.807 413.285 268.755C413.448 266.704 414.282 264.781 415.64 263.331C415.915 263.039 416.35 263.486 416.074 263.779C414.808 265.127 414.031 266.918 413.883 268.828C413.735 270.739 414.226 272.644 415.267 274.199C415.493 274.537 414.976 274.867 414.751 274.531Z" fill="#2FF77A"/>
<path d="M405.996 289.598C409.844 290.332 413.808 289.477 417.096 287.204C417.422 286.978 417.73 287.534 417.405 287.76C413.978 290.119 409.852 290.999 405.849 290.226C405.468 290.151 405.617 289.524 405.996 289.598Z" fill="#2FF77A"/>
<path d="M429.991 265.243C430.295 265.988 430.765 266.64 431.361 267.141C431.956 267.642 432.658 267.975 433.403 268.112C433.785 268.181 433.635 268.808 433.256 268.74C432.434 268.585 431.659 268.215 431 267.664C430.341 267.112 429.817 266.395 429.475 265.575C429.436 265.5 429.426 265.413 429.445 265.33C429.465 265.248 429.512 265.177 429.579 265.131C429.647 265.087 429.729 265.074 429.806 265.095C429.883 265.116 429.95 265.169 429.991 265.243Z" fill="#2FF77A"/>
<path d="M456.125 309.31C455.885 309.274 455.645 309.239 455.402 309.207C452.176 308.746 448.921 308.568 445.669 308.674C445.417 308.678 445.163 308.686 444.912 308.698C437.078 309.045 429.373 310.955 422.187 314.332C419.329 315.679 416.57 317.257 413.934 319.055C410.294 321.537 406.531 324.541 402.462 325.553C402.038 325.664 401.609 325.746 401.176 325.8L384.364 310.12C384.342 310.064 384.317 310.011 384.295 309.955L383.598 309.362C383.727 309.259 383.864 309.155 383.994 309.052C384.069 308.992 384.148 308.936 384.223 308.876C384.275 308.837 384.326 308.798 384.37 308.76C384.387 308.747 384.405 308.734 384.418 308.725C384.462 308.687 384.507 308.656 384.548 308.622C385.311 308.04 386.08 307.463 386.853 306.89C386.857 306.886 386.857 306.886 386.864 306.885C392.719 302.461 399.041 298.801 405.697 295.981C405.896 295.9 406.099 295.814 406.307 295.74C409.304 294.54 412.388 293.605 415.526 292.946C417.246 292.591 418.982 292.33 420.726 292.163C425.234 291.744 429.775 292.09 434.182 293.19C442.969 295.385 451.006 300.582 455.767 308.687C455.888 308.894 456.006 309.098 456.125 309.31Z" fill="#01191F"/>
<path d="M455.902 309.504C446.091 303.487 434.768 300.953 423.543 302.262C421.122 302.498 418.751 303.143 416.516 304.174C414.37 305.254 412.531 306.933 411.19 309.038C409.904 310.973 408.797 313.113 407.096 314.678C406.214 315.465 405.188 316.042 404.085 316.372C402.982 316.702 401.827 316.777 400.694 316.592C397.863 316.211 395.327 314.756 392.893 313.241C390.191 311.558 387.409 309.764 384.221 309.52C383.835 309.49 383.9 308.846 384.286 308.876C389.832 309.302 393.883 314.077 399.104 315.595C401.54 316.303 404.189 316.225 406.279 314.552C408.106 313.088 409.25 310.883 410.537 308.911C411.816 306.837 413.548 305.133 415.58 303.946C417.759 302.796 420.103 302.053 422.513 301.751C427.928 300.975 433.423 301.122 438.796 302.185C444.935 303.362 450.841 305.661 456.26 308.984C456.595 309.189 456.235 309.709 455.902 309.504Z" fill="#2FF77A"/>
<path d="M427.135 301.612C427.187 299.553 427.916 297.582 429.193 296.049C430.469 294.517 432.21 293.523 434.104 293.246C434.488 293.191 434.585 293.83 434.201 293.885C432.437 294.14 430.815 295.066 429.629 296.495C428.443 297.925 427.77 299.765 427.732 301.682C427.724 302.098 427.126 302.026 427.135 301.612Z" fill="#2FF77A"/>
<path d="M411.723 307.964C414.384 311.046 418.027 312.934 421.924 313.251C422.31 313.282 422.244 313.926 421.859 313.895C417.804 313.556 414.018 311.584 411.254 308.37C410.991 308.064 411.461 307.659 411.723 307.964Z" fill="#2FF77A"/>
<path d="M444.495 304.078C444.321 304.87 444.332 305.696 444.527 306.482C444.723 307.269 445.097 307.99 445.615 308.582C445.882 308.885 445.412 309.289 445.147 308.988C444.577 308.331 444.165 307.534 443.947 306.666C443.729 305.798 443.712 304.886 443.897 304.009C443.908 303.924 443.948 303.848 444.01 303.795C444.071 303.741 444.149 303.715 444.228 303.722C444.307 303.731 444.38 303.774 444.43 303.841C444.479 303.908 444.503 303.993 444.495 304.078Z" fill="#2FF77A"/>
<path d="M139.089 280.926C147.387 267.371 162.23 257.565 177.176 259.675C165.308 271.856 157.824 288.165 156.046 305.718C155.383 312.49 155.3 320.097 150.803 324.883C148.005 327.861 143.93 329.11 139.997 329.153C136.063 329.195 132.197 328.155 128.382 327.122L127.426 327.365C128.063 311.143 130.792 294.482 139.089 280.926Z" fill="#01191F"/>
<path d="M177.177 260.015C165.604 265.038 155.794 273.86 149.141 285.23C147.668 287.65 146.559 290.305 145.854 293.097C145.249 295.841 145.337 298.709 146.109 301.404C146.782 303.933 147.742 306.435 147.833 309.095C147.861 310.458 147.621 311.811 147.129 313.067C146.637 314.323 145.904 315.452 144.978 316.381C142.728 318.761 139.817 320.128 136.928 321.358C133.72 322.724 130.368 324.088 127.983 326.893C127.694 327.233 127.222 326.73 127.51 326.391C131.659 321.51 138.28 321.008 143.084 317.18C145.326 315.394 147.082 312.869 147.171 309.771C147.249 307.062 146.261 304.48 145.559 301.927C144.77 299.31 144.588 296.525 145.028 293.814C145.599 290.992 146.612 288.296 148.022 285.84C151.116 280.256 155.006 275.231 159.55 270.948C164.71 266.03 170.613 262.099 177.004 259.324C177.4 259.153 177.57 259.845 177.177 260.015Z" fill="#2FF77A"/>
<path d="M151.083 281.433C149.464 279.972 148.379 277.938 148.024 275.695C147.668 273.452 148.064 271.146 149.141 269.188C149.36 268.793 149.941 269.141 149.721 269.537C148.715 271.358 148.346 273.506 148.682 275.594C149.017 277.682 150.034 279.572 151.55 280.923C151.879 281.217 151.41 281.725 151.083 281.433Z" fill="#2FF77A"/>
<path d="M145.611 300.171C149.916 299.803 153.935 297.701 156.865 294.284C157.155 293.946 157.628 294.448 157.338 294.787C154.283 298.336 150.097 300.515 145.616 300.887C145.189 300.922 145.186 300.206 145.611 300.171Z" fill="#2FF77A"/>
<path d="M164.984 266.932C165.501 267.638 166.173 268.194 166.939 268.552C167.705 268.909 168.542 269.055 169.374 268.978C169.8 268.937 169.802 269.653 169.379 269.694C168.459 269.775 167.535 269.611 166.688 269.219C165.841 268.826 165.095 268.216 164.517 267.442C164.457 267.373 164.423 267.283 164.423 267.189C164.422 267.095 164.455 267.005 164.514 266.936C164.576 266.868 164.66 266.83 164.748 266.83C164.836 266.829 164.921 266.866 164.984 266.932Z" fill="#2FF77A"/>
<path d="M204.316 306.232C204.051 306.266 203.785 306.3 203.517 306.339C199.948 306.812 196.42 307.597 192.969 308.686C192.701 308.765 192.431 308.85 192.166 308.938C183.877 311.656 176.13 316.009 169.317 321.773C166.607 324.07 164.064 326.585 161.709 329.297C158.457 333.043 155.208 337.383 151.118 339.685C150.693 339.931 150.255 340.147 149.806 340.334L127.775 328.602C127.738 328.549 127.697 328.5 127.659 328.446L126.76 328.021C126.872 327.872 126.992 327.72 127.104 327.571C127.169 327.484 127.239 327.4 127.304 327.314C127.348 327.257 127.393 327.2 127.431 327.145C127.446 327.126 127.461 327.107 127.473 327.094C127.51 327.04 127.551 326.994 127.585 326.945C128.251 326.093 128.924 325.246 129.603 324.401C129.606 324.396 129.606 324.396 129.613 324.393C134.805 317.975 140.54 311.967 146.939 307.088C147.132 306.941 147.327 306.789 147.529 306.647C150.425 304.465 153.482 302.542 156.669 300.896C158.416 300.001 160.205 299.201 162.028 298.501C166.74 296.701 171.687 295.711 176.685 295.567C186.649 295.281 196.588 298.431 203.772 305.673C203.956 305.859 204.135 306.041 204.316 306.232Z" fill="#01191F"/>
<path d="M204.129 306.507C192.081 303.012 179.317 303.694 167.649 308.458C165.121 309.435 162.751 310.836 160.627 312.608C158.61 314.406 157.077 316.754 156.187 319.406C155.312 321.861 154.68 324.482 153.265 326.665C152.526 327.771 151.577 328.696 150.483 329.379C149.388 330.063 148.171 330.489 146.913 330.631C143.786 331.071 140.698 330.275 137.703 329.384C134.379 328.394 130.94 327.31 127.468 328.003C127.047 328.087 126.95 327.379 127.371 327.295C133.412 326.089 138.979 329.981 144.954 330.041C147.743 330.068 150.556 329.191 152.359 326.775C153.935 324.662 154.589 321.961 155.456 319.466C156.289 316.865 157.7 314.523 159.567 312.645C161.6 310.762 163.916 309.265 166.415 308.219C172.007 305.767 177.922 304.278 183.943 303.805C190.812 303.224 197.723 303.914 204.377 305.843C204.788 305.963 204.538 306.626 204.129 306.507Z" fill="#2FF77A"/>
<path d="M171.322 306.686C170.846 304.469 171.117 302.142 172.087 300.12C173.056 298.098 174.662 296.514 176.616 295.649C177.012 295.476 177.281 296.13 176.884 296.304C175.063 297.105 173.568 298.582 172.668 300.466C171.769 302.351 171.525 304.519 171.98 306.581C172.078 307.029 171.42 307.131 171.322 306.686Z" fill="#2FF77A"/>
<path d="M156.479 318.098C160.122 320.597 164.505 321.524 168.755 320.696C169.176 320.614 169.273 321.322 168.852 321.404C164.428 322.257 159.869 321.282 156.083 318.673C155.723 318.424 156.121 317.851 156.479 318.098Z" fill="#2FF77A"/>
<path d="M190.526 304.122C190.545 305.021 190.77 305.901 191.182 306.683C191.595 307.465 192.181 308.125 192.888 308.603C193.251 308.847 192.853 309.42 192.492 309.177C191.713 308.645 191.066 307.916 190.609 307.053C190.152 306.19 189.898 305.219 189.869 304.226C189.859 304.133 189.883 304.039 189.935 303.963C189.987 303.888 190.063 303.837 190.149 303.82C190.236 303.807 190.325 303.831 190.396 303.887C190.466 303.944 190.513 304.028 190.526 304.122Z" fill="#2FF77A"/>
<path d="M198.142 179.295C198.693 178.705 199.116 177.992 199.383 177.207C199.651 176.421 199.755 175.582 199.688 174.749C199.622 173.915 199.386 173.108 198.999 172.383C198.611 171.658 198.08 171.033 197.444 170.553L206.116 125.349L196.76 128.528L189.784 172.26C189.105 173.464 188.861 174.894 189.097 176.279C189.332 177.665 190.031 178.909 191.062 179.776C192.092 180.643 193.382 181.073 194.687 180.985C195.992 180.896 197.221 180.295 198.142 179.295Z" fill="#FFB6B6"/>
<path d="M218.186 58.4616L212.391 53.7496C212.391 53.7496 207.278 53.3597 206.373 63.2903C205.467 73.2209 199.798 111.334 199.798 111.334L190.93 155.575L203.206 158.478L212.704 110.734L222.212 77.7954L218.186 58.4616Z" fill="#01191F"/>
<path d="M213.771 140.323L185.971 117.041C185.538 116.677 185.257 116.144 185.189 115.557C185.121 114.97 185.271 114.378 185.608 113.911L204.522 87.7094C204.86 87.243 205.355 86.9398 205.9 86.8664C206.445 86.793 206.994 86.9553 207.428 87.3177L235.228 110.6C235.661 110.964 235.942 111.497 236.01 112.084C236.078 112.671 235.928 113.263 235.591 113.73L216.677 139.932C216.339 140.398 215.844 140.701 215.299 140.774C214.754 140.848 214.205 140.686 213.771 140.323Z" fill="#3F3D56"/>
<path d="M213.618 137.914L188.177 116.606C187.792 116.283 187.542 115.81 187.482 115.289C187.421 114.768 187.555 114.242 187.854 113.827L205.001 90.0744C205.3 89.6603 205.74 89.3911 206.224 89.3259C206.708 89.2607 207.196 89.4048 207.581 89.7266L233.022 111.034C233.407 111.357 233.656 111.831 233.717 112.352C233.777 112.872 233.644 113.398 233.345 113.813L216.198 137.566C215.898 137.98 215.458 138.249 214.975 138.314C214.491 138.379 214.003 138.235 213.618 137.914Z" fill="#2FF77A"/>
<path d="M191.512 116.002C191.416 115.922 191.354 115.803 191.338 115.673C191.323 115.543 191.357 115.411 191.431 115.308L200.082 103.325C200.156 103.221 200.266 103.154 200.387 103.138C200.447 103.13 200.508 103.134 200.566 103.151C200.624 103.169 200.679 103.198 200.727 103.238C200.774 103.278 200.814 103.328 200.844 103.384C200.874 103.441 200.893 103.503 200.9 103.567C200.908 103.632 200.904 103.697 200.888 103.76C200.872 103.823 200.844 103.881 200.807 103.933L192.157 115.915C192.082 116.019 191.972 116.086 191.851 116.102C191.73 116.119 191.608 116.083 191.512 116.002Z" fill="#E4E4E4"/>
<path d="M192.946 117.203C192.85 117.122 192.787 117.004 192.772 116.874C192.757 116.743 192.79 116.612 192.865 116.508L201.515 104.526C201.59 104.422 201.7 104.355 201.821 104.338C201.942 104.322 202.064 104.358 202.16 104.439C202.256 104.519 202.319 104.638 202.334 104.768C202.349 104.898 202.316 105.03 202.241 105.133L193.591 117.116C193.516 117.22 193.406 117.287 193.285 117.303C193.164 117.32 193.042 117.283 192.946 117.203Z" fill="#E4E4E4"/>
<path d="M199.28 111.615C199.184 111.534 199.121 111.416 199.106 111.286C199.091 111.155 199.125 111.024 199.199 110.92L202.949 105.726C202.986 105.675 203.032 105.631 203.084 105.599C203.137 105.567 203.195 105.546 203.255 105.538C203.315 105.53 203.376 105.535 203.434 105.552C203.492 105.569 203.547 105.598 203.594 105.638C203.642 105.678 203.682 105.728 203.712 105.785C203.742 105.841 203.761 105.904 203.768 105.968C203.776 106.033 203.771 106.098 203.755 106.161C203.739 106.224 203.712 106.282 203.675 106.334L199.925 111.528C199.85 111.631 199.74 111.699 199.619 111.715C199.498 111.731 199.376 111.695 199.28 111.615Z" fill="#E4E4E4"/>
<path d="M201.213 121.808C201.117 121.727 201.054 121.609 201.039 121.479C201.024 121.349 201.058 121.217 201.132 121.113L214.788 102.197C214.825 102.145 214.871 102.102 214.924 102.07C214.976 102.038 215.034 102.017 215.094 102.009C215.154 102.001 215.215 102.006 215.273 102.023C215.331 102.04 215.385 102.07 215.433 102.11C215.481 102.149 215.521 102.199 215.55 102.256C215.58 102.312 215.6 102.374 215.607 102.439C215.614 102.503 215.61 102.569 215.594 102.632C215.578 102.694 215.551 102.753 215.514 102.804L201.858 121.721C201.783 121.825 201.673 121.892 201.552 121.908C201.431 121.925 201.309 121.889 201.213 121.808Z" fill="#E4E4E4"/>
<path d="M202.647 123.009C202.551 122.928 202.488 122.81 202.473 122.679C202.458 122.549 202.491 122.418 202.566 122.314L216.222 103.397C216.259 103.346 216.305 103.303 216.357 103.271C216.41 103.239 216.468 103.218 216.528 103.21C216.587 103.202 216.648 103.207 216.706 103.224C216.765 103.241 216.819 103.27 216.867 103.31C216.914 103.35 216.954 103.4 216.984 103.456C217.014 103.513 217.033 103.575 217.041 103.64C217.048 103.704 217.044 103.77 217.028 103.832C217.012 103.895 216.985 103.954 216.947 104.005L203.292 122.922C203.217 123.025 203.107 123.093 202.986 123.109C202.865 123.125 202.743 123.089 202.647 123.009Z" fill="#E4E4E4"/>
<path d="M205.901 125.734C205.805 125.654 205.742 125.535 205.727 125.405C205.712 125.275 205.746 125.143 205.82 125.04L219.476 106.123C219.513 106.071 219.559 106.029 219.612 105.996C219.664 105.964 219.722 105.944 219.782 105.935C219.842 105.927 219.903 105.932 219.961 105.949C220.019 105.967 220.073 105.996 220.121 106.036C220.169 106.076 220.209 106.125 220.238 106.182C220.268 106.238 220.288 106.301 220.295 106.365C220.303 106.43 220.298 106.495 220.282 106.558C220.266 106.621 220.239 106.679 220.202 106.731L206.546 125.647C206.471 125.751 206.361 125.818 206.24 125.835C206.119 125.851 205.997 125.815 205.901 125.734Z" fill="#E4E4E4"/>
<path d="M207.335 126.935C207.239 126.854 207.176 126.736 207.161 126.606C207.146 126.476 207.179 126.344 207.254 126.24L220.91 107.323C220.947 107.272 220.993 107.229 221.045 107.197C221.098 107.165 221.156 107.144 221.216 107.136C221.275 107.128 221.336 107.133 221.394 107.15C221.453 107.167 221.507 107.197 221.555 107.237C221.602 107.276 221.642 107.326 221.672 107.383C221.702 107.439 221.721 107.501 221.729 107.566C221.736 107.63 221.732 107.696 221.716 107.759C221.7 107.821 221.673 107.88 221.636 107.931L207.98 126.848C207.905 126.952 207.795 127.019 207.674 127.035C207.553 127.052 207.431 127.016 207.335 126.935Z" fill="#E4E4E4"/>
<path d="M210.589 129.661C210.493 129.58 210.43 129.462 210.415 129.331C210.4 129.201 210.434 129.07 210.508 128.966L224.164 110.049C224.201 109.998 224.247 109.955 224.3 109.923C224.352 109.891 224.41 109.87 224.47 109.862C224.53 109.854 224.591 109.858 224.649 109.876C224.707 109.893 224.762 109.922 224.809 109.962C224.857 110.002 224.897 110.052 224.927 110.108C224.956 110.165 224.976 110.227 224.983 110.291C224.991 110.356 224.986 110.421 224.97 110.484C224.954 110.547 224.927 110.605 224.89 110.657L211.234 129.574C211.159 129.677 211.049 129.745 210.928 129.761C210.807 129.777 210.685 129.741 210.589 129.661Z" fill="#E4E4E4"/>
<path d="M212.023 130.862C211.927 130.781 211.864 130.662 211.849 130.532C211.834 130.402 211.867 130.271 211.942 130.167L225.598 111.25C225.673 111.147 225.783 111.08 225.903 111.064C226.024 111.048 226.146 111.084 226.242 111.164C226.338 111.245 226.4 111.363 226.416 111.493C226.431 111.623 226.398 111.754 226.324 111.858L212.668 130.775C212.593 130.878 212.483 130.945 212.362 130.962C212.241 130.978 212.119 130.942 212.023 130.862Z" fill="#E4E4E4"/>
<path d="M189.199 152.83C189.304 152.83 189.388 152.739 189.388 152.627C189.388 152.515 189.304 152.424 189.199 152.424C189.095 152.424 189.011 152.515 189.011 152.627C189.011 152.739 189.095 152.83 189.199 152.83Z" fill="#2FF77A"/>
<path d="M216.696 12.7783C216.033 16.6194 214.944 20.361 213.454 23.9232C204.924 43.3617 229.218 37.0257 237.9 37.0257C247.392 37.0257 256.474 42.4022 255.087 18.5129C254.495 8.30843 247.392 0 237.9 0C229.792 0 218.392 3.88179 216.696 12.7783Z" fill="#2F2E41"/>
<path d="M246.748 297.87H238.66L234.812 264.27H246.748V297.87Z" fill="#FFB6B6"/>
<path d="M251.016 312.964H245.217L244.181 307.065L241.53 312.964H226.147C225.41 312.964 224.692 312.71 224.098 312.239C223.504 311.768 223.065 311.106 222.846 310.347C222.626 309.589 222.638 308.775 222.878 308.024C223.119 307.274 223.576 306.625 224.182 306.174L236.467 297.036V291.073L249.387 291.904L251.016 312.964Z" fill="#2F2E41"/>
<path d="M294.796 286.877L288.306 292.075L266.604 267.586L276.182 259.914L294.796 286.877Z" fill="#FFB6B6"/>
<path d="M306.583 296.245L301.929 299.973L297.831 295.905L298.97 302.342L286.627 312.229C286.035 312.703 285.318 312.961 284.581 312.965C283.843 312.969 283.124 312.719 282.528 312.252C281.932 311.784 281.49 311.124 281.267 310.367C281.044 309.61 281.052 308.796 281.289 308.044L286.084 292.815L282.78 288.031L293.609 280.393L306.583 296.245Z" fill="#2F2E41"/>
<path d="M220.26 143.231L258.651 136.79L251.017 112.051H220.26V143.231Z" fill="#FFB6B6"/>
<path d="M256.164 124.511C256.164 124.511 271.509 138.791 264.429 179.498L255.785 219.385L279.335 263.422L267.36 270.458L238.34 227.013L225.06 193.461L218.036 134.658L256.164 124.511Z" fill="#2F2E41"/>
<path d="M232.38 203.022L231.457 218.418L234.158 264.009L247.572 268.983L250.112 222.271L232.38 203.022Z" fill="#2F2E41"/>
<path d="M228.256 42.1494L243.096 42.773L249.01 53.3477L262.504 56.1851L254.449 100.08L255.93 125.065L242.494 124.976C232.81 124.913 223.446 128.702 216.197 135.617L216.599 103.186L210.82 78.9755L212.118 53.5897L222.974 52.1282L228.256 42.1494Z" fill="#01191F"/>
<path d="M236.477 37.0212C244.191 37.0212 250.444 30.2859 250.444 21.9774C250.444 13.6689 244.191 6.93359 236.477 6.93359C228.764 6.93359 222.511 13.6689 222.511 21.9774C222.511 30.2859 228.764 37.0212 236.477 37.0212Z" fill="#FFB6B6"/>
<path d="M226.993 6.64216C229.44 5.03508 232.243 4.16573 235.109 4.12503C237.976 4.08433 240.799 4.87378 243.285 6.41081C245.771 7.94784 247.828 10.176 249.241 12.8623C250.653 15.5487 251.37 18.5945 251.316 21.6813C244.199 23.6059 236.723 25.0788 229.133 22.1417L227.341 17.4168L226.284 22.1452C223.973 23.1627 221.655 24.0237 219.338 22.1353C219.244 19.0572 219.901 16.0062 221.244 13.2874C222.587 10.5686 224.569 8.27716 226.993 6.64216Z" fill="#2F2E41"/>
<path d="M259.921 155.395L261.804 173.799C261.935 174.259 262.199 174.66 262.558 174.946C262.917 175.231 263.351 175.385 263.797 175.385H272.476C272.922 175.385 273.356 175.231 273.715 174.946C274.074 174.66 274.338 174.259 274.47 173.799L276.029 159.693C276.479 159.931 276.975 160.05 277.476 160.041C277.978 160.032 278.47 159.895 278.912 159.641C279.355 159.388 279.735 159.024 280.022 158.581C280.308 158.138 280.493 157.628 280.561 157.093C280.629 156.558 280.579 156.014 280.413 155.504C280.248 154.994 279.972 154.534 279.61 154.162C279.247 153.789 278.807 153.514 278.327 153.36C277.846 153.206 277.339 153.177 276.846 153.276C276.651 153.028 276.409 152.829 276.135 152.693C275.862 152.557 275.564 152.487 275.263 152.488H261.915C261.588 152.488 261.266 152.57 260.975 152.729C260.684 152.887 260.431 153.117 260.237 153.4C260.043 153.683 259.913 154.01 259.859 154.357C259.804 154.704 259.825 155.059 259.921 155.395ZM276.302 158.74L277.257 155.395C277.367 155.009 277.378 154.598 277.288 154.206C277.329 154.204 277.368 154.193 277.409 154.193C278.009 154.193 278.584 154.45 279.008 154.906C279.432 155.363 279.67 155.983 279.67 156.629C279.67 157.275 279.432 157.894 279.008 158.351C278.584 158.808 278.009 159.065 277.409 159.065C277.02 159.062 276.638 158.95 276.302 158.74Z" fill="#6C63FF"/>
<path d="M273.008 175.398C272.46 174.805 272.04 174.09 271.776 173.303C271.513 172.516 271.413 171.676 271.483 170.843C271.554 170.01 271.793 169.204 272.184 168.481C272.575 167.758 273.109 167.137 273.747 166.66L265.288 121.409L274.629 124.639L281.399 168.408C282.072 169.616 282.309 171.048 282.067 172.432C281.825 173.816 281.12 175.056 280.086 175.918C279.052 176.779 277.76 177.202 276.455 177.106C275.151 177.011 273.924 176.403 273.008 175.398Z" fill="#FFB6B6"/>
<path d="M256.709 60.8972L262.504 56.1852C262.504 56.1852 267.617 55.7952 268.522 65.7258C269.428 75.6565 275.097 113.77 275.097 113.77L283.965 158.011L271.689 160.913L262.191 113.169L252.683 80.231L256.709 60.8972Z" fill="#01191F"/>
<path d="M206.691 102.09C208.503 102.09 209.971 100.508 209.971 98.5565C209.971 96.605 208.503 95.0229 206.691 95.0229C204.879 95.0229 203.41 96.605 203.41 98.5565C203.41 100.508 204.879 102.09 206.691 102.09Z" fill="#6C63FF"/>
<path d="M102.079 338.862L108.915 338.861L112.168 310.458L102.078 310.458L102.079 338.862Z" fill="#FFB6B6"/>
<path d="M100.335 336.458L102.259 336.457L109.772 333.167L113.799 336.457C116.074 336.457 118.257 337.431 119.866 339.164C121.476 340.897 122.38 343.248 122.38 345.699V345.999L100.335 346L100.335 336.458Z" fill="#2F2E41"/>
<path d="M128.572 334.221L135.242 335.843L144.223 308.909L134.38 306.515L128.572 334.221Z" fill="#FFB6B6"/>
<path d="M127.363 331.462L129.24 331.919L137.242 330.491L140.497 334.656L140.497 334.656C142.717 335.196 144.646 336.664 145.862 338.736C147.077 340.809 147.478 343.316 146.977 345.707L146.915 346L125.412 340.77L127.363 331.462Z" fill="#2F2E41"/>
<path d="M89.5626 192.757L95.7449 267.364C95.7449 267.364 93.4284 312.155 100.903 327.916H111.744L117.111 263.273L117.785 219.885L141.026 256.49L126.223 326.859L139.565 328.144L163.586 251.777L137.196 180.086L89.5626 192.757Z" fill="#2F2E41"/>
<path d="M96.0374 73.9457C104.843 73.9457 111.981 66.257 111.981 56.7724C111.981 47.2879 104.843 39.5991 96.0374 39.5991C87.2319 39.5991 80.0936 47.2879 80.0936 56.7724C80.0936 66.257 87.2319 73.9457 96.0374 73.9457Z" fill="#FFB8B8"/>
<path d="M124.065 90.3114L110.985 84.2663L104.618 76.9917L88.7109 79.7549L84.4904 87.5494L70.8282 101.233L86.8351 179.19L86.3506 196.216C86.3506 196.216 96.5954 201.184 141.026 189.746C141.559 189.609 140.443 189.009 140.443 189.009L124.065 90.3114Z" fill="#3F3D56"/>
<path d="M79.4583 66.517C79.3472 66.3537 79.2372 66.189 79.1282 66.0229C79.0844 66.1227 79.0496 66.2257 78.9995 66.3231L79.4583 66.517Z" fill="#2F2E41"/>
<path d="M111.897 44.2109C110.832 41.7102 108.931 39.7328 106.574 38.6719C104.238 37.6569 101.627 37.6594 99.2924 38.6787C97.1845 37.2443 94.8425 36.1072 92.3761 35.9663C89.9097 35.8255 87.3019 36.8111 85.782 38.9806C85.4426 39.5533 85.0571 40.0927 84.6299 40.5927C83.4081 41.8114 81.5514 41.6356 79.9274 41.3864C80.6558 42.0588 81.3844 42.7312 82.1131 43.4036C81.2314 43.6517 80.3496 43.8998 79.4678 44.1479C80.4968 44.8201 81.5257 45.4923 82.5545 46.1645C79.5674 48.0956 78.2098 52.3106 78.5684 56.1387C78.9077 59.763 80.5322 63.0772 82.4742 66.0229C83.2489 64.2621 83.0819 62.1551 83.0691 60.1719C83.0558 58.0765 83.4 55.697 84.9589 54.5259C86.0104 53.7359 87.3627 53.7007 88.6307 53.7081C95.0271 53.746 101.416 54.1756 107.767 54.995C108.629 55.0351 109.47 55.2976 110.218 55.7604C111.622 56.7924 111.896 58.9223 112.037 60.7908C112.779 57.7056 113.142 54.5289 113.117 51.3419C113.179 48.8991 112.764 46.4694 111.897 44.2109Z" fill="#2F2E41"/>
<path d="M116.861 245.057C130.721 245.057 141.956 232.955 141.956 218.027C141.956 203.099 130.721 190.998 116.861 190.998C103.002 190.998 91.7667 203.099 91.7667 218.027C91.7667 232.955 103.002 245.057 116.861 245.057Z" fill="#2FF77A"/>
<path d="M116.861 190.397C115.571 190.397 114.283 190.502 113.008 190.709C112.355 190.811 111.72 190.944 111.089 191.106C106.46 192.255 102.218 194.767 98.8368 198.362C95.4557 201.957 93.0683 206.493 91.9411 211.464C90.8139 216.435 90.9912 221.646 92.4532 226.515C93.9152 231.384 96.6045 235.72 100.221 239.038C100.65 239.429 101.085 239.807 101.537 240.168C104.792 242.782 108.578 244.527 112.582 245.257C116.586 245.988 120.693 245.684 124.567 244.371C128.441 243.058 131.969 240.773 134.863 237.703C137.756 234.634 139.931 230.869 141.21 226.717C142.488 222.565 142.833 218.146 142.215 213.823C141.598 209.499 140.037 205.396 137.659 201.85C135.282 198.303 132.157 195.416 128.541 193.425C124.925 191.434 120.922 190.396 116.861 190.397ZM116.861 244.456C111.644 244.462 106.562 242.667 102.362 239.333C101.905 238.972 101.464 238.6 101.035 238.203C97.5116 235.002 94.8973 230.796 93.4919 226.067C92.0865 221.339 91.9469 216.279 93.0891 211.469C94.2313 206.659 96.6091 202.293 99.9498 198.872C103.29 195.451 107.459 193.113 111.976 192.127C112.601 191.989 113.225 191.881 113.861 191.797C114.856 191.664 115.858 191.598 116.861 191.598C123.369 191.598 129.61 194.383 134.211 199.339C138.813 204.296 141.398 211.018 141.398 218.027C141.398 225.037 138.813 231.759 134.211 236.715C129.61 241.672 123.369 244.456 116.861 244.456Z" fill="#3F3D56"/>
<path d="M104.553 212.621H129.17C130.072 212.621 130.803 211.834 130.803 210.862V210.776C130.803 209.805 130.072 209.017 129.17 209.017H104.553C103.651 209.017 102.92 209.805 102.92 210.776V210.862C102.92 211.834 103.651 212.621 104.553 212.621Z" fill="#6C63FF"/>
<path d="M104.553 219.829H129.17C130.072 219.829 130.803 219.042 130.803 218.07V217.984C130.803 217.013 130.072 216.225 129.17 216.225H104.553C103.651 216.225 102.92 217.013 102.92 217.984V218.07C102.92 219.042 103.651 219.829 104.553 219.829Z" fill="#6C63FF"/>
<path d="M104.553 227.037H129.17C130.072 227.037 130.803 226.25 130.803 225.278V225.192C130.803 224.221 130.072 223.433 129.17 223.433H104.553C103.651 223.433 102.92 224.221 102.92 225.192V225.278C102.92 226.25 103.651 227.037 104.553 227.037Z" fill="#6C63FF"/>
<path d="M397.614 337.945L390.445 337.944L387.034 308.161L397.615 308.162L397.614 337.945Z" fill="#9E616A"/>
<path d="M363.699 337.945L356.53 337.944L353.12 308.161L363.7 308.162L363.699 337.945Z" fill="#9E616A"/>
<path d="M363.951 346L341.907 345.999V345.699C341.907 343.248 342.811 340.897 344.42 339.164C346.029 337.431 348.211 336.457 350.487 336.457H350.488L354.514 333.167L362.027 336.457L363.952 336.458L363.951 346Z" fill="#2F2E41"/>
<path d="M398.786 346L376.741 345.999V345.699C376.741 343.248 377.645 340.897 379.255 339.164C380.864 337.431 383.046 336.457 385.322 336.457H385.322L389.349 333.167L396.862 336.457L398.786 336.458L398.786 346Z" fill="#2F2E41"/>
<path d="M356.667 161.678L345.772 233.134L348.737 243.782L344.846 251.324L350.56 317.554L348.241 323.053L354.721 327.358H367.907L368.606 267.4L371.864 258.596V253.745L378.494 217.183L379.715 268.385L381.644 277.202L380.024 283.48L382.141 287.878L387.764 328.665H402.549L401.406 319.176C402.694 318.473 403.729 317.33 404.347 315.925C404.966 314.52 405.134 312.934 404.824 311.415L403.977 307.256L405.906 294.958L409.42 226.352L408.429 170.995L391.132 156.749L356.667 161.678Z" fill="#2F2E41"/>
<path d="M381.644 69.9201C389.231 69.9201 395.381 63.2955 395.381 55.1236C395.381 46.9518 389.231 40.3271 381.644 40.3271C374.057 40.3271 367.907 46.9518 367.907 55.1236C367.907 63.2955 374.057 69.9201 381.644 69.9201Z" fill="#9E616A"/>
<path d="M351.63 190.034C352.227 189.369 352.683 188.57 352.963 187.695C353.243 186.82 353.342 185.889 353.252 184.968C353.163 184.047 352.886 183.159 352.443 182.365C352 181.572 351.401 180.893 350.688 180.376L356.03 158.617L345.738 162.345L342.243 182.436C341.516 183.784 341.273 185.373 341.561 186.9C341.849 188.428 342.646 189.789 343.803 190.726C344.96 191.662 346.396 192.109 347.839 191.982C349.281 191.854 350.63 191.161 351.63 190.034Z" fill="#9E616A"/>
<path d="M357.251 85.5656L355.042 85.0718L353.158 86.1954C353.158 86.1954 347.896 93.7533 347.896 100.681C347.896 107.61 341.464 174.371 341.464 174.371L353.158 180.04L362.514 127.764L357.251 85.5656Z" fill="#01191F"/>
<path d="M393.674 44.275C393.674 44.275 397.267 36.8768 389.362 36.2042C389.362 36.2042 382.624 29.6199 375.755 35.0005C375.755 35.0005 372.008 35.0005 369.96 39.567C369.96 39.567 367.013 38.3633 366.366 41.5847C366.366 41.5847 364.209 48.3104 366.366 54.3635C368.522 60.4167 369.238 61.0892 369.238 61.0892C369.238 61.0892 365.695 48.3985 374.319 47.726C382.943 47.0534 392.593 41.2485 393.312 48.6467C394.03 56.045 395.112 57.8678 395.112 57.8678C395.112 57.8678 401.938 47.3016 393.674 44.275Z" fill="#2F2E41"/>
<path d="M443.855 251.323C442.818 251.325 441.817 250.914 441.045 250.169L399.472 210.308C398.634 209.503 398.127 208.373 398.062 207.166C397.997 205.958 398.379 204.773 399.124 203.868L425.756 171.643C426.504 170.74 427.553 170.194 428.674 170.124C429.795 170.054 430.896 170.465 431.735 171.268L473.309 211.13C474.148 211.934 474.656 213.064 474.721 214.272C474.786 215.479 474.403 216.665 473.656 217.569L447.024 249.794C446.655 250.243 446.207 250.609 445.707 250.87C445.206 251.131 444.662 251.282 444.106 251.315C444.022 251.321 443.939 251.323 443.855 251.323Z" fill="#2FF77A"/>
<path d="M443.855 251.617C442.751 251.618 441.686 251.181 440.864 250.388L399.291 210.528C398.399 209.671 397.859 208.468 397.79 207.183C397.721 205.898 398.128 204.636 398.921 203.673L425.553 171.448C426.349 170.488 427.465 169.907 428.658 169.832C429.851 169.757 431.023 170.195 431.916 171.049L473.49 210.911C474.382 211.767 474.923 212.97 474.992 214.255C475.062 215.54 474.654 216.802 473.86 217.764L447.227 249.99C446.835 250.467 446.358 250.856 445.825 251.134C445.292 251.412 444.713 251.573 444.122 251.609C444.033 251.614 443.944 251.617 443.855 251.617ZM428.921 170.995C428.439 170.994 427.962 171.104 427.521 171.316C427.081 171.528 426.687 171.839 426.366 172.228L399.734 204.453C399.132 205.183 398.824 206.14 398.876 207.115C398.929 208.089 399.338 209.002 400.015 209.652L441.588 249.512C441.923 249.834 442.314 250.081 442.738 250.24C443.162 250.399 443.611 250.466 444.059 250.438C444.507 250.41 444.946 250.287 445.35 250.076C445.754 249.865 446.116 249.571 446.414 249.21L473.046 216.984C473.649 216.255 473.958 215.298 473.906 214.323C473.853 213.348 473.443 212.436 472.766 211.787L431.192 171.925C430.567 171.325 429.759 170.994 428.921 170.995Z" fill="#3F3D56"/>
<path d="M458.93 220.804C458.481 220.805 458.048 220.627 457.713 220.306L425.08 189.016C424.899 188.844 424.752 188.635 424.646 188.402C424.54 188.168 424.479 187.915 424.464 187.655C424.45 187.396 424.483 187.136 424.562 186.891C424.641 186.646 424.764 186.419 424.925 186.225C425.085 186.031 425.279 185.873 425.497 185.76C425.714 185.647 425.949 185.582 426.19 185.567C426.431 185.552 426.672 185.589 426.9 185.675C427.127 185.761 427.337 185.894 427.516 186.068L460.15 217.357C460.428 217.623 460.624 217.974 460.712 218.363C460.8 218.751 460.776 219.16 460.644 219.534C460.512 219.908 460.277 220.23 459.971 220.456C459.665 220.683 459.302 220.805 458.93 220.804Z" fill="#6C63FF"/>
<path d="M452.706 228.336C452.257 228.336 451.823 228.159 451.488 227.837L418.855 196.548C418.675 196.375 418.529 196.166 418.424 195.933C418.319 195.7 418.258 195.447 418.244 195.188C418.23 194.929 418.264 194.67 418.343 194.425C418.422 194.18 418.545 193.955 418.705 193.761C418.865 193.568 419.059 193.41 419.275 193.297C419.492 193.184 419.727 193.118 419.967 193.103C420.208 193.088 420.448 193.125 420.675 193.21C420.903 193.295 421.112 193.427 421.292 193.6L453.926 224.889C454.203 225.155 454.399 225.506 454.487 225.894C454.576 226.283 454.552 226.692 454.42 227.066C454.287 227.439 454.053 227.761 453.746 227.988C453.44 228.215 453.077 228.336 452.706 228.336Z" fill="#6C63FF"/>
<path d="M446.481 235.868C446.032 235.869 445.599 235.691 445.264 235.369L412.63 204.08C412.45 203.908 412.303 203.699 412.198 203.466C412.093 203.233 412.032 202.979 412.018 202.72C412.004 202.461 412.037 202.202 412.116 201.957C412.195 201.712 412.318 201.486 412.478 201.292C412.639 201.098 412.833 200.941 413.049 200.828C413.266 200.715 413.501 200.649 413.742 200.634C413.982 200.619 414.223 200.656 414.45 200.741C414.678 200.826 414.887 200.959 415.067 201.132L447.7 232.421C447.978 232.687 448.174 233.038 448.262 233.427C448.351 233.815 448.327 234.224 448.195 234.598C448.063 234.972 447.828 235.294 447.522 235.521C447.216 235.747 446.853 235.869 446.481 235.868Z" fill="#6C63FF"/>
<path d="M409.162 191.318C408.743 190.509 408.494 189.612 408.433 188.688C408.371 187.765 408.498 186.838 408.804 185.973C409.111 185.108 409.59 184.326 410.208 183.682C410.825 183.038 411.567 182.548 412.379 182.246L412.414 159.739L421.469 166.194L420.047 186.577C420.428 188.081 420.283 189.683 419.64 191.08C418.998 192.477 417.901 193.571 416.56 194.155C415.218 194.74 413.724 194.773 412.36 194.251C410.997 193.728 409.859 192.684 409.162 191.318Z" fill="#9E616A"/>
<path d="M409.999 91.7329L414.044 87.5332L417.016 89.8434C417.016 89.8434 419.94 93.6224 422.279 104.959C424.618 116.296 422.279 178.649 422.279 178.649L409.414 176.76L411.169 144.009L405.906 116.296L409.999 91.7329Z" fill="#01191F"/>
<path d="M415.972 88.5577L402.344 81.5457L393.091 72.3015L376.218 72.1655L370.775 79.7869L356.406 85.0444L358.801 138.413L357.168 142.517C357.168 142.517 358.305 143.624 358.825 144.243C359.345 144.862 358.107 150.045 358.107 150.045L357.409 155.683L359.345 157.173L356.828 160.375L356.203 165.423C356.203 165.423 400.136 153.662 408.437 173.145C408.875 174.175 407.795 164.114 407.795 164.114L406.715 156.749L407.787 150.138L409.42 148.379L406.681 145.43L408.437 131.433L415.972 88.5577Z" fill="#3F3D56"/>
<path d="M106.904 206.871C107.242 205.946 107.388 204.953 107.331 203.96C107.274 202.968 107.016 202.001 106.574 201.128C106.133 200.255 105.52 199.496 104.777 198.906C104.034 198.316 103.18 197.909 102.275 197.713L99.2477 173.768L90.4698 182.032L94.6904 203.504C94.4852 205.163 94.8521 206.846 95.7217 208.233C96.5913 209.62 97.9031 210.615 99.4085 211.031C100.914 211.446 102.508 211.251 103.89 210.485C105.271 209.718 106.344 208.432 106.904 206.871Z" fill="#FFB8B8"/>
<path d="M72.5126 100.795L70.1334 101.286L68.6952 103.236C68.6952 103.236 66.3686 113.066 69.019 119.935C71.6694 126.804 90.832 195.854 90.832 195.854L104.596 196.284L93.8739 140.299L72.5126 100.795Z" fill="#3F3D56"/>
<path d="M126.774 203.359C126.14 202.637 125.661 201.773 125.37 200.83C125.079 199.886 124.984 198.885 125.091 197.898C125.198 196.91 125.505 195.96 125.99 195.114C126.475 194.269 127.127 193.548 127.898 193.002L122.418 169.568L133.424 173.711L136.941 195.33C137.705 196.787 137.947 198.495 137.621 200.132C137.294 201.768 136.422 203.219 135.168 204.208C133.915 205.198 132.368 205.658 130.821 205.502C129.274 205.345 127.834 204.583 126.774 203.359Z" fill="#FFB8B8"/>
<path d="M121.965 91.1202L124.343 90.6201L126.352 91.8522C126.352 91.8522 131.914 100.038 131.832 107.477C131.751 114.915 137.873 186.681 137.873 186.681L125.25 192.608L115.819 136.355L121.965 91.1202Z" fill="#3F3D56"/>
</g>
<defs>
<clipPath id="clip0_44_5">
<rect width="475" height="346" fill="white"/>
</clipPath>
</defs>
</svg>
