<svg width="784" height="811" viewBox="0 0 784 811" fill="none" xmlns="http://www.w3.org/2000/svg">
<path d="M542.984 101.23H559.76L568.148 101.809L578.773 104.123L588.839 105.858L605.056 111.064L611.766 113.957L623.509 119.741L629.66 123.212L639.167 129.575L646.436 134.781V135.938L648.673 137.095L655.943 144.036L666.009 154.449L670.482 160.812L677.752 172.959L682.225 182.215L686.699 193.206L690.054 207.667L691.732 216.922L692.291 226.756V241.218L691.732 254.522L688.936 271.876L685.021 289.23L681.666 300.799L674.956 318.153L672.719 325.673L666.568 340.134L664.331 345.919L659.857 355.174L649.233 377.734L646.436 382.94L639.167 396.823L633.575 406.079L627.983 416.491L624.628 421.697L622.95 425.746H621.832L621.272 427.482L619.595 428.638L619.036 432.109V457.561L617.917 461.611L615.121 465.081L611.766 466.817L593.312 467.395L588.28 473.18L584.365 478.386L579.332 484.749L574.859 489.955L571.504 494.004H570.385V495.161H569.267L568.148 497.475L558.642 507.309H557.524V508.466H556.405L555.846 510.201L550.254 514.829L545.78 518.878L536.833 525.82L530.682 531.026L521.735 537.967L517.82 540.281L516.702 544.909V587.715L515.583 606.804L513.906 625.315L511.669 639.198L507.755 661.179L506.636 668.699L509.432 669.856L509.991 670.434L519.498 671.013L527.327 672.17L539.07 672.748L554.728 675.062L569.267 676.219L588.839 678.533L617.358 683.739L627.424 687.21L633.016 689.524L634.693 691.259L634.134 695.308L629.66 698.2L626.305 699.936L606.174 704.564L578.773 708.613L565.352 710.348L539.629 712.662L508.873 714.397L492.656 714.976L488.742 715.554L460.782 716.711L419.401 717.29H365.718L322.1 716.711L294.699 715.554L289.107 714.976L263.384 713.819L229.272 711.505L218.648 710.348L207.464 708.613L187.332 706.299L168.879 702.828L157.695 699.357L152.103 697.044L150.425 695.308V691.837L153.221 688.945L159.932 686.053L175.589 682.004L195.161 678.533L209.7 676.797L237.101 673.905L239.338 673.327L238.779 670.434L235.424 661.179L234.864 658.865V651.345L237.101 642.668L240.456 632.835L245.489 621.265L253.318 608.539L257.792 602.755L263.943 594.656L271.213 585.401L274.009 581.352L273.449 579.038L267.857 576.724L256.673 574.41L248.285 571.518L238.779 568.626L225.917 563.419L223.121 561.106L218.088 561.684L209.141 563.419H198.516L197.398 561.106L201.872 556.478L201.312 553.007L194.043 548.38L182.859 541.438L173.912 535.653L163.846 528.133L156.576 521.77L150.425 516.564L138.682 504.417L134.208 498.632L126.379 488.22L120.787 480.7L116.873 474.337L109.603 460.454L102.334 443.678L98.9786 431.531L95.6234 417.648L93.3866 403.765L92.2682 383.519V367.322L93.9458 347.654L95.6234 338.399L97.8602 329.722L100.656 319.888L106.248 302.534L112.399 287.494L114.077 284.602L115.755 279.974L119.669 272.454L125.82 262.042L131.971 252.787L139.241 242.375L144.833 236.011L148.188 231.384L154.34 223.864L156.576 222.707L157.695 220.393L162.728 215.765L164.964 214.03L165.524 211.716L166.083 168.332L168.32 164.283L171.675 161.969L173.912 161.39L329.929 160.812L338.876 159.655L350.06 157.341L362.362 154.449L371.869 152.713L378.579 150.978L388.645 148.086L393.678 146.35L402.625 144.036L412.131 140.566L426.111 134.781L434.499 131.889L449.039 126.104L461.9 120.898L481.472 113.378L498.807 108.172L507.755 105.858L531.241 101.809L542.984 101.23ZM615.121 437.894L610.648 443.678V444.835H609.529V445.992H608.411L606.174 452.934L602.26 456.404L598.904 458.718L597.227 461.611L596.668 464.503L603.937 465.081H608.411L614.003 463.924L616.24 461.032L616.799 455.826V444.257L616.24 438.472L615.121 437.894ZM532.919 456.983L532.359 458.14L537.951 459.297L545.78 459.875H582.128L586.043 459.297V458.14L579.332 456.983H532.919Z" fill="#1B2E35"/>
<path d="M438.414 229.648L439.532 230.805L442.887 241.796L444.006 247.002V252.787L439.532 263.199L431.144 268.405L419.96 274.768L412.131 280.553L407.098 285.759L402.625 293.857L400.388 301.377L399.829 311.211L400.947 321.045L403.184 329.722L406.539 339.556L411.572 351.703L416.046 361.537L422.197 372.528L424.993 375.42H428.907L435.058 371.949L441.21 367.322H442.328L440.65 380.626L439.532 386.411L442.887 387.568L442.328 395.666L435.058 452.355L433.381 464.503L432.822 465.081H379.138L378.02 461.032L375.224 450.041L370.75 440.208L365.718 433.266L359.566 426.325L352.297 419.962L340.553 412.442L329.929 406.657L326.014 403.765V386.411L326.573 382.362L328.81 379.469L329.929 376.577L330.488 365.586L331.047 362.694V355.753L329.369 348.811L326.014 341.87L321.541 336.663L317.067 334.35L314.83 333.771H308.679L300.85 336.085L290.785 341.87L285.752 345.34L282.397 346.497L272.89 347.654L268.417 349.968L266.739 352.86V359.802L268.417 362.694L275.686 360.959L282.397 356.91L289.666 351.703L298.613 347.076L305.324 345.34H309.797L315.389 347.076L319.863 350.546L323.218 355.174L323.777 357.488L321.541 356.91L318.185 351.703L313.712 348.811L309.238 347.654H305.324L296.377 350.546L290.225 354.017L280.719 360.959L274.568 363.851L271.772 364.429L272.331 365.008L276.245 365.586L277.923 369.636L281.837 384.097L286.311 396.245L290.225 403.765L294.14 408.971V414.755L287.989 419.383L285.752 421.697H284.633L283.515 424.011L279.041 430.374L277.364 433.845L277.923 448.885L278.482 465.081H238.22V463.346L240.456 460.454L241.575 454.669L239.897 447.728L235.424 441.365L229.272 436.737L224.799 435.002L218.088 434.423L211.378 436.737L210.26 439.051L207.464 442.521L206.345 446.571L206.904 454.669H178.385V232.541L180.622 230.227L438.414 229.648Z" fill="#2FF77A"/>
<path d="M379.138 466.817H432.822L431.703 477.808L427.789 505.574L421.078 543.174L412.131 590.029L408.217 613.746L399.829 669.856L398.71 673.905L394.237 680.268L389.763 689.524L387.526 695.887L386.967 698.201V703.407L388.086 705.721L389.204 706.299H393.118L396.474 704.564L399.27 701.671L402.625 695.887L405.98 687.21L410.454 672.17L419.401 643.825L476.439 466.817H478.117L479.235 472.601L483.709 512.515L486.505 543.174L487.064 550.693L487.623 572.675L488.742 592.343L492.097 631.099L496.011 668.121L496.571 688.945L516.702 689.524H526.767L536.833 687.788L544.662 685.475L543.543 680.847L541.307 679.69L536.274 677.955L524.531 677.376L518.379 675.641L510.551 671.591V671.013H519.498L527.327 672.17L539.07 672.748L554.727 675.062L569.267 676.219L588.839 678.533L617.358 683.739L627.424 687.21L633.016 689.524L634.693 691.259L634.134 695.308L629.66 698.201L626.305 699.936L606.174 704.564L578.773 708.613L565.352 710.348L539.629 712.662L508.873 714.397L492.656 714.976L488.742 715.554L460.782 716.711L419.401 717.29H365.717L322.1 716.711L294.699 715.554L289.107 714.976L263.384 713.819L229.272 711.505L218.648 710.348L207.464 708.613L187.332 706.299L168.879 702.828L157.695 699.358L152.103 697.044L150.425 695.308V691.838L153.221 688.945L159.931 686.053L175.589 682.004L195.161 678.533L209.7 676.798L237.101 673.905L239.338 673.327L240.456 672.17L244.371 677.955L249.404 682.582L252.759 684.318L260.028 683.161L269.535 679.69L283.515 672.17L296.936 663.493L305.883 657.13L315.949 649.61L330.488 638.041L332.165 637.462L332.725 644.404L333.284 658.865V673.905L324.337 682.582L315.389 691.838L309.797 699.936L309.238 701.093V704.564L311.475 706.878L316.508 708.613H327.133L335.521 706.878L339.994 704.564L345.586 699.358L350.06 694.151L353.974 687.788L356.77 682.582V664.072L359.007 654.238L370.75 613.167L376.902 590.029L379.698 577.303V569.204L378.02 559.949L377.461 553.007H376.342L371.309 540.281L367.395 532.183L366.836 529.869L369.073 530.447L374.665 541.438L376.342 544.909L376.902 547.801H377.461L380.816 525.82V489.377L379.138 466.817Z" fill="#E7FDAE"/>
<path d="M542.984 101.23H559.76L568.148 101.809L578.773 104.123L588.839 105.858L605.056 111.064L611.766 113.957L623.509 119.741L629.66 123.212L639.167 129.575L646.436 134.781V135.938L648.673 137.095L655.943 144.036L666.008 154.449L670.482 160.812L677.752 172.959L682.225 182.215L686.699 193.206L690.054 207.667L691.732 216.922L692.291 226.756V241.218L691.732 254.522L688.936 271.876L685.021 289.23L681.666 300.799L674.956 318.153L672.719 325.673L666.568 340.134L664.331 345.919L659.857 355.174L649.232 377.734L646.436 382.94L639.167 396.823L633.575 406.079L627.983 416.491L624.628 421.697L622.95 425.746H621.832L621.272 427.482L619.595 428.638L619.036 432.109H618.476L617.917 166.596L616.24 163.704L614.003 162.547L494.334 161.969L492.097 159.655H485.946L479.795 158.498L472.525 157.919L466.374 153.87L460.222 151.556L457.426 150.978H447.361L441.21 152.713L435.618 155.027L430.026 159.076L426.67 161.969H173.911V161.39L329.929 160.812L338.876 159.655L350.06 157.341L362.362 154.449L371.869 152.713L378.579 150.978L388.645 148.086L393.678 146.35L402.625 144.036L412.131 140.566L426.111 134.781L434.499 131.889L449.038 126.104L461.9 120.898L481.472 113.378L498.807 108.172L507.755 105.858L531.241 101.809L542.984 101.23Z" fill="#F0FDC9"/>
<path d="M165.524 211.716H166.083L166.642 459.297L168.879 463.925L171.675 465.66L174.471 466.238L219.207 466.817L224.24 468.552H231.509L234.305 467.974L240.456 474.915L244.371 479.543L243.812 485.906L244.371 488.22L243.252 491.112V496.897L245.489 499.789V502.103L260.029 502.681L270.094 501.524L272.331 500.946L272.89 502.681L278.482 503.26L280.719 503.838V509.044L275.127 513.094L263.943 520.035L251.081 528.134L239.338 535.654L237.66 537.389L227.036 536.81L223.121 538.546L208.582 544.909L205.786 546.644V548.38L212.496 549.537L209.7 551.85L203.549 556.478H202.431L200.753 552.429L186.214 543.752L180.063 539.703L171.675 533.918L163.846 528.134L156.576 521.771L150.425 516.564L138.682 504.417L134.208 498.632L126.379 488.22L120.787 480.7L116.873 474.337L109.603 460.454L102.334 443.679L98.9786 431.531L95.6234 417.648L93.3866 403.765L92.2682 383.519V367.322L93.9458 347.654L95.6234 338.399L97.8602 329.722L100.656 319.888L106.248 302.534L112.399 287.494L114.077 284.602L115.755 279.975L119.669 272.455L125.82 262.042L131.971 252.787L139.241 242.375L144.833 236.012L148.188 231.384L154.34 223.864L156.576 222.707L157.695 220.393L162.728 215.766L164.964 214.03L165.524 211.716Z" fill="#F0FDC9"/>
<path d="M173.912 163.125H423.874L424.993 163.704L423.874 166.596L421.078 175.273L419.401 174.695H181.181L178.385 176.43L177.267 178.744V185.107L179.504 187.999L180.622 188.578L202.431 189.156H421.078L421.638 189.735V194.362L419.401 202.461H423.315L428.348 201.882L430.026 205.353V206.51L424.993 207.667L424.434 208.824V213.451L426.67 218.079L430.026 220.971L433.94 221.55H436.177L438.414 227.913V230.227L180.622 230.805L178.944 232.541L178.385 454.669H207.464L211.378 461.032L215.292 464.503V465.081H173.912L169.438 462.767L167.76 459.297V168.91L169.438 166.018L172.234 163.704L173.912 163.125Z" fill="#EFFDC9"/>
<path d="M347.264 521.771H356.211L361.803 524.663L366.277 529.29L370.75 537.389L376.342 551.85V553.007H377.461L378.579 557.635L379.138 562.841L380.257 569.204V577.303L376.902 591.764L371.31 613.167L363.481 640.933L359.566 654.238L357.33 664.072V682.582L352.297 691.838L347.264 698.201L341.672 703.985L337.198 706.878L331.047 708.613L327.133 709.191H316.508L311.475 707.456L308.679 704.564V701.093L312.593 694.73L319.304 687.21L329.37 676.798L332.725 673.905V658.865L332.166 644.404L331.606 638.041L325.455 642.669L315.389 650.767L305.883 657.708L292.462 666.964L281.278 673.905L269.535 680.268L260.029 683.739L252.759 684.896L247.167 681.425L242.693 676.798L238.22 669.278L235.424 661.179L234.865 658.865V651.345L237.101 642.669L240.457 632.835L245.489 621.266L253.318 608.539L257.792 602.755L263.943 594.656L271.213 585.401L275.127 580.195L280.719 572.675L287.429 563.998L293.021 556.478L295.817 552.429L312.034 556.478L328.81 558.792L329.37 585.979L327.692 583.666L324.337 576.724L320.422 570.94L319.304 570.361L321.541 574.989L324.896 580.773L328.251 588.293L328.81 591.764L322.1 598.127L315.949 603.333L309.238 609.696L304.765 613.746L299.173 618.952L293.021 624.158L285.193 631.678L279.041 636.884L275.686 640.933L277.923 639.776L284.074 634.57L287.989 630.521L294.14 625.315L301.409 618.373L305.883 614.324L313.712 607.382L320.422 601.019L324.896 596.97L328.81 593.499H329.929L331.606 617.216L332.166 621.266L333.284 621.844L331.606 601.019L330.488 578.46V547.801L331.606 536.232L333.284 531.026L337.198 526.977L343.909 522.927L347.264 521.771Z" fill="#1B2E35"/>
<path d="M333.284 410.127L338.876 412.441L348.941 418.804L356.211 424.589L363.481 432.109L367.395 436.737L371.869 444.257L374.665 451.198L376.902 460.453L378.579 471.444L379.698 485.327L380.257 502.102V521.192L378.579 534.496L376.902 544.908L375.224 544.33L369.073 531.025L366.277 530.447L362.362 525.819L357.889 522.927L356.211 522.349H347.264L340.553 525.241L335.521 529.29L333.284 532.182L331.606 540.281L331.047 547.801V578.459L332.725 608.539L333.284 616.059V621.844L331.606 621.265L330.488 609.696L329.929 601.019V593.499L323.777 598.705L317.067 605.068L312.593 609.117L304.765 616.059L298.054 622.422L291.903 627.628L283.515 635.727L277.364 640.933H275.127L278.482 636.884L284.074 631.677L290.225 626.471L298.054 618.951L304.205 613.745L308.12 609.696L314.271 604.49L320.981 598.127L325.455 594.078L328.251 591.764L327.133 586.558L321.541 575.567L319.304 572.096V570.361L321.541 571.518L326.014 579.038L328.81 584.822V558.792L319.304 558.213L307.001 555.899L296.377 553.007L290.225 560.527L285.193 567.468L278.482 576.145L275.127 580.773L273.449 579.038L267.857 576.724L256.673 574.41L248.285 571.518L238.779 568.625L225.917 563.419L223.121 561.105L220.325 560.527L223.121 558.213L238.22 550.115L242.693 548.379L245.489 548.958L284.074 535.653L299.732 530.447H301.409L300.85 534.496L294.699 550.693L295.258 551.85L302.528 533.339L304.765 532.761H314.271L322.659 533.918L325.455 534.496L324.896 533.339L317.626 532.182L303.087 531.604L300.291 517.721L298.613 507.309L300.85 506.73L331.606 511.358L350.619 513.672H361.803L365.158 504.995L370.191 484.17L374.665 462.189H373.546L372.428 469.709L366.277 497.475L362.921 509.622L360.685 513.093H352.856L329.369 510.201L298.054 505.573L274.568 501.524L274.009 498.632L275.686 492.847L277.364 491.112L287.989 489.955L312.593 488.219L322.659 487.063L335.521 486.484L345.586 487.641L352.297 489.376L356.77 491.112V489.955L351.737 488.219L344.468 486.484L339.435 485.906V476.072L342.231 456.983L345.027 445.992L346.705 441.364L345.586 441.943L342.79 450.62L339.994 465.081L337.757 485.327L319.863 486.484L310.357 487.641L301.969 488.219H294.699L292.462 477.807L288.548 455.826V453.512H287.429L293.021 485.906L292.462 488.798L281.278 489.376L278.482 441.943V433.844L281.837 427.481L288.548 419.961L293.581 416.49L294.699 417.069L297.495 422.275L301.409 426.903L307.561 431.53L308.679 430.374L311.475 423.432L313.153 425.167L314.83 428.638V429.795L319.863 426.903L326.573 420.54L331.606 413.02L333.284 410.127Z" fill="#2FF77A"/>
<path d="M601.7 229.648L604.496 230.805L606.733 233.698V450.041L605.056 453.512L602.819 454.669H518.939L518.379 454.091L514.465 407.235L513.347 393.931V384.676L513.906 384.097V318.731L515.024 318.153L530.682 326.83L545.221 334.35L555.846 338.977L566.471 343.026L571.504 344.183L575.977 343.605L578.773 338.977L582.128 330.879L586.602 316.996L594.431 288.651L598.904 270.719V267.248L598.345 266.091L600.582 260.307L601.141 254.522L600.023 249.316L598.904 246.424V241.796L597.786 238.325L596.668 237.747L600.582 231.962L601.7 229.648Z" fill="#2FF77A"/>
<path d="M498.248 163.125L614.003 163.704L616.799 167.175V444.257H616.24L615.681 438.472L613.444 440.786L610.648 444.835H609.529V445.992H608.411L607.293 451.777L603.378 456.404L598.904 459.297L596.668 464.503H600.023V465.081H519.498L518.939 464.503V454.669L602.819 454.091L605.056 452.934L606.174 450.041V233.698L603.937 230.805L602.26 230.227L603.378 227.334L610.089 215.765L611.207 213.451L605.056 210.559L576.536 198.99L558.083 191.47H556.405L549.136 202.461L544.662 208.824L539.629 210.559L532.36 213.451L524.531 218.079L519.498 222.707H518.38L517.261 225.021L512.788 230.227H475.88L476.999 223.285L477.558 208.824V207.667L475.321 190.313V186.842L483.709 183.95L488.183 180.479L492.656 175.273L495.452 170.067V163.704L498.248 163.125ZM532.919 456.983L532.36 458.14L537.952 459.297L545.78 459.875H582.128L586.043 459.297V458.14L579.332 456.983H532.919Z" fill="#EFFDC9"/>
<path d="M476.439 466.817H478.117L479.235 472.601L483.709 512.515L486.505 543.174L487.064 550.693L487.623 572.675L488.742 592.343L492.097 631.099L496.011 668.121V673.327H495.452V670.435H483.15L465.815 669.856L432.822 669.278H411.572L413.25 662.915L476.439 466.817Z" fill="#FCFDFC"/>
<path d="M379.138 466.817H432.822L431.703 477.808L427.789 505.574L421.079 543.174L412.131 590.029L408.217 613.746L399.829 669.856L399.27 668.699H357.33L356.77 668.121L357.33 660.601L362.362 642.09L366.836 627.05L375.224 596.392L379.138 580.195L379.698 577.303V569.204L378.02 559.949L377.461 553.007H376.342L371.31 540.281L367.395 532.183L366.836 529.869L369.073 530.447L374.665 541.438L376.342 544.909L376.902 547.801H377.461L380.816 525.82V489.377L379.138 466.817Z" fill="#F0FDC9"/>
<path d="M477.558 253.944L485.387 254.522L504.399 256.836L505.518 257.415L508.314 264.356L510.551 267.827L513.347 270.719L512.788 273.033L494.334 292.122L490.419 293.858L480.354 304.27L479.795 308.319V311.79L476.999 314.682L443.447 337.82H441.769L433.94 322.202L431.703 318.153L433.381 299.642L433.94 296.75H432.822L431.144 313.525L430.026 312.947L426.111 297.907L426.671 302.534L433.94 332.614L436.177 340.713V343.027L426.111 349.968H424.993V351.703L431.144 347.654L445.124 337.82L478.676 314.682L481.472 317.574L485.946 325.094L482.591 329.144L476.999 334.35L475.321 334.928V336.085L470.847 340.134L465.255 345.34L460.782 349.39L452.953 356.331L446.802 361.537L438.414 368.479L430.585 373.685L427.789 374.842L425.552 374.263L421.638 369.636L414.927 356.91L407.658 340.134L403.743 328.565L401.506 319.31L400.947 314.682V304.848L402.625 296.171L405.98 289.23L411.013 282.867L418.283 277.082L425.552 272.455L432.263 268.984L439.532 264.356L441.769 265.513L454.631 272.455L460.223 274.768V263.199L463.019 266.091L466.933 272.455H468.611L469.729 270.141L473.084 264.935L476.439 256.258L477.558 253.944Z" fill="#2FF77A"/>
<path d="M586.602 263.199L589.398 263.778L597.786 267.827L598.345 269.562L590.516 300.221L584.365 321.624L579.332 336.085L576.536 341.291L574.859 343.027H569.826L558.083 338.977L541.866 331.457L522.853 321.624L513.906 316.417V296.171H512.787V384.097L507.195 388.146L499.367 391.039L492.656 392.774L488.183 393.353H470.288L463.019 392.196L451.275 389.303L441.769 385.833L441.21 382.94L444.006 365.008L450.157 359.802L457.427 353.439L465.815 345.919L473.084 338.977L477.558 334.928L484.268 328.565L486.505 326.251H487.623L488.183 323.937L497.689 316.996L502.163 312.947L503.84 308.319L506.077 301.378L507.755 294.436L514.465 286.338L521.175 278.818L523.971 279.975L527.886 284.024L532.36 288.073L538.511 293.858L542.984 297.907L549.695 304.27L554.168 308.319L555.846 309.476V310.633L558.083 311.79L563.116 316.996L560.879 323.937L562.556 321.624L570.385 302.534L581.569 275.347L586.602 263.199Z" fill="#2FF77A"/>
<path d="M173.912 163.125H423.874L424.993 163.704L423.874 166.596L421.078 175.273L419.401 174.695H181.181L178.385 176.43L177.267 178.744V185.107L179.504 187.999L180.622 188.578L202.431 189.156L200.753 189.735L200.194 191.47L196.28 193.205L192.924 194.941H191.247V196.098L186.773 198.412L184.536 200.147H183.418V201.304H187.332V201.882L181.74 203.039L177.826 204.196L173.352 207.667H171.675L171.116 209.402L168.879 211.138L168.32 459.297H167.76V168.91L169.438 166.018L172.234 163.704L173.912 163.125Z" fill="#FCFDFC"/>
<path d="M413.25 578.459L413.809 580.195L409.335 605.647L402.066 653.659L399.829 668.699L399.27 667.542H357.33L356.77 666.964L357.33 659.444L362.362 640.933L366.836 625.893L375.224 595.235L378.02 584.244L386.967 583.087L394.796 582.509L395.914 581.93L408.217 580.195L413.25 579.616V578.459Z" fill="#FDFDFD"/>
<path d="M518.939 466.817H593.312L591.076 470.288L586.602 475.494L580.451 483.592L574.859 489.955L571.503 494.004H570.385V495.161H569.267L568.148 497.475L558.642 507.309H557.523V508.466H556.405L555.846 510.201L550.254 514.829L545.78 518.878L536.833 525.82L530.682 531.026L521.735 537.967L517.82 540.281L516.702 544.909H516.143L516.702 528.712L518.379 491.112L518.939 466.817Z" fill="#F0FDC9"/>
<path d="M189.569 175.273H412.131L419.401 175.852L420.519 177.009L421.078 186.843L419.401 188H182.3L179.504 186.264L177.826 183.372V179.901L180.063 176.43L181.181 175.852L189.569 175.273Z" fill="#2FF77A"/>
<path d="M648.114 458.718H660.976L662.094 460.454L663.213 467.395L671.041 471.444L673.837 473.758L678.87 472.023L682.225 471.444L685.581 477.229L688.377 482.435L687.817 484.749L683.344 488.798V503.838L688.377 507.309L687.817 510.78L682.785 520.035L680.548 520.613L675.515 518.3L672.719 518.878L666.568 522.927L663.213 524.663L662.653 525.241L661.535 532.761L648.114 533.34L646.996 532.761L645.877 524.084L640.844 522.349L635.812 518.878V517.721L628.542 520.035L626.864 520.613L623.509 515.407L620.154 509.623L620.713 506.73L625.187 503.26H626.305L625.746 493.426L626.305 488.22L624.068 487.063L620.154 483.592L624.068 475.494L626.864 471.444L630.779 472.023L634.134 473.758L636.371 472.601L641.404 469.131L646.437 467.395L646.996 461.032L648.114 458.718ZM653.147 480.121L648.114 481.278L643.64 484.749L641.404 487.063L639.726 491.112L639.167 497.475L640.844 503.26L643.64 507.309L647.555 510.201L650.91 511.358H657.621L662.653 509.044L666.568 505.573L669.364 499.789V492.269L666.568 486.484L663.772 483.592L660.417 481.278L653.147 480.121Z" fill="#1E3037"/>
<path d="M553.609 215.765L561.438 216.344L567.589 218.657L570.385 220.393L572.622 226.756V237.168L569.826 245.845L565.912 252.787L559.76 260.307L553.05 266.091L547.458 269.562L538.511 273.033L532.919 274.19H525.09L518.379 272.454L513.906 269.562L511.669 263.199V253.365L513.906 245.845L517.261 238.904L521.735 233.119L527.886 226.756L533.478 222.707L541.307 218.657L546.34 216.922L553.609 215.765Z" fill="#FCFDFC"/>
<path d="M476.439 466.817H478.117L479.235 472.601L483.709 512.515L486.505 543.174V558.213L476.999 562.841L473.643 563.998L462.459 568.047L454.631 570.94L450.716 572.096L446.243 573.253H443.447L442.887 570.94L476.439 466.817Z" fill="#F0FDCA"/>
<path d="M586.602 263.199L589.398 263.778L597.786 267.827L598.345 269.562L590.516 300.221L584.365 321.624L579.332 336.085L576.536 341.291L574.859 343.027H569.826L558.083 338.977L541.866 331.457L522.853 321.624L513.906 316.417V296.171H512.787V384.097L510.551 385.254L511.669 383.519L512.228 295.593H514.465L515.024 304.27L516.143 309.476L516.702 301.378H518.379L520.616 306.005L523.412 314.682V315.839L526.767 316.996L535.156 321.624L541.307 323.937H547.458L553.609 319.888L559.76 313.525L563.116 317.574L560.879 323.937L562.556 321.624L570.385 302.534L581.569 275.347L586.602 263.199Z" fill="#2FF77A"/>
<path d="M299.732 530.447H301.409L300.85 534.496L294.699 550.693V551.85L295.817 552.429L294.699 554.743L287.429 564.576L280.16 573.832L275.127 580.773L273.449 579.038L267.857 576.724L256.673 574.41L248.285 571.518L238.779 568.626L225.917 563.419L223.121 561.106L220.325 560.527L223.121 558.213L238.22 550.115L242.693 548.38L245.489 548.958L284.074 535.653L299.732 530.447Z" fill="#F0FDCA"/>
<path d="M442.887 185.107H451.275L461.9 186.842L473.643 187.421L475.321 197.255L476.439 212.295L475.88 223.285L474.203 230.805L471.406 235.433L468.051 237.747L466.374 238.325L458.545 237.747L449.598 234.854L446.242 232.541L440.091 223.864L438.414 220.971V219.814L431.144 220.393L427.23 216.922L425.552 213.451V208.824L426.111 208.245H430.585L431.703 210.559L435.058 209.402L434.499 205.931V201.882L437.295 198.99L440.091 195.519L440.65 185.685L442.887 185.107Z" fill="#FAFAFA"/>
<path d="M614.003 535.653L621.272 536.232L622.391 537.389V598.705L619.595 599.862L619.036 601.019L624.068 602.176L630.22 602.755V544.909H631.897L632.456 601.598L633.575 602.755H636.371V604.49L632.456 605.068L631.897 608.539H630.22L629.66 605.068H575.418V602.755L591.635 602.176H607.852V599.862L592.194 599.284L591.076 595.813L591.635 561.106L592.753 560.527H605.056L606.733 544.909L607.292 537.389L608.411 536.232L614.003 535.653Z" fill="#2FF77A"/>
<path d="M297.495 356.909H303.646L305.883 358.645L307.001 362.115L313.712 363.851L315.389 365.586L316.508 369.635V373.685L320.422 373.106L323.218 366.165L324.337 365.008H327.133L328.81 368.478L329.369 373.106L328.251 377.734L326.014 381.204L324.896 381.783H319.863V382.94L324.896 383.518L323.218 396.244L321.541 400.294L318.745 403.186L313.712 407.814L308.12 411.284L303.646 412.441L298.613 411.284L295.258 408.971L293.581 406.657V405.5H292.462L287.989 397.401L284.633 389.881L281.837 380.626L280.719 376.577L282.397 373.685L286.311 373.106L288.548 373.685L289.107 372.528L283.515 371.949L281.837 373.106H280.16L279.041 370.792L278.482 365.586L283.515 364.429L290.225 360.958L294.699 358.066L297.495 356.909Z" fill="#FCFDFC"/>
<path d="M299.173 506.73L311.475 508.466L339.994 512.515L350.619 513.672V514.25L320.422 515.986L314.83 516.564L326.573 520.613L333.843 524.663L337.198 526.977L333.843 531.026L332.165 536.232L331.047 547.801V578.459L332.725 608.539L333.284 616.059V621.844L331.606 621.265L330.488 609.696L329.929 601.019V593.499L323.777 598.706L317.067 605.069L312.593 609.118L304.765 616.059L298.054 622.422L291.903 627.628L283.515 635.727L277.364 640.933H275.127L278.482 636.884L284.074 631.678L290.225 626.472L298.054 618.952L304.205 613.745L308.12 609.696L314.271 604.49L320.981 598.127L325.455 594.078L328.251 591.764L327.133 586.558L321.541 575.567L319.304 572.096V570.361L321.541 571.518L326.014 579.038L328.81 584.822V558.792L319.304 558.213L307.001 555.9L295.258 552.429L298.613 543.173L302.528 533.34L304.765 532.761H314.271L322.659 533.918L325.455 534.497L324.896 533.34L317.626 532.183L303.087 531.604L300.291 517.721L298.613 507.309L299.173 506.73Z" fill="#2FF77A"/>
<path d="M334.961 163.125H423.874L424.993 163.704L423.874 166.596L421.078 175.273L418.282 174.116L251.081 173.538L251.64 172.381L262.265 170.645L263.943 169.489L275.686 167.753L284.074 166.018L293.581 164.861L299.732 163.704L334.961 163.125Z" fill="#F0FDC9"/>
<path d="M575.977 252.208L586.043 252.787L584.924 256.258L578.214 267.248L570.385 280.553L563.675 291.544L561.997 294.436L559.201 293.279L554.728 289.808H553.05L558.642 294.436L561.997 296.171L565.912 289.808L574.3 275.925L583.247 260.885L585.484 257.415H586.602V261.464L583.806 267.248L576.536 285.181L568.148 305.427L564.234 314.682L561.997 314.104L554.168 306.584L549.695 302.534L543.543 296.75L539.07 292.701L533.478 287.495L527.327 281.71V281.131H540.747L545.78 284.602L547.458 285.181V284.024L545.221 282.867L542.425 280.553L546.899 278.818L553.609 275.925L559.76 271.876L567.03 265.513L572.622 257.993L575.977 252.208Z" fill="#2FF77A"/>
<path d="M557.524 192.627L572.063 198.412L587.72 204.775L608.97 213.451V215.187L597.227 235.433L596.108 237.747L590.516 234.276L584.924 233.119L583.806 233.698L584.365 236.59L589.398 240.061V241.796L578.773 242.953V233.119L576.536 226.178L573.181 221.55L566.471 214.03L561.438 211.138L555.846 209.402L546.899 208.824L548.017 205.932L554.168 197.255L557.524 192.627Z" fill="#FDFDFD"/>
<path d="M478.676 314.682L481.472 317.574L485.946 325.094L482.591 329.143L476.999 334.349L475.321 334.928V336.085L470.847 340.134L465.255 345.34L460.782 349.389L452.953 356.331L446.802 361.537L438.414 368.478L433.94 370.792L431.144 370.214L425.552 364.429L422.197 356.909V352.86L424.434 351.703L426.111 352.282L426.671 350.546L432.822 346.497L445.124 337.82L468.611 321.623L478.676 314.682Z" fill="#2FF77A"/>
<path d="M282.397 504.417L289.666 504.995L296.936 506.152L298.054 509.623L300.85 525.819V528.712L281.278 535.653L257.233 543.752L245.489 547.801H243.812L239.338 537.389L244.93 533.339L258.91 524.663L272.331 515.986L279.601 511.358L283.515 511.936L294.14 515.986V514.829L289.107 513.093L282.397 510.201V504.417Z" fill="#2FF77A"/>
<path d="M575.418 523.506H588.839L589.398 524.084L589.957 561.106V598.127L588.839 599.284H575.418L574.859 598.706V524.084L575.418 523.506Z" fill="#2FF77A"/>
<path d="M475.321 230.227H512.228L511.11 233.119L507.755 240.061L506.077 245.267L504.959 255.679L497.689 255.101L478.676 252.787L475.88 252.209L471.407 245.845L470.847 239.482L471.966 236.59L474.762 231.962L475.321 230.227Z" fill="#2FF77A"/>
<path d="M411.572 282.288L412.69 282.867L410.454 285.759L408.776 292.7L407.658 300.22V314.103L409.894 325.673L414.927 340.134L418.283 339.556L423.315 338.399H429.467L435.618 338.977L436.177 343.026L426.111 349.968H424.993V351.703L426.111 352.282L422.756 352.86V356.909L426.671 365.008L431.144 369.635L435.059 370.214L433.381 371.949L427.789 374.842L425.552 374.263L421.638 369.635L414.927 356.909L407.658 340.134L403.743 328.565L401.506 319.309L400.947 314.682V304.848L402.625 296.171L405.98 289.23L411.013 282.867L411.572 282.288Z" fill="#2FF77A"/>
<path d="M331.606 637.462H332.166L332.725 644.404L333.284 658.865V669.278L304.765 670.435L287.429 671.013L286.87 672.17H284.074L286.87 669.856L296.936 663.493L305.883 657.13L315.949 649.61L330.488 638.041L331.606 637.462Z" fill="#FCFDFC"/>
<path d="M608.97 538.546H620.713V597.549H608.97V538.546Z" fill="#2FF77A"/>
<path d="M512.228 295.593H514.465L515.024 304.27L516.143 309.476L516.702 301.377H518.379L520.616 306.005L523.412 314.682V315.839L526.767 316.996L535.156 321.623L541.307 323.937H547.458L553.609 319.888L559.76 313.525L563.116 317.574L560.879 323.937L562.556 322.78L561.997 325.094L558.642 326.251L556.405 329.143L558.642 330.3L564.234 333.771L569.267 335.506H578.214L579.332 334.35L578.773 336.663L576.536 341.291L574.859 343.026H569.826L558.083 338.977L541.866 331.457L522.853 321.623L513.906 316.417V296.171H512.787V384.097L510.551 385.254L511.669 383.519L512.228 295.593Z" fill="#2FF77A"/>
<path d="M333.284 675.641L340.553 676.219L352.856 676.798L353.974 677.954L346.145 689.524L339.994 697.044L335.521 701.093L331.606 702.828L324.896 703.407L315.949 701.671L312.034 699.936L312.593 697.622L319.304 689.524L329.369 679.111L333.284 675.641Z" fill="#FDFDFD"/>
<path d="M339.994 436.158H342.79L343.909 437.315V441.943H345.027L344.468 445.414L342.231 452.934L339.994 465.081L337.757 485.327L319.863 486.484L310.357 487.641L301.969 488.22H294.699L294.14 484.17H299.173L328.251 478.964H329.929L329.369 476.65V466.238L330.488 456.983L333.284 447.149L337.198 439.629L339.994 436.158Z" fill="#2FF77A"/>
<path d="M603.378 454.669L604.496 455.247L598.904 459.297L596.668 464.503H600.023V465.081H519.498L518.939 464.503V455.826L600.582 455.247L603.378 454.669ZM532.919 456.983L532.359 458.14L537.951 459.297L545.78 459.875H582.128L586.043 459.297V458.14L579.332 456.983H532.919Z" fill="#F1FDCD"/>
<path d="M220.325 476.072H222.562L223.121 477.229V481.278L220.884 490.534L216.411 503.26L209.7 517.721L205.786 522.927L204.108 524.663L201.312 524.084L197.398 520.614L192.365 513.672L186.214 503.26L182.859 494.583V491.112L185.655 490.534L189.01 493.426L194.602 502.103L200.194 511.358L200.753 513.094H202.431L203.549 510.201L214.174 485.906L218.648 477.808L220.325 476.072Z" fill="#1B2E35"/>
<path d="M575.977 252.208L586.043 252.787L584.924 256.258L578.214 267.248L570.385 280.553L563.675 291.544L561.997 294.436L559.201 293.279L554.727 289.808L551.372 288.651L547.458 285.759V284.024L545.221 282.867L542.425 280.553L546.899 278.818L553.609 275.925L559.76 271.876L567.03 265.513L572.622 257.993L575.977 252.208Z" fill="#FCFDFB"/>
<path d="M376.902 454.669H434.499L433.381 464.503L432.822 465.081H379.138L378.02 461.032L376.902 454.669Z" fill="#EFFDC9"/>
<path d="M240.457 466.817H278.482L279.041 469.709L279.601 480.121V489.377L275.127 489.955L269.535 484.749L265.061 481.857H254.437L251.641 479.543V478.386H250.522V477.229H249.404V476.072L247.726 475.494V474.337H246.608L242.693 469.709L240.457 466.817Z" fill="#F0FDCB"/>
<path d="M214.174 438.472H221.444L228.154 441.364L234.305 447.149L237.66 454.091L238.22 458.718L237.101 462.189L235.983 463.924L233.187 465.081H227.036L220.325 462.189L215.292 458.14L213.056 455.247L210.26 450.041L209.7 444.257L210.819 440.208L214.174 438.472Z" fill="#FDFDFD"/>
<path d="M562.556 226.178H566.471L568.148 227.913V231.962L561.997 237.747L545.221 251.051L534.596 258.571L531.8 259.728H527.886L524.531 257.415L522.853 255.101L522.294 253.365V248.738L525.649 236.59L526.767 235.433H531.241L532.919 237.747L532.359 242.375L530.123 251.63L539.07 245.267L548.017 238.325L555.846 231.962L562.556 226.178Z" fill="#2FF77A"/>
<path d="M450.716 151.556L458.545 152.135L465.255 154.448L469.17 156.762L467.492 157.919L458.545 159.076L447.92 163.125L440.091 167.753L434.499 172.381L429.467 178.165L424.434 186.842L422.756 189.156L422.197 186.842V175.273L424.434 168.331L427.789 163.125L432.263 158.498L441.21 153.87L446.802 152.135L450.716 151.556Z" fill="#FDFDFD"/>
<path d="M440.65 185.686H444.565L446.802 191.47L447.361 200.725L446.242 207.667V216.344L447.92 223.285L450.716 232.541V234.276L447.361 233.698L444.006 229.648L438.414 220.972V219.815L431.144 220.393L427.23 216.922L425.552 213.452V208.824L426.111 208.245H430.585L431.703 210.559L435.058 209.402L434.499 205.932V201.882L437.295 198.99L440.091 195.519L440.65 185.686Z" fill="#CDFC60"/>
<path d="M163.846 121.477H167.201L171.675 126.104L185.096 129.575L200.194 133.046H201.872L204.108 130.153L206.904 128.997H211.378L214.733 131.31L216.411 134.203V139.409L214.174 142.88L211.378 144.615H205.786L202.431 141.723L201.312 139.409L200.753 135.938L183.418 131.31L169.438 128.418H168.32V129.575L163.287 130.732L156.576 139.987L148.747 150.978L145.392 155.606V164.283L143.155 166.596L142.037 167.175H137.563L134.767 164.861L134.208 163.704V158.498L138.123 155.027H143.155L148.747 146.929L157.695 134.781L161.05 129.575V124.369L163.846 121.477Z" fill="#21333A"/>
<path d="M246.048 481.856L253.318 484.17L257.232 486.484L259.469 487.063L256.114 483.592L257.232 483.013H265.061L270.653 487.641L274.568 491.112L273.449 496.318L272.89 499.21L270.653 500.367L262.824 501.524L247.167 500.946L244.371 496.318V491.112L244.93 489.955V484.17L246.048 481.856Z" fill="#FDFDFD"/>
<path d="M227.036 537.967H231.509L238.779 539.703L241.575 545.487V547.223L228.713 553.586L220.884 558.213L215.852 560.527L211.378 561.106L213.615 558.792L219.207 555.321L219.766 554.164L214.174 557.056L206.904 561.684H199.635L202.431 558.792L208.582 554.164L215.292 549.536L216.97 548.958L216.411 547.801H207.464V546.644L219.207 541.438L227.036 537.967Z" fill="#FDFDFD"/>
<path d="M439.532 225.599L441.769 227.913L444.006 231.384L446.802 234.276V235.433L459.104 238.904H469.729V248.159L466.374 252.787L461.341 257.993L457.427 258.571L451.835 255.679L446.243 251.63L444.565 245.267L442.328 236.011L439.532 227.334V225.599Z" fill="#CBFC5C"/>
<path d="M547.458 209.981H553.609L559.201 211.138L564.793 214.03L565.912 216.344L560.32 215.187H550.813L541.307 217.501L532.359 222.129L525.649 227.335L520.057 233.119L514.465 241.796L511.669 249.316L510.551 254.522V262.042L511.11 266.092L508.873 263.778L506.636 257.993V247.002L508.873 239.482L512.228 233.119L516.702 226.756H517.82L518.939 224.442L520.616 223.864V222.707L527.327 217.501L536.274 212.873L542.984 210.559L547.458 209.981Z" fill="#2FF77A"/>
<path d="M465.255 159.076H474.203L479.795 159.655L479.235 160.812L469.729 163.125L460.223 166.596L451.275 171.224L445.683 174.695L455.749 173.538L467.492 174.116H478.117L483.15 172.381L485.387 170.645H486.505L489.301 164.861H490.419L489.86 168.91L486.505 172.959L480.913 175.851L479.235 176.43H466.374L456.308 175.851L446.802 177.008L443.447 177.587V176.43L437.855 180.479L431.144 186.842L422.756 195.519L424.434 189.735L427.789 182.793L433.381 175.273L439.532 169.488L446.802 164.861L455.19 161.39L461.341 159.655L465.255 159.076Z" fill="#FDFDFD"/>
<path d="M179.504 229.648H438.414V230.227L180.622 230.805L178.944 232.541L178.385 454.669H206.904L204.668 455.826H178.385L177.267 455.248V232.541L179.504 229.648Z" fill="#D5FD77"/>
<path d="M573.74 225.021L575.977 227.334L577.655 231.962V242.953L575.977 245.845L573.74 253.943L569.826 260.307L568.708 262.042H567.589L566.471 264.356L562.556 268.405L555.287 273.611L547.458 277.66L539.07 279.974H529.004L523.412 278.239L520.616 275.925V274.768H535.715L544.662 271.876L553.05 267.248L558.642 262.62L560.879 260.307H561.997L563.115 257.993L567.589 252.208L572.063 242.953L573.74 235.433V225.021Z" fill="#2FF77A"/>
<path d="M278.482 433.845L279.601 436.159L282.956 442.522L286.87 450.62L287.429 452.355L288.548 453.512H287.429L293.021 485.906L292.462 488.798L281.278 489.377L278.482 441.943V433.845Z" fill="#2FF77A"/>
<path d="M493.215 293.279L494.893 293.857L494.334 297.328L491.538 303.113L494.334 301.956L499.367 298.485L504.959 295.593H506.077L505.518 300.22L503.281 306.583L501.603 311.79L496.011 316.996L487.064 323.359H485.946L480.354 314.682L480.913 310.054V305.426L483.709 302.534L490.419 295.014L493.215 293.279Z" fill="#FCFDFC"/>
<path d="M277.364 454.09H277.923L278.482 459.296V465.081H238.22V463.346L240.457 460.453L242.134 454.669L277.364 454.09Z" fill="#F0FDCA"/>
<path d="M504.959 669.277L511.11 673.327L517.82 676.797L524.531 678.533L536.274 679.111L540.188 680.268V681.425L532.919 683.739L526.767 684.896H513.347L508.873 684.317H497.689V672.748L503.281 669.856L504.959 669.277Z" fill="#FDFDFD"/>
<path d="M331.606 530.447H333.284L332.165 536.232L331.047 547.801V578.459L332.725 608.539L333.284 616.059V621.844L331.606 621.265L330.488 609.696L329.929 601.019V593.499L323.777 598.705L317.067 605.069L312.593 609.118L304.765 616.059L298.054 622.422L291.903 627.628L283.515 635.727L277.364 640.933H275.127L278.482 636.884L284.074 631.678L290.225 626.472L298.054 618.952L304.205 613.745L308.12 609.696L314.271 604.49L320.981 598.127L325.455 594.078L328.251 591.764L327.133 586.558L321.541 575.567L319.304 572.096V570.361L321.541 571.518L326.014 579.038L328.81 584.822V558.213L327.692 557.635L329.369 537.967L331.047 531.026L331.606 530.447Z" fill="#FDFDFD"/>
<path d="M433.381 290.387L435.618 291.544L438.973 295.593L440.65 299.642V306.584L440.091 312.368L442.328 321.624L446.802 332.614V333.771L448.479 334.35L443.446 337.82H441.769L433.94 322.202L431.703 318.153L433.381 299.642L433.94 296.75H432.822L432.262 297.907L433.381 290.387Z" fill="#2FF77A"/>
<path d="M584.924 234.276L588.839 234.854L593.312 237.168L597.227 240.06L597.786 241.217L598.345 248.159L600.023 253.365V258.571L597.786 264.934L595.549 265.513L588.28 262.042V251.63H579.892L576.536 251.051L577.655 248.737L585.484 247.002H589.398L593.872 251.63L592.194 247.58L589.398 245.845L582.128 246.424L578.214 247.002V245.267L582.688 243.531H591.635L589.398 238.325L584.924 235.433V234.276Z" fill="#FDFDFD"/>
<path d="M456.867 354.017L460.782 354.596H471.407L469.17 356.331L456.308 361.537L452.953 372.528L449.598 385.254V388.146L444.565 386.989L441.21 385.254L442.328 374.842L444.006 365.008L450.157 359.802L456.867 354.017Z" fill="#2FF77A"/>
<path d="M283.515 373.106L284.074 374.263H285.752V376.577L286.87 377.156V379.469L284.633 380.626L285.193 381.783H286.87L287.429 382.362V378.891L289.666 380.048L290.785 383.519L292.462 386.411L293.021 380.048L291.344 375.999L290.225 373.685L292.462 374.263L294.699 377.734V389.882L300.291 391.039V392.774H295.817L293.581 391.617L294.14 392.196L295.817 396.245L297.495 399.716V400.872H296.377L296.936 403.186L294.699 403.765L295.817 404.922H298.613L299.732 408.392L300.291 407.814L302.528 408.971V410.128H305.324V411.285L299.732 411.863L295.258 408.971L293.581 406.657V405.5H292.462L287.989 397.402L284.633 389.882L281.837 380.626L280.719 376.577L282.397 373.685L283.515 373.106Z" fill="#E2FCA3"/>
<path d="M399.27 675.062L402.066 675.64L406.539 677.954L405.98 683.16L402.625 692.994L399.27 699.936L395.355 703.985L393.678 704.563L390.882 701.671L390.322 696.465L392 688.367L394.237 682.582L399.27 675.062Z" fill="#FDFDFD"/>
<path d="M575.418 523.506H588.839L589.398 524.084L589.957 561.106V598.127L588.839 599.284H575.418L574.859 598.706V524.084L575.418 523.506ZM576.536 525.241V596.97L577.096 597.549H588.28V525.82L587.72 525.241H576.536Z" fill="#435359"/>
<path d="M603.378 229.07H605.056V230.227L606.733 230.805L607.292 231.962V451.777L605.056 454.669L600.582 455.826H518.939V454.669L602.819 454.091L605.056 452.934L606.174 450.041V233.697L603.937 230.805L602.26 229.648L603.378 229.07Z" fill="#E6FDAC"/>
<path d="M630.22 544.909H631.897L632.456 601.598L633.575 602.755H636.371V604.49L632.456 605.068L631.897 608.539H630.22L629.66 605.068H575.418V602.755L591.635 602.176L630.22 602.755V544.909Z" fill="#2E4046"/>
<path d="M211.378 439.629L213.056 440.207L213.615 443.1L216.97 449.463L221.444 453.512L225.917 456.404L235.983 459.875L237.66 461.61L235.983 463.924L233.187 465.081H227.036L220.325 462.189L215.292 458.14L213.056 455.247L210.26 450.041L209.7 444.257L210.819 440.207L211.378 439.629Z" fill="#C8FA55"/>
<path d="M453.512 238.325L459.104 238.904H469.729V248.159L466.374 252.787L461.341 257.993L457.427 258.571L454.631 257.414L455.749 253.944V240.061L453.512 238.325Z" fill="#FDFDFD"/>
<path d="M562.556 226.178H566.471L568.148 227.913V231.962L561.997 237.747L545.221 251.051L534.596 258.571L531.8 259.728H527.886L524.531 257.415L522.853 255.101L522.294 253.365V248.738L525.649 236.59L526.767 235.433H531.241L532.919 237.747L532.359 242.375L530.123 251.63L539.07 245.267L548.017 238.325L555.846 231.962L562.556 226.178ZM564.234 227.335L559.76 230.805L551.931 237.168L542.425 244.688L532.919 251.63L529.563 252.787L529.004 252.208L529.563 247.002L531.241 240.639V237.747L530.123 236.59L527.327 237.168L525.649 241.218L523.971 248.159V253.365L525.649 256.258L527.886 257.993H532.359L537.951 254.522L548.576 246.424L555.846 240.639L563.675 234.276L566.471 231.962L567.03 229.07L565.352 227.335H564.234Z" fill="#1B2E35"/>
<path d="M614.003 535.653L621.272 536.232L622.391 537.389V598.705L621.832 599.284H607.852V536.81L608.411 536.232L614.003 535.653ZM608.97 538.546V597.548H620.713V538.546H608.97Z" fill="#3D4D53"/>
<path d="M445.124 252.787L447.361 253.944L453.512 257.993L458.545 260.307V272.454L455.749 271.876L444.565 266.091L441.21 263.199L442.887 257.993L445.124 252.787Z" fill="#FDFDFD"/>
<path d="M311.475 536.81H317.626L326.574 537.389L329.37 537.967V544.33L328.251 557.635L328.81 558.792H325.455V557.635L323.778 557.056L322.659 550.693L319.863 544.908L317.067 541.438L311.475 537.389V536.81Z" fill="#2FF77A"/>
<path d="M607.292 537.389H607.852V599.284H619.595L619.036 601.019L624.068 602.176V602.755H602.819V602.176H607.852V599.862H605.056L605.615 597.548V561.106H592.753V560.527H605.056L606.733 544.909L607.292 537.389Z" fill="#FCFDFB"/>
<path d="M339.435 476.072L339.994 478.386H348.941L355.652 480.7L359.566 485.906L360.685 488.798V492.269L359.007 492.848L355.093 492.269V491.112H356.77V489.955L351.737 488.22L344.468 486.485L339.435 485.906V476.072Z" fill="#2FF77A"/>
<path d="M325.455 406.079L328.251 406.657L331.606 408.971L331.047 411.863L327.692 417.069L322.659 422.854L317.067 427.482H315.389L313.153 422.854L313.712 420.54L319.304 414.756L325.455 406.079Z" fill="#FCFDFC"/>
<path d="M470.847 248.159L473.643 251.051L475.88 254.522L473.084 262.621L469.729 268.405L468.051 270.719H466.933L460.782 260.885L461.341 259.15L466.933 254.522L470.847 248.159Z" fill="#FCFDFC"/>
<path d="M354.534 679.111L355.652 680.847L354.534 684.317L350.06 691.837L345.586 697.622L340.554 702.828L333.843 706.299L327.133 707.456H316.508L312.034 705.72L310.357 703.985V701.093L315.949 702.828L320.982 703.985H331.606L336.639 701.671L342.231 696.465L348.942 687.788L354.534 679.111Z" fill="#FDFDFD"/>
<path d="M591.635 561.105H605.615L606.174 599.284H592.194L591.076 595.813L591.635 561.105ZM593.312 562.262V597.548H604.497V562.841L603.937 562.262H593.312Z" fill="#22343B"/>
<path d="M440.651 185.686H444.565L446.802 191.47L447.361 200.725L446.243 207.667V216.344L447.92 223.285L450.716 232.541V234.276L447.361 233.698L444.006 229.648L439.532 222.707L440.651 220.393L441.769 222.128L443.447 222.707L445.124 222.128V220.972H444.006L443.447 214.609V208.245L444.565 207.089L445.124 200.725V195.519L444.006 190.313L442.887 186.842L440.651 187.421V185.686Z" fill="#E9FEB6"/>
<path d="M288.548 384.675L289.666 385.254L290.225 387.568L292.462 392.195L293.581 397.401H294.699L296.377 400.294L296.936 403.186L294.699 403.764L295.817 404.921H298.613L299.732 408.392L300.291 407.814L302.528 408.971V410.128H305.324V411.284L299.732 411.863L295.258 408.971L293.581 406.657V405.5H292.462L287.989 397.401L284.633 389.881L285.193 388.725L286.311 388.146L287.429 385.254L288.548 384.675Z" fill="#CBFC5D"/>
<path d="M323.777 399.137H324.337L324.896 404.921L319.304 412.441L313.153 419.383L309.797 419.961L304.205 414.755L304.765 413.598L310.357 411.284L313.153 409.549H314.271V408.392L315.949 407.814L318.185 405.5H319.304L319.863 403.764H320.981L322.1 401.451L323.777 399.137Z" fill="#DFFA9F"/>
<path d="M245.489 487.063L247.726 488.798V494.583H252.2L254.436 496.318L256.114 496.897H271.772L270.653 500.368L262.824 501.524L247.167 500.946L244.371 496.318V491.112L245.489 487.063Z" fill="#CCFC5F"/>
<path d="M295.817 411.285L301.969 414.177L306.442 418.805L310.357 421.697L309.797 424.589L307.561 429.795L303.646 427.482L299.173 422.854L295.258 416.491L295.817 411.285Z" fill="#FCFDFC"/>
<path d="M297.495 356.909L302.528 357.488L300.291 359.223L295.258 362.115L289.666 369.057L286.87 371.371L280.16 373.106L279.041 370.792L278.482 365.586L283.515 364.429L290.225 360.958L294.699 358.066L297.495 356.909Z" fill="#E6FCAE"/>
<path d="M305.324 345.34H309.797L315.389 347.076L319.863 350.546L323.218 355.174L323.777 357.488L321.541 356.91L318.185 351.703L313.712 348.811L309.238 347.654H305.324L296.377 350.546L290.225 354.017L280.719 360.959L274.568 363.851L269.535 364.429V362.694L276.805 360.38L282.397 356.91L289.666 351.703L298.613 347.076L305.324 345.34Z" fill="#FCFDFB"/>
<path d="M304.205 341.291H312.034L318.185 343.605L322.659 347.076L324.337 349.389V351.125H322.659L320.422 348.233V347.076L317.626 345.919L313.712 344.183L311.475 343.605H304.765L296.936 345.919L287.989 350.546L281.278 353.439H275.127L274.568 351.703L280.719 351.125L287.429 348.233L296.377 343.605L304.205 341.291Z" fill="#FDFDFD"/>
<path d="M540.747 682.582L542.984 683.16L542.425 684.896L534.037 687.21L527.327 688.367H513.906L497.689 687.788V686.053L502.163 684.896L509.991 685.474L513.906 686.053H526.208L535.155 684.317L540.747 682.582Z" fill="#FDFDFD"/>
<path d="M246.048 481.856L248.844 484.749L251.081 489.955L254.436 494.004L257.232 495.161H266.18L272.89 494.583V499.21L271.213 499.789L271.772 496.896L266.18 497.475H256.114L252.759 495.739L249.963 495.161L247.726 494.583L247.167 491.112L246.608 488.219L244.93 485.906L245.489 482.435L246.048 481.856Z" fill="#E6FDAD"/>
<path d="M412.131 668.699H432.822L465.815 669.278L495.452 670.435V671.592H483.709L464.137 671.013L454.631 670.435L411.572 669.856L412.131 668.699Z" fill="#F0FEC9"/>
<path d="M500.485 429.795H502.163L501.044 432.109L496.571 437.894L491.538 444.257L484.268 453.512L479.235 459.875H477.558L478.676 456.983L483.15 451.777L489.301 443.678L495.452 436.158L499.367 430.952L500.485 429.795Z" fill="#FDFDFD"/>
<path d="M296.377 400.873H298.054L300.291 404.343L302.528 406.079L308.12 407.236L314.83 404.922H315.949V406.079L311.475 409.549L307.001 411.863L303.646 412.442L300.85 411.863V411.285H305.324V410.128H302.528L300.85 408.393V409.549H299.732L298.613 405.5H295.817L294.14 403.186L296.377 402.608V400.873Z" fill="#E3FBA6"/>
<path d="M317.067 407.814H318.185V411.863L317.067 413.02L316.508 415.912L312.034 419.962L309.238 419.383L307.561 417.648L306.442 415.912V414.177L312.034 411.285H314.83V413.02H315.949L316.508 409.549H317.626L317.067 407.814Z" fill="#CAFC58"/>
<path d="M373.546 462.189H374.665L374.106 467.974L368.514 494.004L365.158 506.152H364.04L364.599 501.524L369.073 483.014L372.987 463.924L373.546 462.189Z" fill="#1B2E35"/>
<path d="M483.15 160.812L484.268 161.39L483.15 164.282L478.676 167.175L471.407 168.331L461.341 169.488L456.308 171.224L454.071 170.645L455.749 168.91L460.782 167.175L469.17 166.018L476.439 165.439L480.913 163.125L483.15 160.812Z" fill="#FDFDFD"/>
<path d="M207.464 445.414L208.582 445.992L210.26 452.934L214.733 459.297L220.325 463.346L225.917 465.66L232.628 466.238L231.509 467.395H224.24L219.207 465.66L214.733 462.189L210.26 457.561L208.023 452.934L207.464 450.62V445.414Z" fill="#FDFDFD"/>
<path d="M217.529 435.58H222.562L228.154 437.315L234.305 441.943L237.661 445.992L239.897 451.198L240.457 456.983L239.338 458.718L238.22 452.355L235.983 447.728L230.95 441.943L225.917 439.051L221.444 437.315L215.292 436.737L217.529 435.58Z" fill="#FDFDFD"/>
<path d="M331.606 530.447H333.284L332.166 536.232L331.047 547.801L330.488 557.635L329.929 558.792L327.692 557.635L329.369 537.967L331.047 531.026L331.606 530.447Z" fill="#E7FDB1"/>
<path d="M510.551 671.013H519.498L527.327 672.17L539.07 672.748L550.254 674.483V675.062H542.425L539.07 674.483L523.971 673.905L515.583 673.327L514.465 673.905L510.551 671.591V671.013Z" fill="#F2FDD3"/>
<path d="M199.635 203.618H204.108L205.786 205.353V209.402L203.549 211.716H200.194L197.957 209.402V205.353L199.635 203.618Z" fill="#FDFDFD"/>
<path d="M183.418 203.618H187.332L189.01 205.353L189.569 207.667L187.892 211.138L186.773 211.716H183.418L181.181 209.402V205.353L183.418 203.618Z" fill="#FDFDFD"/>
<path d="M216.411 203.618H220.325L222.562 205.932V209.402L220.325 211.716H216.97L214.733 209.402V205.353L216.411 203.618Z" fill="#FDFDFD"/>
<path d="M216.411 201.882H220.884L223.68 204.196L224.24 205.353V209.402L222.003 212.873L220.325 213.452H216.411L213.615 211.138L213.056 209.981V204.775L216.411 201.882ZM216.411 203.618L214.733 205.353V209.402L216.97 211.716H220.325L222.562 209.402V205.932L220.325 203.618H216.411Z" fill="#1B2E35"/>
<path d="M199.076 201.882H204.108L206.904 204.196L207.464 205.353V209.981L205.227 212.873L204.108 213.452H199.635L196.839 211.138L196.28 209.981V205.353L199.076 201.882ZM199.635 203.618L197.957 205.353V209.402L200.194 211.716H203.549L205.786 209.402V205.353L204.108 203.618H199.635Z" fill="#1B2E35"/>
<path d="M182.859 201.882H187.332L190.128 204.196L190.688 205.353V209.981L188.451 212.873L187.332 213.452H182.859L180.063 211.138L179.504 209.981V205.353L181.74 202.461L182.859 201.882ZM183.418 203.618L181.181 205.353V209.402L183.418 211.716H186.773L189.01 209.402L189.569 207.088L187.892 204.196L187.332 203.618H183.418Z" fill="#1B2E35"/>
<path d="M322.659 669.277H333.284L332.725 670.434L323.218 671.013H314.271L299.732 671.591H286.87L287.429 670.434L322.659 669.277Z" fill="#F0FEC9"/>
<path d="M212.496 439.629L214.733 440.207L215.852 444.257L216.97 447.727L220.884 451.198L225.917 455.247L232.068 457.561L237.101 458.718L237.661 461.032L232.068 459.297L223.68 455.826L218.648 451.777L215.292 447.727L212.496 441.364V439.629Z" fill="#EBFEBC"/>
<path d="M453.512 238.325L457.427 238.904L458.545 240.061L459.104 248.159L457.427 257.414H454.631L455.749 253.944V240.061L453.512 238.325Z" fill="#E8FDB3"/>
<path d="M451.275 391.039L452.953 391.617L450.157 406.079L447.92 409.549L446.243 411.285L442.328 411.863L441.21 411.285V409.549L445.683 408.971L447.92 405.5L450.716 392.195L451.275 391.039Z" fill="#FDFDFD"/>
<path d="M440.651 185.686H444.565L446.802 191.47L447.361 200.725L446.243 207.667L445.124 206.51V195.519L444.006 190.313L442.887 186.842L440.651 187.421V185.686Z" fill="#EBFEBC"/>
<path d="M433.381 325.673H434.499L441.21 338.399L438.414 341.291H437.295L433.381 326.83V325.673Z" fill="#2FF77A"/>
<path d="M290.225 373.685L292.462 374.263L294.699 377.734V389.881L300.291 391.038V392.774H295.817L292.462 390.46L293.021 380.048L291.344 375.998L290.225 373.685Z" fill="#1B2E35"/>
<path d="M366.836 529.869L369.073 530.447L374.665 541.438L376.342 544.909L375.783 547.222L374.665 546.644V545.487H373.546L369.632 536.81L366.836 531.604V529.869Z" fill="#F6FDE2"/>
<path d="M282.397 364.429L284.074 366.743L286.87 367.321L285.752 369.635L284.633 370.792L282.397 370.214L281.278 371.371L279.041 370.792L278.482 365.586L282.397 364.429Z" fill="#2FF77A"/>
<path d="M476.439 194.941L478.676 195.519L480.354 197.255L480.913 200.726L478.676 207.089L477.558 207.667L476.439 198.412V194.941Z" fill="#FDFDFD"/>
<path d="M283.515 373.106L284.074 374.263H285.752V376.577L286.87 377.156V379.469L284.633 380.626L284.074 382.94V381.205H282.956L282.397 382.94L280.719 376.577L282.397 373.685L283.515 373.106Z" fill="#CEFA6A"/>
<path d="M464.137 197.833H465.255L465.815 205.353L468.611 210.559L466.933 213.451L463.578 214.03V212.873L466.374 211.716L465.815 209.402L463.578 205.931V199.568L464.137 197.833Z" fill="#1B2E35"/>
<path d="M426.111 208.246H430.026V209.403L427.23 209.981L426.67 214.03H427.789L429.466 216.922V218.079H432.262L433.381 216.922V218.079H436.177L435.618 219.815L431.144 220.393L427.23 216.922L425.552 213.452V208.824L426.111 208.246Z" fill="#E2FAA9"/>
<path d="M439.532 225.599L441.769 227.913L444.006 231.384L447.361 235.433L445.124 236.59L442.887 234.854L442.328 236.011L439.532 227.334V225.599Z" fill="#DFFAA1"/>
<path d="M490.419 454.09L491.538 454.669L490.419 456.983L484.827 461.61L482.031 463.346H480.354V461.61L487.064 456.983L490.419 454.09Z" fill="#FDFDFD"/>
<path d="M323.777 399.137H324.337L324.896 404.921L319.863 411.863L319.304 410.706L320.981 407.814V402.607L323.777 399.137Z" fill="#FDFDFD"/>
<path d="M305.883 537.967L311.475 539.703L317.067 543.173L318.745 544.909L318.185 546.644L313.712 543.173L309.238 540.86L305.324 539.703L305.883 537.967Z" fill="#1B2E35"/>
<path d="M331.606 530.447H333.284L332.166 536.232L331.606 540.281L329.929 543.173H329.37V537.967L331.047 531.026L331.606 530.447Z" fill="#EBFDBF"/>
<path d="M446.802 226.178H447.92V227.335H449.039L450.716 232.541V234.276L447.361 233.698L445.683 231.962V230.227L446.802 229.648V226.178Z" fill="#E7FDB2"/>
<path d="M290.785 360.38L292.462 360.959L291.344 363.273L289.107 366.165L285.193 365.587V364.43L284.074 363.851L289.666 361.537L290.785 360.38Z" fill="#CCF966"/>
<path d="M378.02 557.635L378.579 558.792H379.698L381.375 567.469V572.096L380.816 575.567H380.257L379.138 565.155L378.02 559.949V557.635Z" fill="#FDFDFD"/>
<path d="M249.963 489.376L252.759 492.269L255.555 494.583L257.233 495.161H266.18L272.89 494.583V495.74L269.535 496.318H256.673L252.2 494.004L249.963 490.533V489.376Z" fill="#F0FEC9"/>
<path d="M430.585 340.712H432.822L432.262 342.448L422.756 344.183H418.282V343.026L430.585 340.712Z" fill="#1B2E35"/>
<path d="M284.074 373.106L286.87 373.685L288.548 375.42V378.891H287.429L287.989 382.94H286.87V381.783L284.633 382.362L285.193 379.469H286.87V377.156L285.193 376.577L285.752 374.263H284.074V373.106Z" fill="#EAFDBA"/>
<path d="M444.565 222.707L446.802 225.599L447.361 231.384L446.802 230.227H445.683L445.124 231.384L442.887 227.913L444.006 223.864L444.565 222.707Z" fill="#C9FA59"/>
<path d="M320.981 403.765H321.541V407.814L319.863 410.706L317.626 414.755H316.508L317.067 412.442L317.626 411.863V407.235L320.981 403.765Z" fill="#E8FDB5"/>
<path d="M445.124 242.953L446.802 245.267L447.361 248.738L446.802 250.473L449.598 251.052V252.208H451.275L451.835 254.522L449.598 253.944L446.243 251.63L445.124 248.159V242.953Z" fill="#DBF896"/>
<path d="M222.562 454.09L225.358 454.669L232.068 457.561L237.101 458.718L237.66 461.032L232.068 459.296L223.68 455.826L222.562 454.09Z" fill="#EBFEBA"/>
<path d="M298.054 366.743H302.528L307.561 368.479L308.12 370.792L303.087 369.057H296.936V367.322L298.054 366.743Z" fill="#1B2E35"/>
<path d="M452.394 189.735H457.427L456.867 191.47L452.953 192.049L450.157 194.363L449.039 196.098L447.361 195.519L449.598 192.049L452.394 189.735Z" fill="#1B2E35"/>
<path d="M308.12 393.353H309.797L309.238 395.666L305.883 397.98L304.205 398.559H299.732L300.291 396.823L305.883 395.666L308.12 393.353Z" fill="#1B2E35"/>
<path d="M290.225 395.666L290.785 396.823V399.137H291.903L292.462 397.98V402.029L293.021 403.764L294.14 404.343L294.699 406.657H293.581V405.5H292.462L287.989 397.401L290.225 395.666Z" fill="#E1FBA5"/>
<path d="M299.732 404.343L304.205 406.657L308.12 407.236L314.83 404.922H315.949V406.079L313.712 407.236L308.679 408.392H304.205L300.85 406.657L299.732 404.343Z" fill="#F0FEC9"/>
<path d="M465.815 190.892H470.847L473.643 192.627L474.203 194.941H472.525L470.847 193.205H465.255V191.47L465.815 190.892Z" fill="#1B2E35"/>
<path d="M558.642 317.574L560.32 318.153L557.524 321.623L552.491 325.094H551.372L552.491 322.78L557.524 318.731L558.642 317.574Z" fill="#1B2E35"/>
<path d="M352.856 481.278H354.534L353.974 483.014L345.586 484.749L343.909 484.171V483.014L352.856 481.278Z" fill="#1B2E35"/>
<path d="M452.394 218.658L461.9 219.815L461.341 221.55H455.749L452.394 219.815V218.658Z" fill="#1B2E35"/>
<path d="M424.434 196.098H425.552L427.23 200.147L421.638 201.304L422.756 198.411L424.434 196.098Z" fill="#FDFDFD"/>
<path d="M245.489 489.376L246.048 491.69V496.318H247.167L248.285 498.632L247.726 500.946L244.371 496.318V491.112L245.489 489.376Z" fill="#DDF89D"/>
<path d="M440.65 189.735H441.21L441.769 194.941L440.091 198.412L435.618 202.461L434.499 201.883L437.295 198.99L440.091 195.519L440.65 189.735Z" fill="#2FF77A"/>
<path d="M338.876 439.051L340.553 439.629V450.62H338.876V439.051Z" fill="#1B2E35"/>
<path d="M440.651 185.686H443.447L445.683 190.313L446.243 196.098L444.565 194.362L444.006 190.313L442.887 186.842L440.651 187.421V185.686Z" fill="#E7FDAF"/>
<path d="M440.091 220.393L441.769 222.128L443.447 223.285L444.565 222.707L443.447 226.756L441.21 225.599L439.532 222.707L440.091 220.393Z" fill="#E1FBA3"/>
<path d="M366.836 529.869L369.073 530.447L371.869 535.653L371.31 536.81L368.514 534.496L366.836 531.604V529.869Z" fill="#EAFDBC"/>
<path d="M426.111 208.246H430.026V209.403L427.23 209.981L426.67 214.03H427.789L428.348 216.344L426.67 215.766L425.552 213.452V208.824L426.111 208.246Z" fill="#DAFA92"/>
<path d="M539.07 673.327H544.103L550.254 674.484V675.062H542.425L539.07 674.484V673.327Z" fill="#F0FDCA"/>
<path d="M311.475 410.706L312.593 411.285L308.679 413.598L306.442 414.177L308.12 417.648L305.883 416.491L304.205 414.177L311.475 410.706Z" fill="#EAFDBC"/>
<path d="M374.106 545.487L376.342 546.644L377.461 549.537V553.007H376.342L374.106 547.223V545.487Z" fill="#FCFDFB"/>
<path d="M314.83 415.334L316.508 415.912L312.034 419.962L309.238 419.383V418.226L312.034 417.648L314.271 416.491L314.83 415.334Z" fill="#E2FAA9"/>
<path d="M212.496 439.629L214.733 440.207L215.852 447.149L214.174 445.414L212.496 441.364V439.629Z" fill="#EAFEB7"/>
<path d="M230.391 458.14H235.983L237.66 459.875V461.032L232.068 459.297L230.391 458.14Z" fill="#E9FDB5"/>
<path d="M287.429 378.891L289.666 380.048L290.225 382.94H287.989L287.429 382.361V378.891Z" fill="#1B2E35"/>
<path d="M300.85 375.42L303.087 375.998L303.646 376.577V379.469L301.409 378.891L300.85 378.312V375.42Z" fill="#1B2E35"/>
<path d="M239.897 672.17L241.575 673.905V675.062H232.628V674.484L239.338 673.327L239.897 672.17Z" fill="#F2FDD2"/>
<path d="M300.291 407.814L302.528 408.971V410.128H305.324V411.285H300.85L300.291 408.971V407.814Z" fill="#CBFD58"/>
<path d="M278.482 365.586H281.837L281.278 367.322L281.837 369.057L279.041 368.479L278.482 365.586Z" fill="#E1FCA1"/>
<path d="M372.428 538.546L374.106 540.281L376.342 544.909L375.783 547.223L374.665 546.644L372.987 540.86L372.428 538.546Z" fill="#E0FD9A"/>
<path d="M460.223 263.199L461.9 264.356L461.341 266.67L460.782 274.768H460.223V263.199Z" fill="#2FF77A"/>
<path d="M630.22 688.945L633.016 689.524L634.693 691.259L634.134 695.308H633.575L633.016 691.259L630.22 690.102V688.945Z" fill="#F0FEC9"/>
<path d="M314.83 404.921H315.949V406.078L313.712 407.235L307.561 408.392L308.12 407.235L314.83 404.921Z" fill="#F1FDCF"/>
<path d="M447.361 250.473L449.598 251.052V252.209H451.275L451.835 254.522L449.598 253.944L447.361 252.209V250.473Z" fill="#E8FDB3"/>
</svg>
