<svg width="474" height="344" viewBox="0 0 474 344" fill="none" xmlns="http://www.w3.org/2000/svg">
<g clip-path="url(#clip0_17_419)">
<path d="M63.8681 325.887C63.3243 325.909 62.786 325.783 62.3261 325.525C61.8662 325.268 61.5069 324.891 61.2969 324.447C61.0869 324.003 61.0364 323.513 61.1522 323.043C61.2679 322.572 61.5444 322.145 61.9441 321.818C62.011 321.583 62.059 321.414 62.126 321.179C62.102 321.128 62.078 321.077 62.0537 321.025C61.5059 319.881 60.588 318.906 59.4152 318.222C58.2425 317.538 56.8672 317.175 55.4621 317.18C54.0571 317.184 52.6849 317.556 51.5179 318.248C50.3509 318.94 49.4412 319.921 48.9031 321.069C46.7522 325.649 44.0138 330.237 43.3396 335.08C43.0426 337.22 43.1679 339.39 43.7098 341.493C38.658 331.75 36.0348 321.16 36.0179 310.442C36.0168 307.752 36.1858 305.064 36.5241 302.391C36.8037 300.2 37.1916 298.024 37.6878 295.864C40.3954 284.144 46.2088 273.159 54.6506 263.811C58.7364 261.84 62.0406 258.809 64.1181 255.126C64.8707 253.802 65.4025 252.389 65.6972 250.931C65.2363 250.984 64.7679 251.018 64.307 251.044C64.1634 251.051 64.0123 251.058 63.8687 251.064L63.8146 251.066C63.308 251.087 62.8057 250.977 62.3681 250.75C61.9305 250.524 61.5762 250.19 61.348 249.79C61.1197 249.39 61.0272 248.94 61.0816 248.494C61.1359 248.048 61.3348 247.626 61.6544 247.278C61.8534 247.061 62.0525 246.845 62.2518 246.628C62.554 246.294 62.8638 245.967 63.166 245.633C63.2009 245.601 63.2337 245.568 63.2642 245.533C63.6119 245.152 63.9594 244.778 64.307 244.397C63.6725 243.526 62.8192 242.797 61.8135 242.266C58.3303 240.462 53.5248 241.712 51.0087 244.497C48.485 247.283 48.009 251.191 48.8854 254.672C49.7474 257.634 51.1731 260.444 53.1017 262.982C52.9127 263.196 52.7162 263.403 52.5274 263.617C49.0743 267.543 46.0647 271.759 43.5418 276.204C44.1553 271.224 43.4231 266.187 41.4052 261.506C39.3601 257.144 35.5268 253.47 32.1512 249.699C28.0965 245.17 19.782 247.146 19.0677 252.888C19.0608 252.944 19.054 253 19.0474 253.055C19.5488 253.305 20.0396 253.571 20.5198 253.852C21.1231 254.208 21.5906 254.717 21.8609 255.312C22.1313 255.908 22.192 256.561 22.0351 257.188C21.8782 257.814 21.5109 258.384 20.9815 258.822C20.452 259.261 19.7851 259.548 19.068 259.646L18.9946 259.656C19.1732 261.253 19.4889 262.837 19.939 264.392C21.2433 268.734 23.5481 272.792 26.7089 276.309C29.8697 279.827 33.8184 282.73 38.3073 284.835C38.602 284.968 38.8892 285.102 39.1839 285.229C36.649 291.58 35.059 298.196 34.4539 304.91C34.1113 308.871 34.1315 312.85 34.5143 316.808L34.4917 316.668C33.5244 312.266 30.8689 308.295 26.9736 305.424C21.188 301.222 13.0141 299.675 6.77245 296.297C6.10911 295.921 5.33781 295.72 4.54953 295.718C3.76124 295.716 2.98886 295.914 2.32346 296.288C1.65806 296.661 1.12739 297.195 0.794058 297.827C0.460731 298.459 0.338642 299.161 0.442185 299.852C0.450546 299.901 0.459069 299.951 0.467724 300C1.39816 300.335 2.30406 300.721 3.18022 301.155C3.68161 301.406 4.17244 301.671 4.65265 301.952C5.25592 302.308 5.72337 302.817 5.99375 303.413C6.26413 304.008 6.32481 304.662 6.16788 305.288C6.01094 305.914 5.6437 306.484 5.11425 306.923C4.58481 307.361 3.91787 307.648 3.2008 307.746L3.12732 307.756C3.07442 307.763 3.0291 307.769 2.97629 307.776C4.56607 311.132 6.79737 314.221 9.57248 316.908C13.0007 320.161 17.1441 322.76 21.7488 324.546C26.3534 326.332 31.3221 327.268 36.3504 327.297H36.358C37.7229 332.541 39.7006 337.646 42.2591 342.528H63.3399C63.4155 342.321 63.4834 342.107 63.5515 341.9C61.6002 342.009 59.6412 341.906 57.7183 341.593C59.2824 339.896 60.8464 338.186 62.4105 336.489C62.4454 336.457 62.4782 336.424 62.5087 336.389C63.3021 335.52 64.103 334.659 64.8964 333.79L64.8968 333.789C64.9391 331.127 64.5936 328.471 63.8688 325.887L63.8681 325.887Z" fill="#F2F2F2"/>
<path d="M409.982 325.887C410.525 325.909 411.064 325.783 411.523 325.525C411.983 325.268 412.343 324.891 412.553 324.447C412.763 324.003 412.813 323.513 412.697 323.043C412.582 322.572 412.305 322.145 411.906 321.818C411.839 321.583 411.791 321.414 411.724 321.179C411.748 321.128 411.772 321.077 411.796 321.025C412.344 319.881 413.262 318.906 414.434 318.222C415.607 317.538 416.982 317.175 418.387 317.18C419.793 317.184 421.165 317.556 422.332 318.248C423.499 318.94 424.408 319.921 424.947 321.069C427.097 325.649 429.836 330.237 430.51 335.08C430.807 337.22 430.682 339.39 430.14 341.493C435.192 331.75 437.815 321.16 437.832 310.442C437.833 307.752 437.664 305.064 437.325 302.391C437.046 300.2 436.658 298.024 436.162 295.864C433.454 284.144 427.641 273.159 419.199 263.811C415.113 261.84 411.809 258.809 409.732 255.126C408.979 253.802 408.447 252.389 408.152 250.931C408.613 250.984 409.082 251.018 409.543 251.044C409.686 251.051 409.837 251.058 409.981 251.064L410.035 251.066C410.542 251.087 411.044 250.977 411.481 250.75C411.919 250.524 412.273 250.19 412.502 249.79C412.73 249.39 412.822 248.94 412.768 248.494C412.714 248.048 412.515 247.626 412.195 247.278C411.996 247.061 411.797 246.845 411.598 246.628C411.296 246.294 410.986 245.967 410.684 245.633C410.649 245.601 410.616 245.568 410.585 245.533C410.238 245.152 409.89 244.778 409.543 244.397C410.177 243.526 411.03 242.797 412.036 242.266C415.519 240.462 420.325 241.712 422.841 244.497C425.365 247.283 425.841 251.191 424.964 254.672C424.102 257.634 422.676 260.444 420.748 262.982C420.937 263.196 421.133 263.403 421.322 263.617C424.775 267.543 427.785 271.759 430.308 276.204C429.694 271.224 430.427 266.187 432.444 261.506C434.49 257.144 438.323 253.47 441.698 249.699C445.753 245.17 454.068 247.146 454.782 252.888C454.789 252.944 454.796 253 454.802 253.055C454.301 253.305 453.81 253.571 453.33 253.852C452.727 254.208 452.259 254.717 451.989 255.312C451.718 255.908 451.658 256.561 451.815 257.188C451.971 257.814 452.339 258.384 452.868 258.822C453.398 259.261 454.065 259.548 454.782 259.646L454.855 259.656C454.676 261.253 454.361 262.837 453.911 264.392C452.606 268.734 450.302 272.792 447.141 276.309C443.98 279.827 440.031 282.73 435.542 284.835C435.248 284.968 434.961 285.102 434.666 285.229C437.201 291.58 438.791 298.196 439.396 304.91C439.738 308.871 439.718 312.85 439.335 316.808L439.358 316.668C440.325 312.266 442.981 308.295 446.876 305.424C452.662 301.222 460.836 299.675 467.077 296.297C467.741 295.921 468.512 295.72 469.3 295.718C470.088 295.716 470.861 295.914 471.526 296.288C472.192 296.661 472.722 297.195 473.056 297.827C473.389 298.459 473.511 299.161 473.407 299.852C473.399 299.901 473.391 299.951 473.382 300C472.452 300.335 471.546 300.721 470.669 301.155C470.168 301.406 469.677 301.671 469.197 301.952C468.594 302.308 468.126 302.817 467.856 303.413C467.586 304.008 467.525 304.661 467.682 305.288C467.839 305.914 468.206 306.484 468.735 306.922C469.265 307.361 469.932 307.648 470.649 307.746L470.722 307.756C470.775 307.762 470.821 307.769 470.873 307.776C469.284 311.132 467.052 314.221 464.277 316.908C460.849 320.161 456.706 322.76 452.101 324.546C447.496 326.332 442.528 327.268 437.499 327.297H437.492C436.127 332.541 434.149 337.646 431.591 342.528H410.51C410.434 342.321 410.366 342.107 410.298 341.9C412.249 342.009 414.208 341.906 416.131 341.593C414.567 339.896 413.003 338.186 411.439 336.489C411.404 336.457 411.371 336.424 411.341 336.389C410.548 335.52 409.747 334.659 408.953 333.79L408.953 333.789C408.911 331.127 409.257 328.471 409.982 325.887Z" fill="#F2F2F2"/>
<path d="M148.946 334.194H154.05L156.479 316.788H148.946V334.194Z" fill="#9E616A"/>
<path d="M147.28 331.103L155.434 330.673V333.762L163.186 338.495C163.569 338.729 163.858 339.065 164.009 339.454C164.161 339.843 164.168 340.265 164.03 340.657C163.891 341.05 163.614 341.394 163.24 341.637C162.865 341.881 162.412 342.013 161.946 342.013H152.239L150.565 338.957L149.912 342.013H146.252L147.28 331.103Z" fill="#01191F"/>
<path d="M84.9779 330.36L89.7199 332.029L99.2567 316.652L92.2584 314.188L84.9779 330.36Z" fill="#9E616A"/>
<path d="M84.7229 326.944L92.4787 329.21L91.1866 332.08L96.409 339.013C96.667 339.356 96.7945 339.762 96.7728 340.173C96.751 340.584 96.5813 340.978 96.2884 341.298C95.9954 341.617 95.5945 341.846 95.1443 341.95C94.6941 342.054 94.2181 342.028 93.7857 341.876L84.7665 338.701L84.4899 335.315L82.6049 337.94L79.2042 336.744L84.7229 326.944Z" fill="#01191F"/>
<path d="M138.658 282.401L130.147 247.284L116.857 286.301L95.8135 323.3L95.702 323.496L89.0361 320.323C88.0953 305.3 90.3296 291.222 98.5016 278.912L102.371 245.124C102.49 243.97 105.376 216.866 114.516 212.059L117.193 206.663L143.816 200.849L143.913 200.946C146.473 203.49 148.164 206.624 148.79 209.984L156.745 252.594L156.749 252.618L154.616 282.343L157.534 326.198H146.977C140.446 315.333 137.673 300.733 138.658 282.401Z" fill="#01191F"/>
<path d="M398.214 22.4019H64.4295C64.0824 22.3954 63.7519 22.2688 63.509 22.0495C63.2661 21.8301 63.1301 21.5353 63.1301 21.2283C63.1301 20.9213 63.2661 20.6265 63.509 20.4071C63.7519 20.1877 64.0824 20.0612 64.4295 20.0547H398.214C398.561 20.0612 398.892 20.1877 399.134 20.4071C399.377 20.6265 399.513 20.9213 399.513 21.2283C399.513 21.5353 399.377 21.8301 399.134 22.0495C398.892 22.2688 398.561 22.3954 398.214 22.4019Z" fill="#CACACA"/>
<path d="M87.1506 14.0624C91.4468 14.0624 94.9296 10.9144 94.9296 7.03118C94.9296 3.14797 91.4468 0 87.1506 0C82.8544 0 79.3716 3.14797 79.3716 7.03118C79.3716 10.9144 82.8544 14.0624 87.1506 14.0624Z" fill="#3F3D56"/>
<path d="M114.024 14.0624C118.32 14.0624 121.803 10.9144 121.803 7.03118C121.803 3.14797 118.32 0 114.024 0C109.727 0 106.245 3.14797 106.245 7.03118C106.245 10.9144 109.727 14.0624 114.024 14.0624Z" fill="#3F3D56"/>
<path d="M140.896 14.0624C145.193 14.0624 148.675 10.9144 148.675 7.03118C148.675 3.14797 145.193 0 140.896 0C136.6 0 133.117 3.14797 133.117 7.03118C133.117 10.9144 136.6 14.0624 140.896 14.0624Z" fill="#3F3D56"/>
<path d="M382.034 1.74268H362.945C362.567 1.7493 362.206 1.88685 361.941 2.12579C361.677 2.36474 361.528 2.68602 361.528 3.02064C361.528 3.35527 361.677 3.67654 361.941 3.91548C362.206 4.15443 362.567 4.29198 362.945 4.2986H382.034C382.413 4.29198 382.773 4.15443 383.038 3.91548C383.303 3.67654 383.451 3.35527 383.451 3.02064C383.451 2.68602 383.303 2.36474 383.038 2.12579C382.773 1.88685 382.413 1.7493 382.034 1.74268Z" fill="#3F3D56"/>
<path d="M382.034 6.53979H362.945C362.567 6.54646 362.207 6.68402 361.942 6.92296C361.677 7.1619 361.528 7.48316 361.528 7.81775C361.528 8.15235 361.677 8.4736 361.942 8.71254C362.207 8.95148 362.567 9.08905 362.945 9.09571H382.034C382.413 9.08905 382.773 8.95148 383.038 8.71254C383.303 8.4736 383.451 8.15235 383.451 7.81775C383.451 7.48316 383.303 7.1619 383.038 6.92296C382.773 6.68402 382.413 6.54646 382.034 6.53979Z" fill="#3F3D56"/>
<path d="M382.034 11.3306H362.945C362.567 11.3372 362.207 11.4748 361.942 11.7137C361.677 11.9527 361.528 12.2739 361.528 12.6085C361.528 12.9431 361.677 13.2644 361.942 13.5033C362.207 13.7423 362.567 13.8798 362.945 13.8865H382.034C382.413 13.8798 382.773 13.7423 383.038 13.5033C383.303 13.2644 383.451 12.9431 383.451 12.6085C383.451 12.2739 383.303 11.9527 383.038 11.7137C382.773 11.4748 382.413 11.3372 382.034 11.3306Z" fill="#3F3D56"/>
<path d="M286.835 74.3103H259.495C258.927 74.3103 258.364 74.4092 257.839 74.6015C257.315 74.7937 256.838 75.0755 256.436 75.4307C256.034 75.786 255.715 76.2077 255.498 76.6718C255.28 77.1359 255.168 77.6334 255.168 78.1358V102.308C255.168 103.323 255.624 104.296 256.436 105.013C257.247 105.731 258.348 106.134 259.495 106.134H286.835C287.982 106.134 289.083 105.731 289.894 105.013C290.705 104.296 291.161 103.323 291.161 102.308V78.1357C291.161 77.1212 290.705 76.1481 289.894 75.4307C289.083 74.7133 287.982 74.3103 286.835 74.3103ZM281.701 82.4712H278.566C276.425 82.4712 276.009 83.3674 276.009 84.6905V87.496H281.114L280.451 91.901H275.999V103.388C274.096 103.703 272.142 103.699 270.24 103.375V91.901H266.158V87.496H270.316V84.2384C270.316 80.344 273.375 78.217 277.315 78.217C279.21 78.217 281.237 78.3426 281.701 78.4011V82.4712Z" fill="#2FF77A"/>
<path d="M218.448 74.3103H191.109C189.961 74.3103 188.861 74.7133 188.049 75.4308C187.238 76.1482 186.782 77.1212 186.782 78.1358V102.308C186.782 103.323 187.238 104.296 188.049 105.013C188.861 105.731 189.961 106.134 191.109 106.134H218.448C219.596 106.134 220.696 105.731 221.508 105.013C222.319 104.296 222.775 103.323 222.775 102.308V78.1357C222.775 77.1212 222.319 76.1481 221.508 75.4307C220.696 74.7133 219.596 74.3103 218.448 74.3103ZM204.778 98.7083C202.88 98.7083 201.024 98.2106 199.446 97.2781C197.868 96.3457 196.637 95.0203 195.911 93.4696C195.184 91.9189 194.994 90.2127 195.365 88.5665C195.735 86.9203 196.649 85.4082 197.991 84.2214C199.334 83.0345 201.044 82.2263 202.906 81.8988C204.768 81.5714 206.698 81.7395 208.451 82.3818C210.205 83.0241 211.704 84.1118 212.759 85.5073C213.814 86.9029 214.376 88.5436 214.376 90.2221C214.376 92.4728 213.365 94.6313 211.565 96.2227C209.765 97.8142 207.324 98.7083 204.778 98.7083ZM215.576 81.7358C215.102 81.7358 214.638 81.6114 214.243 81.3782C213.849 81.1451 213.541 80.8138 213.359 80.4261C213.178 80.0384 213.13 79.6119 213.223 79.2003C213.315 78.7888 213.544 78.4107 213.879 78.114C214.215 77.8173 214.643 77.6153 215.108 77.5334C215.574 77.4515 216.056 77.4936 216.494 77.6541C216.933 77.8147 217.308 78.0867 217.571 78.4355C217.835 78.7844 217.976 79.1946 217.976 79.6142C217.976 80.1769 217.723 80.7165 217.273 81.1144C216.823 81.5122 216.213 81.7358 215.576 81.7358Z" fill="#2FF77A"/>
<path d="M293.421 131.404C294.201 131.409 294.97 131.565 295.674 131.861C296.378 132.157 297 132.586 297.496 133.117C297.993 133.649 298.351 134.27 298.546 134.938C298.742 135.605 298.769 136.302 298.627 136.98L308.842 142.856L306.316 149.216L292.023 140.738C290.751 140.451 289.642 139.761 288.907 138.8C288.172 137.839 287.861 136.672 288.033 135.522C288.205 134.371 288.849 133.316 289.842 132.558C290.835 131.799 292.109 131.388 293.421 131.404Z" fill="#8E5658"/>
<path d="M297.059 146.857L304.35 139.415L313.77 143.277L333.021 156.823C335.545 157.084 354.695 159.269 354.343 165.487C354.334 166.214 354.148 166.93 353.797 167.587C353.445 168.244 352.937 168.826 352.307 169.293C349.285 171.499 344.047 170.873 343.851 170.847L331.318 170.293C330.663 170.433 323.86 171.814 320.259 169.837C319.166 169.237 297.059 146.857 297.059 146.857Z" fill="#3F3D56"/>
<path d="M318.085 336.953L312.114 336.952L309.273 316.589H318.085L318.085 336.953Z" fill="#8E5658"/>
<path d="M319.608 342.071L300.354 342.07V341.855C300.354 340.097 301.144 338.412 302.549 337.17C303.954 335.927 305.86 335.229 307.848 335.229L311.365 332.87L317.927 335.229L319.608 335.229L319.608 342.071Z" fill="#01191F"/>
<path d="M383.625 332.821L377.869 334.227L368.998 315.266L377.493 313.192L383.625 332.821Z" fill="#8E5658"/>
<path d="M386.634 337.395L368.075 341.928L368.01 341.72C367.481 340.026 367.734 338.216 368.715 336.687C369.695 335.159 371.322 334.037 373.238 333.569L375.918 330.467L382.954 331.197L384.574 330.801L386.634 337.395Z" fill="#01191F"/>
<path d="M318.348 213.713L363.468 215.748L363.483 215.784C366.186 222.422 366.817 229.581 365.31 236.509L366.691 246.686L373.597 278.438L382.806 319.146C382.806 319.146 394.776 321.996 379.122 326.881C363.468 331.766 366.691 328.916 368.993 325.252C371.295 321.589 357.713 280.27 357.713 280.27L341.138 247.297L325.024 281.491L323.182 319.35C323.182 319.35 328.017 324.438 314.204 326.474C300.392 328.509 301.083 324.642 304.305 321.792C307.528 318.943 310.291 281.084 310.291 281.084L313.514 245.261C313.514 245.261 312.593 224.5 318.348 213.713Z" fill="#01191F"/>
<path d="M362.467 167.205L358.839 158.792L347.157 148.618L332.361 147.592L321.487 156.2L318.412 164.763C322.445 181.273 322.363 196.48 316.648 211.212C316.242 212.231 316.093 213.315 316.209 214.39C316.326 215.465 316.707 216.505 317.325 217.436C317.943 218.367 318.783 219.169 319.787 219.783C320.791 220.398 321.935 220.812 323.138 220.996C339.9 223.486 371.112 227.22 368.962 220.111C366.118 210.708 356.224 190.467 359.889 179.764C361.223 176.045 362.062 172.202 362.39 168.312L362.467 167.205Z" fill="#3F3D56"/>
<path d="M337.271 144.309C344.564 144.309 350.476 139.081 350.476 132.633C350.476 126.185 344.564 120.958 337.271 120.958C329.978 120.958 324.066 126.185 324.066 132.633C324.066 139.081 329.978 144.309 337.271 144.309Z" fill="#8E5658"/>
<path d="M333.668 143.695L343.733 143.241C345.023 143.183 346.431 143.082 347.369 142.298C347.873 141.813 348.261 141.243 348.51 140.622C349.44 138.711 350.371 136.8 351.278 134.88C352.532 132.224 353.764 129.42 353.444 126.555C353.368 125.247 352.748 124.01 351.702 123.083C351.168 122.636 350.482 122.358 349.751 122.293C349.019 122.227 348.284 122.378 347.66 122.721C347.505 121.815 347.119 120.952 346.531 120.198C345.943 119.443 345.169 118.816 344.267 118.365C342.445 117.476 340.365 117.086 338.292 117.245C335.284 117.417 332.412 118.418 330.08 120.107C329.425 120.642 328.724 121.133 327.985 121.575C327.614 121.795 327.195 121.945 326.756 122.017C326.316 122.089 325.865 122.081 325.429 121.993C324.997 121.891 324.621 121.654 324.372 121.326C324.122 120.999 324.015 120.602 324.07 120.21C323.361 120.679 322.875 121.364 322.707 122.132C322.539 122.9 322.7 123.697 323.16 124.366C322.637 124.559 322.067 124.63 321.504 124.571C320.942 124.512 320.406 124.326 319.949 124.03C319.459 124.244 319.026 124.547 318.676 124.919C318.327 125.29 318.069 125.722 317.919 126.187C317.769 126.652 317.73 127.139 317.806 127.618C317.881 128.096 318.069 128.556 318.357 128.967C318.645 129.377 319.026 129.731 319.478 130.003C319.929 130.276 320.439 130.463 320.977 130.551C321.514 130.639 322.066 130.627 322.598 130.516C323.13 130.405 323.63 130.196 324.065 129.904C324.676 130.661 324.449 131.689 324.369 132.616C324.29 133.543 324.571 134.695 325.581 134.951C326.948 135.297 328.054 133.671 329.476 133.688C329.826 133.713 330.164 133.814 330.46 133.983C330.756 134.151 331 134.382 331.17 134.654C331.505 135.2 331.735 135.792 331.849 136.405L333.668 143.645" fill="#01191F"/>
<path d="M266.245 162.272C261.217 162.275 256.296 160.985 252.082 158.56L249.962 157.341L252.475 157.588C253.134 157.653 253.843 157.69 254.583 157.7C257.972 157.702 261.289 156.84 264.137 155.217C262.445 154.893 260.877 154.183 259.59 153.159C258.303 152.135 257.34 150.831 256.798 149.377L256.483 148.519L257.484 148.693C257.938 148.772 258.399 148.818 258.863 148.83C257.277 148.109 255.946 147.016 255.015 145.67C254.084 144.325 253.59 142.78 253.586 141.203V140.294L254.48 140.644C255.011 140.908 255.572 141.119 256.156 141.274C254.776 139.905 253.92 138.188 253.708 136.365C253.495 134.542 253.938 132.706 254.973 131.118L255.41 130.451L255.959 131.049C259.952 135.419 265.675 138.283 271.968 139.062C272.141 139.084 272.317 139.072 272.484 139.028C272.651 138.984 272.805 138.908 272.936 138.806C273.07 138.704 273.177 138.577 273.25 138.434C273.324 138.291 273.362 138.137 273.362 137.98C273.347 136.284 273.904 134.623 274.961 133.208C276.018 131.793 277.527 130.689 279.297 130.036C281.067 129.382 283.017 129.21 284.898 129.54C286.779 129.87 288.506 130.688 289.86 131.889C291.711 131.532 293.487 130.915 295.119 130.063L296.496 129.342L295.994 130.685C295.529 131.932 294.749 133.068 293.713 134.008C294.632 133.796 295.531 133.521 296.401 133.183L298.267 132.458L297.143 133.961C295.952 135.556 294.464 136.961 292.742 138.116V138.883C292.742 150.38 282.851 162.272 266.298 162.272L266.245 162.272Z" fill="#2FF77A"/>
<path d="M278.103 154.086C278.882 154.057 279.658 154.18 280.378 154.446C281.097 154.712 281.742 155.114 282.267 155.623C282.791 156.133 283.183 156.739 283.415 157.397C283.646 158.055 283.712 158.75 283.606 159.433L294.13 164.868L291.954 171.328L277.215 163.468C275.929 163.236 274.784 162.595 273.997 161.666C273.21 160.737 272.836 159.585 272.945 158.428C273.055 157.272 273.64 156.191 274.591 155.39C275.541 154.59 276.791 154.126 278.103 154.086Z" fill="#8E5658"/>
<path d="M290.494 174.365L282.634 166.845L288.082 159.642L293.954 163.999L300.375 165.357L309.434 168.394C310.695 166.444 320.481 151.726 326.812 154.452C327.565 154.744 328.237 155.176 328.783 155.72C329.328 156.264 329.734 156.905 329.973 157.601C331.082 160.924 328.376 164.939 328.273 165.088L322.779 175.063C322.668 175.651 321.436 181.726 317.967 183.879C317.476 184.196 316.917 184.419 316.323 184.535C315.73 184.651 315.116 184.657 314.52 184.552C303.738 182.749 296.14 179.961 292.264 176.414C291.58 175.798 290.986 175.11 290.494 174.365Z" fill="#3F3D56"/>
<path d="M150.688 145.291C149.478 142.991 151.398 140.422 152.083 137.945C153.362 133.323 149.759 128.319 144.876 126.718C139.993 125.116 134.381 126.455 130.186 129.257C126.074 132.005 123.183 133.299 120.35 137.18C119.4 138.482 118.394 142.523 118.215 144.082C118.035 145.641 118.947 147.427 120.61 147.769C120.451 148.047 120.381 148.359 120.408 148.67C120.435 148.981 120.558 149.279 120.763 149.532C120.969 149.786 121.249 149.984 121.573 150.107C121.898 150.229 122.254 150.271 122.603 150.227C125.786 149.683 131.633 151.177 131.633 151.177C137.084 151.453 142.535 151.729 147.986 152.005C149.383 152.076 150.832 152.14 152.087 151.458C152.434 151.278 152.733 151.034 152.964 150.742C153.194 150.451 153.35 150.119 153.422 149.769C153.741 147.943 151.522 146.878 150.688 145.291Z" fill="#01191F"/>
<path d="M154.804 165.422L153.611 172.442L151.72 183.564L151.399 187.685L149.045 217.888L142.562 222.297C138.808 224.85 134.123 226.092 129.399 225.786C124.676 225.479 120.246 223.646 116.954 220.636L109.081 217.285C113.3 213.614 112.516 196.605 112.516 196.605L112.468 163.197L123.14 160.024L126.656 153.905H139.267L142.419 160.409L148.141 162.723L150.748 163.782L154.804 165.422Z" fill="white"/>
<path d="M133.482 150.767C139.371 150.767 144.144 146.547 144.144 141.34C144.144 136.133 139.371 131.913 133.482 131.913C127.593 131.913 122.819 136.133 122.819 141.34C122.819 146.547 127.593 150.767 133.482 150.767Z" fill="#9E616A"/>
<path d="M127.39 138.383C124.573 138.387 121.824 137.62 119.519 136.188L119.443 136.14C119.443 134.936 119.711 133.743 120.232 132.631C120.753 131.518 121.517 130.507 122.48 129.656C123.443 128.804 124.587 128.129 125.845 127.668C127.103 127.207 128.452 126.97 129.814 126.97H134.047C135.4 126.971 136.74 127.209 137.989 127.668C139.238 128.128 140.372 128.801 141.327 129.649C142.282 130.496 143.038 131.502 143.552 132.609C144.067 133.715 144.329 134.9 144.325 136.097C144.316 136.643 144.066 137.164 143.629 137.55C143.192 137.936 142.602 138.156 141.984 138.162L127.633 138.381C127.552 138.382 127.471 138.383 127.39 138.383Z" fill="#01191F"/>
<path d="M158.601 184.803L148.943 184.873L148.233 200.073L140.386 208.567C139.431 208.709 138.54 209.082 137.81 209.644C137.08 210.206 136.539 210.935 136.249 211.752C135.958 212.568 135.928 213.44 136.163 214.27C136.397 215.101 136.887 215.858 137.577 216.457C138.267 217.057 139.132 217.477 140.075 217.67C141.018 217.862 142.004 217.821 142.922 217.55C143.84 217.279 144.655 216.788 145.278 216.133C145.901 215.478 146.307 214.683 146.451 213.837L157.261 200.587L158.601 184.803Z" fill="#9E616A"/>
<path d="M107.676 185.258L97.7751 181.166L86.9642 193L74.938 195.689C74.0755 195.3 73.1083 195.13 72.1432 195.197C71.1781 195.263 70.2527 195.565 69.4691 196.068C68.6856 196.57 68.0744 197.255 67.7032 198.045C67.3319 198.836 67.215 199.701 67.3654 200.547C67.5157 201.392 67.9275 202.185 68.5551 202.836C69.1828 203.488 70.002 203.974 70.9222 204.239C71.8424 204.505 72.8277 204.541 73.7695 204.343C74.7112 204.145 75.5727 203.72 76.2587 203.116L93.8688 198.168L107.676 185.258Z" fill="#9E616A"/>
<path d="M138.817 150.04L142.509 145.968C142.907 145.611 143.167 145.151 143.249 144.655C143.269 144.157 142.738 143.624 142.203 143.78C141.707 143.925 138.846 137.587 138.323 137.589C137.781 137.59 137.604 136.951 137.597 136.472C137.571 134.657 139.24 136.606 139.792 134.857C140.344 133.109 142.494 134.612 144.348 133.831C146.202 133.05 148.72 133.405 149.866 134.911C150.716 136.028 150.684 137.48 150.572 138.822C150.31 141.937 149.78 145.03 148.986 148.074C148.791 148.822 148.501 149.657 147.721 149.995C147.292 150.145 146.83 150.206 146.37 150.173L140.686 150.149" fill="#01191F"/>
<path d="M147.674 132.534C150.576 132.534 152.928 130.454 152.928 127.889C152.928 125.323 150.576 123.243 147.674 123.243C144.772 123.243 142.419 125.323 142.419 127.889C142.419 130.454 144.772 132.534 147.674 132.534Z" fill="#01191F"/>
<path d="M159.491 184.656C158.924 185.53 157.715 185.878 156.612 186.147C155.119 186.514 154.683 186.886 153.191 187.253C152.597 187.402 151.998 187.55 151.399 187.685C150.416 187.919 149.417 188.101 148.409 188.229C147.563 188.336 146.565 188.336 146.013 187.755C145.647 187.256 145.5 186.657 145.598 186.068C145.814 178.932 146.031 171.796 146.25 164.66L146.707 164.8C146.913 164.68 147.127 164.571 147.348 164.475C148.4 164.001 149.567 163.763 150.748 163.782C151.423 163.787 152.094 163.88 152.739 164.056C153.741 164.338 154.661 164.808 155.436 165.436C156.211 166.063 156.822 166.832 157.226 167.689C157.751 168.984 158 170.352 157.962 171.727C157.967 171.936 157.967 172.145 157.973 172.354C158.004 174.138 156.979 175.922 157.011 177.706C156.987 178.208 157.065 178.71 157.242 179.188C157.452 179.662 157.862 180.057 158.02 180.549C158.178 181.037 157.92 181.706 157.347 181.743C157.752 181.705 158.161 181.767 158.528 181.921C158.896 182.076 159.207 182.317 159.429 182.618C159.651 182.92 159.775 183.27 159.785 183.63C159.796 183.989 159.694 184.344 159.491 184.656Z" fill="white"/>
<path d="M112.513 163.237C113.563 163.293 114.587 163.554 115.511 164C116.435 164.446 117.236 165.067 117.857 165.818C118.478 166.569 118.904 167.433 119.104 168.347C119.305 169.26 119.274 170.202 119.016 171.104C118.466 172.611 117.603 174.014 116.47 175.241L112.939 179.587C112.58 179.976 112.305 180.42 112.125 180.896C111.976 181.389 112.035 181.923 111.832 182.4C111.628 182.878 110.973 183.278 110.486 183.004C110.836 183.187 111.123 183.451 111.314 183.769C111.505 184.087 111.594 184.445 111.569 184.804C111.545 185.163 111.408 185.509 111.175 185.804C110.942 186.099 110.621 186.331 110.249 186.475C109.201 186.879 107.997 186.518 106.929 186.157L102.592 184.689C101.05 184.203 99.5466 183.624 98.0934 182.956C97.3427 182.591 96.5414 182.067 96.488 181.311C96.4464 180.723 97.0091 180.271 97.2912 179.737C100.823 173.051 106.017 167.731 112.469 163.197L112.513 163.237Z" fill="white"/>
<path d="M117.587 203.486C117.587 199.747 114.47 196.735 110.572 196.735C105.352 196.514 100.041 196.434 94.6102 196.434H92.9168C87.4959 196.434 82.1651 196.514 76.9545 196.735C73.1167 196.735 70.0004 199.756 70.0004 203.504C69.76 206.472 69.6597 209.431 69.6697 212.363C69.6798 215.296 69.76 218.29 69.9904 221.223C69.9904 224.97 73.1067 228.009 76.9445 228.009C82.4156 228.231 88.0369 228.328 93.7485 228.328C99.46 228.328 105.071 228.24 110.562 228.009C114.41 228.009 117.577 224.97 117.577 221.223C117.797 218.255 117.907 215.296 117.897 212.319C117.887 209.342 117.807 206.401 117.587 203.459L117.587 203.486ZM89.1992 220.558V204.204L102.847 212.372L89.1992 220.558Z" fill="#2FF77A"/>
<path d="M473.125 343.8L0.874858 344C0.643277 343.999 0.421403 343.918 0.257886 343.773C0.0943699 343.628 0.00256348 343.431 0.00256348 343.227C0.00256348 343.022 0.0943699 342.825 0.257886 342.68C0.421403 342.535 0.643277 342.454 0.874858 342.453L473.125 342.253C473.357 342.254 473.579 342.336 473.742 342.481C473.906 342.626 473.998 342.822 473.998 343.027C473.998 343.232 473.906 343.428 473.742 343.573C473.579 343.718 473.357 343.8 473.125 343.8Z" fill="#CACACA"/>
</g>
<defs>
<clipPath id="clip0_17_419">
<rect width="474" height="344" fill="white"/>
</clipPath>
</defs>
</svg>
