<svg width="571" height="363" viewBox="0 0 571 363" fill="none" xmlns="http://www.w3.org/2000/svg">
<g clip-path="url(#clip0_17_127)">
<path d="M447.967 56.6992C447.967 56.6992 435.398 58.1738 434.586 78.4294C433.908 95.3102 432.528 104.717 439.13 108.238C441.487 109.496 444.26 109.604 446.782 108.746L473.714 99.5304C473.714 99.5304 474.117 69.1501 464.792 61.7647C455.466 54.3794 447.967 56.6992 447.967 56.6992Z" fill="#36344E"/>
<path d="M462.813 103.255L449.182 107.92V87.499H461.549L462.813 103.255Z" fill="#8E5658"/>
<path d="M421.144 219.17C420.405 223.848 417.407 227.204 414.451 226.664C411.489 226.123 409.694 221.891 410.433 217.213C410.701 215.338 411.416 213.565 412.509 212.046L415.886 192.267L425.077 194.269L420.772 213.552C421.34 215.376 421.468 217.302 421.144 219.17Z" fill="#8E5658"/>
<path d="M452.352 350.689H439.588L432.18 279.696H451.918L452.352 350.689Z" fill="#8E5658"/>
<path d="M427.154 362.097C425.81 362.097 424.613 362.066 423.715 361.977C420.326 361.653 417.089 359.047 415.465 357.528C414.738 356.848 414.5 355.754 414.879 354.814C415.153 354.14 415.697 353.638 416.375 353.435L425.334 350.772L439.844 340.583L440.009 340.888C440.07 341.003 441.493 343.672 441.97 345.477C442.153 346.164 442.104 346.736 441.829 347.181C441.64 347.486 441.371 347.664 441.157 347.765C441.42 348.051 442.244 348.63 444.779 349.049C448.486 349.659 449.255 345.668 449.292 345.503L449.316 345.369L449.426 345.293C451.185 344.111 452.272 343.577 452.645 343.691C452.877 343.761 453.268 343.888 454.318 354.757C454.422 355.1 455.161 357.598 454.66 359.994C454.117 362.6 443.191 361.703 441.005 361.494C440.944 361.5 432.766 362.104 427.16 362.104H427.154V362.097Z" fill="#36344E"/>
<path d="M481.195 350.689H468.425L461.024 279.696H480.756L481.195 350.689Z" fill="#8E5658"/>
<path d="M455.998 362.097C454.654 362.097 453.457 362.066 452.559 361.977C449.17 361.653 445.933 359.047 444.309 357.528C443.582 356.848 443.344 355.754 443.722 354.814C443.997 354.14 444.541 353.638 445.219 353.435L454.178 350.772L468.688 340.583L468.853 340.888C468.914 341.003 470.337 343.672 470.813 345.477C470.997 346.164 470.948 346.736 470.673 347.181C470.484 347.486 470.215 347.664 470.001 347.765C470.264 348.051 471.088 348.63 473.623 349.049C477.33 349.659 478.099 345.668 478.136 345.503L478.16 345.369L478.27 345.293C480.035 344.111 481.116 343.577 481.488 343.691C481.721 343.761 482.111 343.888 483.162 354.757C483.266 355.1 484.005 357.598 483.504 359.994C482.96 362.6 472.035 361.703 469.848 361.494C469.787 361.5 461.61 362.104 456.004 362.104H455.998V362.097Z" fill="#36344E"/>
<path d="M484.866 176.32H422.836L445.133 99.9498H469.867L484.866 176.32Z" fill="#DFDFE0"/>
<path d="M449.035 99.9562C449.035 99.9562 433.627 99.5368 432.009 103.757C430.391 107.977 411.33 208.404 411.33 208.404H423.899L449.035 99.9626V99.9562Z" fill="#DFDFE0"/>
<path d="M450.868 93.1493C458.369 93.1493 464.45 86.8208 464.45 79.0142C464.45 71.2076 458.369 64.8792 450.868 64.8792C443.366 64.8792 437.285 71.2076 437.285 79.0142C437.285 86.8208 443.366 93.1493 450.868 93.1493Z" fill="#8E5658"/>
<path d="M447.154 61.9745C447.154 61.9745 439.679 93.5624 447.991 108.327L436.284 105.74C436.284 105.74 431.746 71.1712 440.87 64.8854L447.154 61.9745Z" fill="#36344E"/>
<path d="M471.974 176.32H431.264L408.991 271.459C408.582 275.475 411.031 279.225 414.781 280.274C427.001 283.681 456.327 288.505 500.707 275.062C504.976 273.772 507.401 269.082 506.063 264.664L471.974 176.32Z" fill="#36344E"/>
<path d="M455.515 99.9499L468.175 99.3716C473.659 99.8038 478.618 102.905 481.556 107.742C490.503 122.462 507.242 153.484 492.298 157.736C472.597 163.335 463.051 132.161 463.051 132.161L455.515 99.9499Z" fill="#DFDFE0"/>
<path d="M451.173 109.191C448.571 105.301 448.48 100.719 450.959 98.9584C453.445 97.1979 457.567 98.933 460.169 102.823C461.231 104.361 461.903 106.153 462.135 108.034L472.951 124.674L465.018 129.904L455.197 112.947C453.567 112.051 452.187 110.761 451.173 109.191Z" fill="#8E5658"/>
<path d="M457.573 122.646L466.508 114.091L484.176 131.207L467.748 142.895L457.573 122.646Z" fill="#DFDFE0"/>
<path d="M19.7931 80.4823H300.267C311.199 80.4823 320.06 89.7044 320.06 101.081C320.06 112.458 311.199 121.68 300.267 121.68H19.7931C8.86138 121.68 0 112.458 0 101.081C0 89.7044 8.86138 80.4823 19.7931 80.4823Z" fill="#2FF77A"/>
<path d="M124.163 362.244C124.163 362.663 124.487 363 124.89 363H570.273C570.676 363 571 362.663 571 362.244C571 361.824 570.676 361.487 570.273 361.487H124.89C124.487 361.487 124.163 361.824 124.163 362.244Z" fill="#484565"/>
<path d="M259.319 59.7119H317.55C318.942 59.7119 320.066 60.8814 320.066 62.3241C320.066 63.7669 318.942 64.9363 317.55 64.9363H259.319C257.927 64.9363 256.803 63.7669 256.803 62.3241C256.803 60.8814 257.927 59.7119 259.319 59.7119Z" fill="#DFDFE0"/>
<path d="M2.51612 0H60.7472C62.1396 0 63.2633 1.16945 63.2633 2.6122C63.2633 4.05494 62.1396 5.22439 60.7472 5.22439H2.51612C1.1237 5.23075 0 4.0613 0 2.6122C0 1.16945 1.1237 0 2.51612 0Z" fill="#DFDFE0"/>
<path d="M2.51612 22.8234H173.435C174.827 22.8234 175.951 23.9928 175.951 25.4419C175.951 26.8847 174.827 28.0541 173.435 28.0541H2.51612C1.1237 28.0541 0 26.8847 0 25.4419C0 23.9992 1.1237 22.8234 2.51612 22.8234Z" fill="#DFDFE0"/>
<path d="M142.765 165.808C142.765 179.511 153.44 190.621 166.607 190.621C170.595 190.621 174.351 189.604 177.649 187.805L200.752 225.939C202.169 228.272 205.192 228.856 207.317 227.204C209.302 225.66 209.729 222.749 208.282 220.651L182.87 183.947C187.53 179.415 190.449 172.964 190.449 165.808C190.449 152.105 179.774 140.995 166.607 140.995C153.44 140.995 142.765 152.105 142.765 165.808ZM146.039 165.808C146.039 153.986 155.248 144.395 166.613 144.395C177.979 144.395 187.188 153.98 187.188 165.808C187.188 177.629 177.979 187.22 166.613 187.22C155.254 187.22 146.039 177.636 146.039 165.808Z" fill="#484662"/>
</g>
<defs>
<clipPath id="clip0_17_127">
<rect width="571" height="363" fill="white"/>
</clipPath>
</defs>
</svg>
