<svg width="641" height="357" viewBox="0 0 641 357" fill="none" xmlns="http://www.w3.org/2000/svg">
<g clip-path="url(#clip0_17_917)">
<path d="M59.3308 278.874C58.8225 278.896 58.3194 278.767 57.8895 278.504C57.4596 278.241 57.1238 277.857 56.9275 277.404C56.7312 276.95 56.6839 276.449 56.7922 275.969C56.9004 275.488 57.1588 275.052 57.5324 274.718C57.595 274.478 57.6398 274.305 57.7024 274.065C57.68 274.013 57.6575 273.96 57.6348 273.908C57.1228 272.74 56.2648 271.743 55.1686 271.044C54.0724 270.346 52.7869 269.975 51.4736 269.98C50.1602 269.985 48.8776 270.364 47.7868 271.071C46.696 271.778 45.8457 272.78 45.3427 273.952C43.3322 278.631 40.7725 283.317 40.1423 288.264C39.8647 290.45 39.9818 292.667 40.4884 294.815C35.7664 284.862 33.3144 274.045 33.2986 263.097C33.2976 260.35 33.4556 257.605 33.7718 254.875C34.0331 252.636 34.3957 250.414 34.8595 248.208C37.3904 236.236 42.8243 225.015 50.715 215.467C54.5341 213.453 57.6226 210.357 59.5644 206.596C60.2679 205.244 60.7651 203.8 61.0405 202.31C60.6097 202.365 60.1719 202.399 59.7411 202.426C59.6068 202.433 59.4656 202.44 59.3314 202.447L59.2808 202.449C58.8073 202.47 58.3378 202.357 57.9287 202.126C57.5197 201.895 57.1885 201.554 56.9752 201.145C56.7618 200.736 56.6753 200.277 56.7262 199.821C56.777 199.366 56.9629 198.935 57.2616 198.579C57.4476 198.358 57.6337 198.137 57.8199 197.916C58.1025 197.575 58.392 197.24 58.6745 196.899C58.7071 196.867 58.7378 196.833 58.7663 196.797C59.0913 196.408 59.4161 196.026 59.741 195.637C59.148 194.747 58.3503 194.002 57.4103 193.46C54.1545 191.617 49.6626 192.893 47.3108 195.739C44.9519 198.585 44.5069 202.577 45.3261 206.132C46.1318 209.157 47.4645 212.028 49.2671 214.621C49.0905 214.839 48.9069 215.051 48.7303 215.269C45.5027 219.279 42.6896 223.585 40.3313 228.125C40.9048 223.039 40.2203 217.894 38.3342 213.113C36.4226 208.657 32.8396 204.904 29.6843 201.053C25.8943 196.426 18.1225 198.445 17.4548 204.31C17.4484 204.367 17.442 204.424 17.4359 204.48C17.9045 204.736 18.3633 205.007 18.8122 205.294C19.3761 205.658 19.813 206.178 20.0657 206.786C20.3185 207.394 20.3752 208.062 20.2285 208.701C20.0818 209.341 19.7385 209.923 19.2437 210.371C18.7488 210.819 18.1254 211.112 17.4551 211.212L17.3865 211.222C17.5534 212.854 17.8486 214.472 18.2693 216.06C19.4884 220.496 21.6427 224.64 24.5972 228.233C27.5517 231.826 31.2426 234.791 35.4385 236.941C35.7139 237.078 35.9824 237.214 36.2578 237.344C33.8884 243.832 32.4022 250.589 31.8366 257.447C31.5163 261.493 31.5352 265.557 31.8931 269.6L31.8719 269.457C30.9678 264.961 28.4856 260.905 24.8446 257.973C19.4367 253.68 11.7963 252.1 5.96211 248.65C5.34208 248.265 4.62113 248.06 3.88431 248.058C3.14748 248.056 2.42551 248.258 1.80354 248.64C1.18157 249.022 0.685553 249.567 0.373984 250.212C0.0624151 250.857 -0.0517126 251.575 0.0450698 252.281C0.0528944 252.331 0.0608502 252.381 0.0689312 252.432C0.938631 252.774 1.78543 253.168 2.60439 253.612C3.07306 253.868 3.53182 254.139 3.98068 254.425C4.54458 254.79 4.98151 255.31 5.23424 255.918C5.48697 256.526 5.54371 257.193 5.39702 257.833C5.25033 258.473 4.90705 259.055 4.41217 259.503C3.91729 259.951 3.29388 260.244 2.62362 260.344L2.55494 260.354C2.50549 260.361 2.46313 260.368 2.41376 260.375C3.89977 263.803 5.98542 266.958 8.57938 269.703C11.7838 273.025 15.6568 275.68 19.9608 277.504C24.2649 279.329 28.9093 280.285 33.6093 280.314H33.6164C34.8922 285.671 36.7408 290.885 39.1323 295.872H58.837C58.9077 295.661 58.9712 295.442 59.0348 295.231C57.2109 295.342 55.3798 295.236 53.5824 294.917C55.0444 293.184 56.5063 291.437 57.9683 289.703C58.0009 289.671 58.0315 289.637 58.0601 289.601C58.8017 288.714 59.5503 287.834 60.2919 286.947L60.2923 286.946C60.3318 284.226 60.0083 281.513 59.3308 278.874Z" fill="#F2F2F2"/>
<path d="M302.012 296.129C302.012 296.233 301.991 296.336 301.95 296.432C301.909 296.528 301.849 296.615 301.773 296.689C301.697 296.762 301.607 296.82 301.507 296.86C301.408 296.899 301.302 296.919 301.194 296.919H0.875367C0.658616 296.919 0.45074 296.836 0.297474 296.688C0.144208 296.54 0.0581055 296.339 0.0581055 296.129C0.0581055 295.92 0.144208 295.719 0.297474 295.571C0.45074 295.423 0.658616 295.34 0.875367 295.34H301.194C301.302 295.34 301.408 295.36 301.507 295.399C301.607 295.439 301.697 295.497 301.773 295.57C301.849 295.644 301.909 295.731 301.95 295.827C301.991 295.923 302.012 296.026 302.012 296.129Z" fill="#CCCCCC"/>
<path d="M141.727 191.972C142.426 192.198 143.065 192.569 143.599 193.059C144.134 193.55 144.55 194.147 144.82 194.81C145.09 195.473 145.206 196.184 145.16 196.895C145.114 197.606 144.907 198.298 144.554 198.923L151.784 207.589L147.405 213.119L137.373 200.742C136.326 200.1 135.558 199.108 135.216 197.956C134.874 196.803 134.982 195.57 135.518 194.489C136.055 193.408 136.983 192.555 138.128 192.091C139.272 191.627 140.552 191.585 141.727 191.972Z" fill="#A0616A"/>
<path d="M144.959 215.576L140.876 205.762L148.429 200.58L151.96 206.693L157.115 210.091L163.963 215.967C165.819 214.494 180.062 203.466 184.619 208.154C185.172 208.681 185.602 209.317 185.877 210.019C186.152 210.721 186.267 211.472 186.213 212.221C185.929 215.79 182.011 218.786 181.863 218.897L173.216 226.741C172.894 227.273 169.495 232.737 165.611 233.688C165.057 233.835 164.478 233.869 163.909 233.788C163.341 233.707 162.797 233.513 162.31 233.218C153.471 227.974 147.819 222.814 145.743 218.13C145.374 217.313 145.11 216.456 144.959 215.576Z" fill="#2F2E41"/>
<path d="M140.679 344.016L134.029 344.316L129.665 319.674L139.481 319.231L140.679 344.016Z" fill="#A0616A"/>
<path d="M144.245 356.083L139.525 356.296L138.475 352.029L136.526 356.431L124.009 356.997C123.409 357.024 122.816 356.865 122.316 356.544C121.816 356.222 121.436 355.754 121.231 355.209C121.025 354.664 121.006 354.069 121.175 353.512C121.344 352.955 121.693 352.465 122.171 352.114L131.843 344.992L131.633 340.64L142.175 340.772L144.245 356.083Z" fill="#2F2E41"/>
<path d="M71.2424 291.106L68.8195 285.115L91.5867 273.234L103.087 280.219L71.2424 291.106Z" fill="#A0616A"/>
<path d="M60.5518 298.232L58.8324 293.98L62.6799 291.653L57.7395 291.278L53.1793 280.002C52.9607 279.461 52.9266 278.867 53.0821 278.307C53.2375 277.746 53.5743 277.249 54.0433 276.886C54.5124 276.524 55.089 276.315 55.6892 276.292C56.2893 276.269 56.8814 276.431 57.3792 276.756L67.4574 283.331L71.6574 281.745L74.9027 291.438L60.5518 298.232Z" fill="#2F2E41"/>
<path d="M202.033 273.274C202.033 273.274 199.271 290.311 186.214 291.572C173.158 292.834 161.123 287.15 161.123 287.15L124.564 276.272C124.564 276.272 85.6787 286.947 79.1503 288.629C79.1503 288.629 74.6474 278.754 74.7981 278.116C76.1866 272.247 77.9955 276.217 77.9955 276.217L119.341 258.556C119.341 258.556 125.87 256.874 137.185 261.5C148.501 266.125 178.816 277.275 178.816 277.275L202.033 273.274Z" fill="#2F2E41"/>
<path d="M201.882 272.229C201.882 272.229 204.06 292.639 191.341 295.757C179.251 298.721 162.574 295.681 162.574 295.681L142.692 293.675C142.692 293.675 141.822 318.357 141.822 330.552C137.783 331.082 133.712 331.363 129.636 331.393C128.765 331.393 128.708 330.952 128.708 330.952L127.022 288.294C126.904 286.44 127.189 284.581 127.858 282.84C128.528 281.098 129.568 279.511 130.91 278.18C132.253 276.85 133.869 275.806 135.655 275.116C137.44 274.425 139.356 274.104 141.278 274.171C142.216 274.206 143.201 274.27 144.231 274.364C156.462 275.497 171.646 273.088 171.646 273.088L201.882 272.229Z" fill="#2F2E41"/>
<path d="M166.604 242.621C166.604 242.621 161.441 272.789 164.93 275.198C168.42 277.606 173.205 277.615 173.205 277.615L174.318 260.958L166.604 242.621Z" fill="#2F2E41"/>
<path d="M175.216 205.569L168.312 211.908C165.103 214.854 162.976 218.73 162.254 222.95C161.531 227.169 162.253 231.502 164.308 235.289L167.609 241.37L175.216 205.569Z" fill="#2F2E41"/>
<path d="M176.76 206.635L167.405 216.93C165.352 219.189 164.08 222.011 163.766 225.003C163.623 226.361 163.681 227.732 163.936 229.075L167.462 247.591L170.111 274.332C170.111 274.332 190.568 280.32 192.662 271.073C194.756 261.825 176.76 206.635 176.76 206.635Z" fill="#6C63FF"/>
<path d="M171.426 265.582L168.435 258.935L165.897 241.607C165.759 240.599 168.599 224.102 172.712 206.402L177.71 199.642L180.593 197.088L188.805 202.29C191.767 203.804 198.245 223.566 194.258 237.551C192.886 242.361 195.284 248.35 195.653 252.771L201.345 266.283L202.693 274.098L202.487 274.174C202.282 274.25 198.988 274.68 185.54 276.845C174.398 278.639 180.5 269.812 171.426 265.582Z" fill="#2F2E41"/>
<path d="M145.103 258.321C145.512 257.728 146.05 257.229 146.68 256.86C147.31 256.49 148.016 256.258 148.749 256.18C149.481 256.102 150.223 256.181 150.92 256.41C151.618 256.639 152.255 257.013 152.787 257.506L163.338 253.037L167.713 258.569L152.721 264.678C151.805 265.487 150.614 265.943 149.373 265.959C148.133 265.976 146.929 265.553 145.99 264.769C145.051 263.985 144.442 262.896 144.278 261.707C144.115 260.519 144.409 259.314 145.103 258.321Z" fill="#A0616A"/>
<path d="M169.526 261.494L158.654 262.729L155.458 254.328L162.489 252.638L167.234 248.722L174.898 243.877C173.913 241.76 166.632 225.589 172.509 222.569C173.18 222.191 173.928 221.958 174.701 221.885C175.474 221.812 176.255 221.902 176.989 222.149C180.479 223.349 182.445 227.788 182.516 227.955L188.085 238.074C188.531 238.514 193.098 243.115 193.03 246.986C193.031 247.541 192.914 248.09 192.684 248.598C192.454 249.107 192.118 249.564 191.696 249.94C184.14 256.808 177.505 260.724 172.283 261.432C171.37 261.563 170.444 261.583 169.526 261.494Z" fill="#2F2E41"/>
<path d="M176.591 196.237C183.777 195.405 188.889 188.977 188.009 181.879C187.128 174.781 180.589 169.701 173.403 170.533C166.217 171.365 161.105 177.794 161.985 184.892C162.865 191.99 169.404 197.069 176.591 196.237Z" fill="#A0616A"/>
<path d="M209.124 173.781C206.603 171.545 205.141 168.36 203.022 165.735C200.903 163.11 197.512 160.934 194.344 161.968C192.159 162.682 190.664 164.793 190.052 167.024C189.439 169.255 189.566 171.623 189.698 173.942C189.166 169.207 185.373 164.996 180.744 164.001C178.399 163.557 175.968 163.842 173.802 164.817C171.636 165.792 169.845 167.406 168.689 169.427C167.336 168.477 165.669 168.04 164.004 168.199C162.34 168.357 160.794 169.101 159.658 170.287C158.575 171.577 157.975 173.184 157.958 174.846C157.941 176.507 158.506 178.125 159.562 179.436C160.65 180.668 162.166 181.473 163.825 181.701C165.483 181.929 167.171 181.564 168.571 180.675L169.716 181.472C169.571 182.483 169.797 183.511 170.357 184.377C170.916 185.243 171.773 185.891 172.777 186.208C174.386 186.63 176.54 186.279 177.307 187.769C177.844 188.81 177.237 190.057 176.543 190.985C175.849 191.913 175.008 192.886 175.056 194.053C175.128 195.814 177.145 196.821 178.887 196.992C181.016 197.153 183.147 196.697 185.006 195.681C186.865 194.665 188.368 193.137 189.323 191.291C189.36 191.218 189.401 191.145 189.446 191.071C190.566 189.284 191.297 187.295 191.595 185.225C191.892 183.156 191.75 181.05 191.176 179.035C190.944 178.244 191.003 177.629 191.555 177.372C193.938 176.259 201.118 177.184 203.42 178.505C205.723 179.826 207.668 181.702 209.905 183.133C212.142 184.564 214.889 185.55 217.411 184.798C218.419 184.438 219.342 183.886 220.125 183.175C220.909 182.464 221.537 181.609 221.972 180.66C222.862 178.723 223.452 176.67 223.723 174.567C221.558 176.055 218.934 176.788 216.281 176.646C213.628 176.503 211.104 175.493 209.124 173.781Z" fill="#2F2E41"/>
<path d="M211.106 258.024L211.099 258.016L211.106 258.033V258.024Z" fill="#2F2E41"/>
<path d="M125.859 197.572C120.22 198.408 114.451 197.609 109.282 195.277C104.113 192.944 99.7758 189.184 96.8189 184.47C93.862 179.756 92.4183 174.301 92.6702 168.794C92.9222 163.287 94.8586 157.977 98.2344 153.533C101.61 149.09 106.274 145.713 111.636 143.831C116.998 141.949 122.817 141.645 128.358 142.958C133.898 144.271 138.912 147.142 142.764 151.208C146.615 155.274 149.133 160.352 149.998 165.8C150.572 169.418 150.403 173.109 149.501 176.664C148.598 180.218 146.98 183.566 144.739 186.517C142.497 189.467 139.676 191.962 136.437 193.859C133.197 195.755 129.603 197.017 125.859 197.572ZM117.322 143.789C111.952 144.585 106.946 146.902 102.939 150.446C98.9308 153.991 96.1008 158.604 94.8065 163.702C93.5122 168.8 93.8117 174.155 95.6672 179.089C97.5227 184.023 100.851 188.315 105.231 191.421C109.61 194.528 114.845 196.309 120.273 196.541C125.701 196.773 131.078 195.444 135.725 192.724C140.371 190.003 144.078 186.012 146.377 181.255C148.676 176.499 149.464 171.19 148.64 166.001C148.093 162.556 146.849 159.249 144.98 156.268C143.11 153.287 140.651 150.691 137.742 148.629C134.834 146.566 131.534 145.077 128.031 144.247C124.527 143.416 120.888 143.261 117.322 143.789Z" fill="#2FF77A"/>
<path d="M227.207 91.9283C221.568 92.7638 215.8 91.965 210.63 89.6328C205.461 87.3005 201.124 83.5397 198.167 78.8258C195.21 74.112 193.767 68.6568 194.019 63.1502C194.271 57.6435 196.207 52.3327 199.583 47.8894C202.959 43.446 207.622 40.0696 212.984 38.1872C218.346 36.3048 224.166 36.001 229.706 37.314C235.247 38.6271 240.26 41.4981 244.112 45.564C247.964 49.63 250.481 54.7082 251.346 60.1565C251.92 63.7741 251.751 67.4655 250.849 71.02C249.947 74.5745 248.329 77.9224 246.087 80.8727C243.846 83.823 241.025 86.3178 237.785 88.2147C234.546 90.1117 230.951 91.3735 227.207 91.9283ZM218.671 38.1455C213.3 38.9413 208.295 41.2578 204.287 44.8023C200.279 48.3467 197.449 52.9598 196.155 58.0582C194.861 63.1566 195.16 68.5114 197.016 73.4454C198.871 78.3793 202.199 82.6708 206.579 85.7773C210.959 88.8837 216.194 90.6655 221.622 90.8973C227.05 91.1292 232.427 89.8007 237.073 87.0798C241.72 84.3589 245.427 80.3679 247.726 75.6114C250.025 70.8549 250.812 65.5466 249.988 60.3577C248.884 53.3996 244.964 47.1504 239.091 42.9848C233.218 38.8192 225.872 37.0785 218.671 38.1455Z" fill="#2FF77A"/>
<path d="M344.093 155.066C338.454 155.902 332.685 155.103 327.516 152.771C322.347 150.439 318.01 146.678 315.053 141.964C312.096 137.25 310.652 131.795 310.904 126.288C311.156 120.782 313.093 115.471 316.469 111.028C319.844 106.584 324.508 103.208 329.87 101.325C335.232 99.443 341.051 99.1391 346.592 100.452C352.133 101.765 357.146 104.636 360.998 108.702C364.85 112.768 367.367 117.846 368.232 123.295C368.806 126.912 368.637 130.604 367.735 134.158C366.832 137.713 365.214 141.061 362.973 144.011C360.731 146.961 357.91 149.456 354.671 151.353C351.432 153.25 347.837 154.512 344.093 155.066ZM335.557 101.284C330.186 102.079 325.18 104.396 321.173 107.94C317.165 111.485 314.335 116.098 313.041 121.196C311.746 126.295 312.046 131.65 313.901 136.584C315.757 141.518 319.085 145.809 323.465 148.915C327.845 152.022 333.08 153.804 338.507 154.036C343.935 154.267 349.313 152.939 353.959 150.218C358.606 147.497 362.313 143.506 364.611 138.75C366.91 133.993 367.698 128.685 366.874 123.496C365.77 116.538 361.85 110.289 355.977 106.123C350.103 101.957 342.758 100.217 335.557 101.284Z" fill="#2FF77A"/>
<path d="M482.658 55.4205C477.019 56.256 471.25 55.4572 466.081 53.125C460.912 50.7927 456.575 47.0319 453.618 42.318C450.661 37.6042 449.218 32.149 449.47 26.6424C449.722 21.1357 451.658 15.8249 455.034 11.3815C458.41 6.93818 463.073 3.56182 468.435 1.67943C473.797 -0.202965 479.616 -0.506845 485.157 0.806213C490.698 2.11927 495.711 4.99029 499.563 9.05622C503.415 13.1222 505.932 18.2004 506.797 23.6487C507.371 27.2663 507.202 30.9577 506.3 34.5122C505.398 38.0667 503.779 41.4146 501.538 44.3649C499.296 47.3152 496.476 49.81 493.236 51.7069C489.997 53.6039 486.402 54.8657 482.658 55.4205ZM474.122 1.63773C468.751 2.43348 463.746 4.75004 459.738 8.29447C455.73 11.8389 452.9 16.452 451.606 21.5504C450.312 26.6489 450.611 32.0036 452.467 36.9376C454.322 41.8715 457.65 46.163 462.03 49.2695C466.41 52.3759 471.645 54.1577 477.073 54.3895C482.501 54.6214 487.878 53.2929 492.524 50.572C497.171 47.8511 500.878 43.8601 503.177 39.1036C505.475 34.3471 506.263 29.0388 505.439 23.8499C504.335 16.8918 500.415 10.6426 494.542 6.47699C488.669 2.3114 481.323 0.570675 474.122 1.63773Z" fill="#2FF77A"/>
<path d="M614.005 103.761C608.366 104.597 602.598 103.798 597.429 101.466C592.259 99.1336 587.922 95.3727 584.965 90.6589C582.009 85.945 580.565 80.4898 580.817 74.9832C581.069 69.4765 583.005 64.1657 586.381 59.7223C589.757 55.279 594.421 51.9026 599.782 50.0202C605.144 48.1379 610.964 47.834 616.504 49.147C622.045 50.4601 627.058 53.3311 630.91 57.3971C634.762 61.463 637.279 66.5412 638.144 71.9895C639.304 79.2955 637.412 86.7474 632.885 92.7057C628.358 98.6641 621.567 102.641 614.005 103.761ZM605.469 49.9785C600.098 50.7743 595.093 53.0909 591.085 56.6353C587.077 60.1797 584.247 64.7928 582.953 69.8912C581.659 74.9897 581.958 80.3444 583.814 85.2784C585.669 90.2123 588.997 94.5038 593.377 97.6103C597.757 100.717 602.992 102.499 608.42 102.73C613.848 102.962 619.225 101.634 623.871 98.9128C628.518 96.1919 632.225 92.2009 634.524 87.4444C636.823 82.6879 637.61 77.3796 636.787 72.1907C635.682 65.2326 631.762 58.9834 625.889 54.8178C620.016 50.6522 612.67 48.9115 605.469 49.9785Z" fill="#2FF77A"/>
<path d="M237.93 54.4227L241.22 53.2639C241.22 53.2639 238.858 56.769 238.346 57.0462C238.399 57.7087 238.504 58.3664 238.658 59.0139C236.431 87.0021 210.505 78.6256 210.505 78.6256C219.293 77.5248 219.488 73.938 219.488 73.938C214.282 73.9709 212.754 70.9079 212.754 70.9079C213.248 71.073 213.787 71.0564 214.269 70.8611C214.751 70.6658 215.141 70.3057 215.365 69.8497C209.648 69.287 209.572 63.9949 209.572 63.9949C210.661 64.5333 211.874 64.7927 213.097 64.7482C212.371 64.1173 206.265 58.9131 208.898 55.3678C208.898 55.3678 213.74 61.3634 223.813 60.4751L224.471 60.2433C224.281 59.788 224.158 59.309 224.106 58.8205C223.816 56.994 224.289 55.131 225.421 53.6414C226.553 52.1518 228.25 51.1576 230.141 50.8775C234.893 50.1734 236.327 52.6461 236.327 52.6461L239.409 50.1755C239.341 50.1856 239.523 53.5153 237.93 54.4227Z" fill="#2FF77A"/>
<path d="M345.323 112.741C347.223 112.465 349.159 112.927 350.708 114.025C352.257 115.124 353.293 116.77 353.59 118.604L355.788 132.453C356.073 134.289 355.595 136.159 354.458 137.656C353.321 139.152 351.618 140.153 349.719 140.44L335.386 142.564C333.486 142.84 331.55 142.378 330.001 141.28C328.452 140.181 327.416 138.535 327.119 136.701L324.921 122.852C324.636 121.016 325.113 119.146 326.25 117.649C327.387 116.153 329.091 115.152 330.99 114.865L345.323 112.741ZM344.883 109.971L330.55 112.095C327.892 112.497 325.507 113.898 323.915 115.993C322.324 118.088 321.655 120.707 322.055 123.277L324.253 137.126C324.668 139.694 326.119 141.998 328.287 143.536C330.455 145.074 333.166 145.72 335.826 145.334L350.159 143.21C352.817 142.809 355.202 141.407 356.794 139.312C358.385 137.217 359.054 134.598 358.654 132.028L356.456 118.179C356.041 115.612 354.59 113.307 352.422 111.769C350.254 110.231 347.543 109.585 344.883 109.971Z" fill="#2FF77A"/>
<path d="M348.572 119.348C348.004 119.431 347.424 119.292 346.961 118.962C346.498 118.633 346.189 118.139 346.103 117.59C346.016 117.04 346.159 116.48 346.5 116.032C346.84 115.585 347.351 115.286 347.92 115.202C348.488 115.118 349.068 115.255 349.532 115.584C349.996 115.912 350.305 116.405 350.393 116.955C350.481 117.504 350.339 118.064 350 118.513C349.66 118.961 349.15 119.261 348.581 119.346L348.572 119.348Z" fill="#2FF77A"/>
<path d="M339.475 122.112C340.609 121.944 341.769 122.105 342.809 122.574C343.848 123.043 344.721 123.799 345.315 124.747C345.91 125.695 346.2 126.793 346.15 127.9C346.099 129.007 345.71 130.075 345.031 130.969C344.352 131.863 343.414 132.542 342.336 132.92C341.257 133.299 340.087 133.36 338.973 133.096C337.858 132.832 336.85 132.254 336.075 131.437C335.301 130.619 334.795 129.598 334.621 128.502C334.505 127.774 334.539 127.032 334.721 126.317C334.902 125.602 335.228 124.929 335.678 124.336C336.129 123.742 336.696 123.241 337.348 122.859C337.999 122.478 338.722 122.224 339.475 122.112ZM339.036 119.343C337.335 119.595 335.749 120.329 334.48 121.451C333.21 122.574 332.314 124.035 331.904 125.65C331.494 127.265 331.589 128.961 332.177 130.523C332.764 132.086 333.818 133.445 335.206 134.429C336.593 135.413 338.251 135.978 339.97 136.051C341.689 136.124 343.393 135.704 344.864 134.842C346.336 133.98 347.51 132.716 348.238 131.209C348.966 129.703 349.216 128.022 348.955 126.378C348.605 124.174 347.363 122.195 345.503 120.876C343.643 119.556 341.317 119.005 339.036 119.343Z" fill="#2FF77A"/>
<path d="M607.8 58.2251C603.507 58.8616 599.571 60.906 596.654 64.015C593.737 67.124 592.016 71.1083 591.78 75.2985C591.545 79.4888 592.808 83.6298 595.36 87.026C597.911 90.4222 601.594 92.8668 605.79 93.9491C605.491 92.5713 605.379 91.1616 605.458 89.7558C605.584 88.235 606.299 79.5531 606.299 79.5531C605.747 78.7142 605.388 77.7712 605.245 76.7873C604.82 74.11 606.105 71.8726 608.108 71.5758C609.811 71.3235 610.824 72.4361 611.059 73.9119C611.321 75.5651 610.619 78.1948 610.424 80.5679C610.379 81.0087 610.443 81.4534 610.61 81.8659C610.776 82.2785 611.041 82.6475 611.382 82.9432C611.723 83.2388 612.132 83.4529 612.574 83.568C613.017 83.6831 613.481 83.6961 613.93 83.6059C617.469 83.0815 619.158 78.3327 618.331 73.1232C617.703 69.1636 614.47 66.6133 609.454 67.3565C603.787 68.1963 600.897 72.8093 601.621 77.3737C601.77 78.669 602.41 79.8652 603.419 80.7309C603.587 80.8279 603.719 80.9739 603.795 81.1479C603.872 81.322 603.89 81.5151 603.846 81.6994C603.806 82.0437 603.733 82.8717 603.692 83.2079C603.692 83.3078 603.666 83.4061 603.619 83.4948C603.571 83.5834 603.502 83.6597 603.418 83.7174C603.333 83.7751 603.236 83.8125 603.133 83.8266C603.031 83.8406 602.927 83.8308 602.829 83.798C600.053 83.1529 598.396 80.5754 597.902 77.4626C597.088 72.3336 600.594 65.5164 609.474 64.2005C616.611 63.1431 622.102 67.4387 622.952 72.7934C624.077 79.882 620.835 85.777 614.826 86.6674C612.806 86.9667 610.744 86.191 609.903 85.094C609.903 85.094 609.479 89.4159 609.373 90.257C609.159 91.6912 608.733 93.0884 608.109 94.4062C610.797 94.759 613.532 94.5492 616.129 93.791C618.726 93.0328 621.123 91.7438 623.159 90.0117C625.195 88.2795 626.821 86.1445 627.928 83.7517C629.035 81.3588 629.596 78.7639 629.573 76.143C629.551 73.5222 628.946 70.9366 627.798 68.5617C626.65 66.1869 624.988 64.0782 622.923 62.3788C620.857 60.6793 618.438 59.4289 615.829 58.7122C613.22 57.9956 610.481 57.8294 607.8 58.2251Z" fill="#2FF77A"/>
<path d="M493.113 14.5774L467.931 10.9923C467.283 10.8688 466.612 10.9989 466.064 11.3539C465.516 11.7089 465.136 12.2597 465.008 12.8851L465.006 12.8957L461.287 37.2803C461.205 37.9388 461.386 38.6029 461.795 39.1359C462.204 39.6688 462.808 40.0302 463.485 40.1456L488.659 43.7296C489.325 43.7988 489.993 43.6116 490.517 43.2085C491.042 42.8054 491.381 42.2189 491.461 41.576L495.179 17.1914C495.28 16.6002 495.134 15.9945 494.772 15.5077C494.411 15.0208 493.864 14.6927 493.252 14.5954C493.206 14.588 493.159 14.582 493.113 14.5774ZM470.999 36.2575L466.677 35.6421L468.657 22.6565L472.98 23.2719L470.999 36.2575ZM471.269 21.0111L471.238 21.0067C470.617 20.9143 470.059 20.5877 469.686 20.0985C469.314 19.6093 469.157 18.9973 469.251 18.3967C469.344 17.7961 469.68 17.2558 470.186 16.8943C470.691 16.5327 471.324 16.3794 471.945 16.4678C472.567 16.5563 473.128 16.8793 473.503 17.3662C473.879 17.853 474.04 18.4639 473.951 19.0651C473.861 19.6663 473.529 20.2087 473.026 20.5735C472.523 20.9382 471.892 21.0956 471.269 21.0111ZM486.797 38.5067L482.475 37.8912L483.558 30.791C483.817 29.0899 483.365 27.8382 481.801 27.6155C481.312 27.5496 480.813 27.6321 480.374 27.8517C479.934 28.0713 479.577 28.4172 479.35 28.8415C479.184 29.1551 479.08 29.4957 479.044 29.8458L477.916 37.2422L473.593 36.6268L475.573 23.6412L479.896 24.2566L479.62 26.0637C480.114 25.462 480.767 24.9999 481.51 24.7261C482.252 24.4523 483.057 24.3769 483.841 24.5077C486.678 24.9116 488.549 27.0244 487.955 30.9204L486.797 38.5067Z" fill="#2FF77A"/>
<path fill-rule="evenodd" clip-rule="evenodd" d="M140.142 167.371C139.595 163.93 138.039 160.713 135.659 158.099C133.278 155.486 130.172 153.586 126.708 152.625C123.245 151.664 119.569 151.683 116.116 152.677C112.663 153.672 109.577 155.602 107.224 158.239C104.871 160.876 103.349 164.109 102.838 167.555C102.328 171.001 102.85 174.517 104.343 177.686C105.836 180.854 108.238 183.543 111.263 185.434C114.289 187.325 117.812 188.338 121.415 188.355L119.418 175.772L114.684 176.473L113.858 171.266L118.592 170.565L117.962 166.596C117.246 162.084 119.633 159.177 123.89 158.546C125.291 158.358 126.704 158.269 128.118 158.28L128.822 162.712L126.47 163.06C124.156 163.403 123.653 164.898 123.879 166.324L124.415 169.703L129.584 168.937L129.585 174.266L125.242 174.91L127.239 187.494C131.517 186.173 135.167 183.421 137.532 179.732C139.898 176.044 140.823 171.661 140.142 167.371Z" fill="#2FF77A"/>
<path d="M487.941 283.636L494.838 285.386L505.106 260.515L494.926 257.933L487.941 283.636Z" fill="#FFB6B6"/>
<path d="M485.809 290.526L507.018 295.907L507.088 295.648C507.663 293.533 507.345 291.283 506.203 289.395C505.062 287.506 503.19 286.133 501.001 285.577L497.898 281.754L489.898 282.76L488.047 282.291L485.809 290.526Z" fill="#2F2E41"/>
<path d="M523.298 288.621H530.428L533.82 262.046L523.296 262.047L523.298 288.621Z" fill="#FFB6B6"/>
<path d="M523.046 295.809L544.974 295.808V295.54C544.974 293.353 544.075 291.256 542.474 289.709C540.874 288.163 538.703 287.294 536.439 287.294L532.433 284.358L524.96 287.294L523.046 287.294L523.046 295.809Z" fill="#2F2E41"/>
<path d="M505.462 161.45C503.74 163.53 504.601 170.604 504.601 170.604C504.601 170.604 501.587 193.488 502.878 195.568C504.17 197.649 502.017 199.313 500.725 202.226C499.433 205.138 498.141 212.212 498.141 212.212C490.821 218.037 491.251 244.666 491.251 244.666L488.667 268.382C489.529 270.879 501.587 271.295 503.309 270.879C505.032 270.462 521.826 211.795 521.826 211.795C521.826 211.795 520.965 268.382 520.965 270.879C520.965 273.375 532.592 272.127 535.176 272.127C537.76 272.127 554.124 170.188 554.124 170.188V164.363L551.971 161.45C551.971 161.45 507.185 159.37 505.462 161.45Z" fill="#2F2E41"/>
<path d="M524.41 85.3078C531.783 85.3078 537.76 79.533 537.76 72.4094C537.76 65.2858 531.783 59.511 524.41 59.511C517.037 59.511 511.061 65.2858 511.061 72.4094C511.061 79.533 517.037 85.3078 524.41 85.3078Z" fill="#FFB6B6"/>
<path d="M506.475 170.652L506.402 170.553C502.513 165.293 508.362 152.652 509.244 150.82C508.197 150.491 507.299 149.822 506.705 148.926C506.111 148.031 505.856 146.963 505.985 145.907L506.365 142.783L506.762 139.72L503.922 136.976L503.914 136.908L502.28 123.092L499.904 113.916C499.008 110.447 499.085 106.81 500.125 103.379C501.165 99.948 503.131 96.8461 505.822 94.3919L511.314 93.5493L517.989 87.3354H528.753L532.444 90.7424C539.7 96.4892 541.422 93.9927 549.604 104.811L543.746 119.724L547.02 141.719L547.022 145.699L548.728 147.53C549.342 148.19 549.789 148.979 550.032 149.835C550.275 150.691 550.307 151.59 550.127 152.46L549.903 153.544C550.77 153.902 551.535 154.457 552.134 155.161C552.733 155.864 553.149 156.696 553.347 157.587L553.946 160.288C554.458 160.942 557.841 165.299 557.841 166.491C557.841 166.67 557.704 166.843 557.411 167.034C555.106 168.543 542.364 171.617 536.725 169.437C530.718 167.116 506.839 170.598 506.599 170.633L506.475 170.652Z" fill="#2FF77A"/>
<path d="M499.693 118.329L510.793 116.23C514.898 122.153 517.101 138.35 517.101 138.35L529.374 162.94C530.128 163.383 530.747 164.011 531.169 164.76C531.59 165.51 531.799 166.353 531.773 167.206C531.747 168.058 531.487 168.889 531.021 169.613C530.555 170.337 529.898 170.929 529.118 171.328C528.338 171.727 527.463 171.919 526.581 171.885C525.699 171.851 524.842 171.591 524.098 171.133C523.354 170.675 522.748 170.035 522.343 169.277C521.939 168.519 521.749 167.671 521.794 166.819L505.787 137.684L499.693 118.329Z" fill="#FFB6B6"/>
<path d="M499.631 120.874L499.315 104.934L504.539 98.1819C505.569 96.86 506.962 95.8429 508.559 95.2456C510.156 94.6482 511.895 94.4945 513.578 94.8016C515.856 95.2329 517.881 96.484 519.241 98.302C520.601 100.12 521.196 102.369 520.906 104.595C520.019 111.345 518.006 119.792 513.453 121.703L513.406 121.722L518.126 137.671L500.623 140.033L499.631 120.874Z" fill="#2FF77A"/>
<path d="M571.249 107.399C571.249 107.399 554.686 104.118 547.551 105.931L545.978 116.753L566.181 118.486L600.665 112.43C601.484 112.743 602.375 112.841 603.246 112.713C604.117 112.586 604.938 112.239 605.626 111.706C606.313 111.173 606.842 110.474 607.16 109.68C607.477 108.886 607.571 108.025 607.433 107.184C607.294 106.343 606.928 105.553 606.371 104.893C605.814 104.233 605.086 103.728 604.262 103.427C603.437 103.127 602.545 103.043 601.676 103.184C600.807 103.324 599.992 103.685 599.314 104.228L571.249 107.399Z" fill="#FFB6B6"/>
<path d="M551.194 119.287L534.793 117.54L528.534 111.666C527.31 110.509 526.445 109.044 526.037 107.437C525.63 105.829 525.695 104.144 526.227 102.571C526.963 100.443 528.507 98.6641 530.548 97.5944C532.589 96.5247 534.974 96.2437 537.222 96.8083C544.035 98.5258 550.854 96.9237 552.229 101.533L554.685 100.757L570.813 103.725L570.986 120.8L551.194 119.287Z" fill="#2FF77A"/>
<path d="M509.268 63.9342C510.767 61.6935 513.58 60.2001 516.307 60.6198C516.561 58.9383 517.287 57.3562 518.407 56.046C519.527 54.7358 520.998 53.7475 522.659 53.1889C524.32 52.6302 526.107 52.5226 527.827 52.8776C529.547 53.2327 531.133 54.0369 532.413 55.2026C532.834 54.9163 533.324 54.7399 533.836 54.6904C534.348 54.6408 534.865 54.7199 535.336 54.9199C536.275 55.3323 537.091 55.9655 537.711 56.7617C539.276 58.6472 540.282 60.9073 540.623 63.3015C540.964 65.6957 540.626 68.1344 539.646 70.358C539.98 69.1874 538.766 68.0861 537.539 67.8234C536.312 67.5607 535.025 67.8093 533.781 67.6382C532.187 67.419 530.753 66.5253 529.156 66.3241C527.802 66.2391 526.444 66.4077 525.156 66.8209C523.868 67.234 522.511 67.41 521.156 67.3398C519.812 67.1856 518.081 72.1072 518.104 75.5737C518.108 76.2306 517.968 77.074 517.304 77.2134C516.486 77.3851 516.012 76.2939 515.233 75.9966C514.874 75.8972 514.489 75.9363 514.159 76.1057C513.829 76.275 513.581 76.5615 513.465 76.9046C513.367 77.2534 513.357 77.6198 513.435 77.9734C513.513 78.3269 513.677 78.6573 513.914 78.9371C514.393 79.4918 514.961 79.9682 515.597 80.3477L515.276 80.6055C514.972 80.9164 514.565 81.1152 514.125 81.168C513.686 81.2207 513.241 81.1241 512.867 80.8947C512.131 80.4135 511.536 79.7583 511.137 78.9916C509.634 76.7456 508.559 74.2575 507.964 71.6454C507.377 69.008 507.843 66.2538 509.268 63.9342Z" fill="#2F2E41"/>
<path d="M621.268 285.317L615.973 277.095L614.915 281.793C614.73 282.616 614.544 283.452 614.373 284.282C612.869 283.041 611.268 281.893 609.703 280.791C604.895 277.42 600.09 274.045 595.287 270.666L596.791 279.093C597.718 284.282 598.687 289.577 600.98 294.321C601.235 294.859 601.509 295.39 601.805 295.907H624.152C624.332 295.426 624.456 294.928 624.523 294.421C624.529 294.388 624.531 294.355 624.53 294.321C624.88 291.103 623.04 288.071 621.268 285.317Z" fill="#F0F0F0"/>
<path d="M640.182 296.715L450.805 296.919C450.697 296.919 450.591 296.899 450.491 296.86C450.392 296.82 450.301 296.762 450.225 296.688C450.149 296.615 450.088 296.528 450.047 296.432C450.006 296.336 449.985 296.233 449.985 296.129C449.985 296.025 450.006 295.922 450.047 295.826C450.088 295.73 450.149 295.643 450.225 295.57C450.301 295.496 450.392 295.438 450.491 295.398C450.591 295.359 450.697 295.339 450.805 295.339L640.182 295.135C640.399 295.135 640.607 295.218 640.761 295.366C640.914 295.515 641 295.716 641 295.925C641 296.135 640.914 296.336 640.761 296.484C640.607 296.632 640.399 296.715 640.182 296.715Z" fill="#CACACA"/>
</g>
<defs>
<clipPath id="clip0_17_917">
<rect width="641" height="357" fill="white"/>
</clipPath>
</defs>
</svg>
